STARTFONT 2.1
FONT -Adobe-Helvetica-Bold-R-Normal--34-240-100-100-P-182-ISO10646-1
SIZE 24 100 100
FONTBOUNDINGBOX 40 49 -6 -12
COMMENT ISO10646-1 extension by Markus Kuhn <mkuhn@acm.org>, 2001-03-20
COMMENT 
COMMENT +
COMMENT  Copyright 1984-1989, 1994 Adobe Systems Incorporated.
COMMENT  Copyright 1988, 1994 Digital Equipment Corporation.
COMMENT
COMMENT  Adobe is a trademark of Adobe Systems Incorporated which may be
COMMENT  registered in certain jurisdictions.
COMMENT  Permission to use these trademarks is hereby granted only in
COMMENT  association with the images described in this file.
COMMENT
COMMENT  Permission to use, copy, modify, distribute and sell this software
COMMENT  and its documentation for any purpose and without fee is hereby
COMMENT  granted, provided that the above copyright notices appear in all
COMMENT  copies and that both those copyright notices and this permission
COMMENT  notice appear in supporting documentation, and that the names of
COMMENT  Adobe Systems and Digital Equipment Corporation not be used in
COMMENT  advertising or publicity pertaining to distribution of the software
COMMENT  without specific, written prior permission.  Adobe Systems and
COMMENT  Digital Equipment Corporation make no representations about the
COMMENT  suitability of this software for any purpose.  It is provided "as
COMMENT  is" without express or implied warranty.
COMMENT -
STARTPROPERTIES 26
FOUNDRY "Adobe"
FAMILY_NAME "Helvetica"
WEIGHT_NAME "Bold"
SLANT "R"
SETWIDTH_NAME "Normal"
ADD_STYLE_NAME ""
PIXEL_SIZE 34
POINT_SIZE 240
RESOLUTION_X 100
RESOLUTION_Y 100
SPACING "P"
AVERAGE_WIDTH 182
CHARSET_REGISTRY "ISO10646"
CHARSET_ENCODING "1"
CAP_HEIGHT 25
X_HEIGHT 18
FONT_ASCENT 28
FONT_DESCENT 7
FACE_NAME "Helvetica Bold"
COPYRIGHT "Copyright (c) 1984, 1987 Adobe Systems Incorporated. All Rights Reserved. Copyright (c) 1988, 1991 Digital Equipment Corporation. All Rights Reserved."

STARTCHAR char0
ENCODING 0
SWIDTH 722 0
DWIDTH 23 0
BBX 19 25 2 0
BITMAP
AAAAA0
000000
800020
000000
800020
000000
800020
000000
800020
000000
800020
000000
800020
000000
800020
000000
800020
000000
800020
000000
800020
000000
800020
000000
AAAAA0
ENDCHAR
STARTCHAR space
ENCODING 32
SWIDTH 278 0
DWIDTH 9 0
BBX 1 1 0 0
BITMAP
00
ENDCHAR
STARTCHAR exclam
ENCODING 33
SWIDTH 333 0
DWIDTH 11 0
BBX 5 25 3 0
BITMAP
F8
F8
F8
F8
F8
F8
F8
F8
F8
F8
F8
70
70
70
70
70
70
70
00
00
F8
F8
F8
F8
F8
ENDCHAR
STARTCHAR quotedbl
ENCODING 34
SWIDTH 474 0
DWIDTH 16 0
BBX 11 9 2 16
BITMAP
F1E0
F1E0
F1E0
F1E0
F1E0
F1E0
F1E0
60C0
60C0
ENDCHAR
STARTCHAR numbersign
ENCODING 35
SWIDTH 556 0
DWIDTH 19 0
BBX 18 25 0 -1
BITMAP
03C700
03C700
038F00
038F00
078F00
078E00
078E00
7FFFC0
7FFFC0
7FFFC0
7FFFC0
0F1C00
0E1C00
0E1C00
0E3C00
FFFF80
FFFF80
FFFF80
FFFF80
1C7800
3C7800
3C7000
3C7000
38F000
38F000
ENDCHAR
STARTCHAR dollar
ENCODING 36
SWIDTH 556 0
DWIDTH 18 0
BBX 16 28 1 -3
BITMAP
0180
0180
0FF0
3FFC
7FFE
FDBE
F99F
F19F
F18F
F980
FF80
7FC0
3FF0
0FFC
01FE
01FF
019F
018F
F18F
F19F
F99F
7FFE
7FFE
3FF8
07E0
0180
0180
0180
ENDCHAR
STARTCHAR percent
ENCODING 37
SWIDTH 889 0
DWIDTH 29 0
BBX 26 23 1 0
BITMAP
0E003000
3F807000
7FC06000
71C0E000
E0E0C000
E0E1C000
E0E38000
E0E38000
71C70000
7FC60000
3F8E0000
0E0C1C00
001C7F00
0018FF80
0038E380
0031C1C0
0071C1C0
0061C1C0
00E1C1C0
01C0E380
01C0FF80
03807F00
03001C00
ENDCHAR
STARTCHAR ampersand
ENCODING 38
SWIDTH 722 0
DWIDTH 24 0
BBX 20 25 2 0
BITMAP
03E000
0FF800
1FFC00
1FFC00
1E3C00
3E3C00
3E3C00
1F3C00
1FF800
0FF800
0FF000
0FE000
3FF1E0
7FF1E0
7CF9C0
F8FFC0
F07FC0
F03F80
F01F00
F80F80
FC3FC0
7FFFE0
7FFBE0
1FF1F0
07C000
ENDCHAR
STARTCHAR quotesingle
ENCODING 39
SWIDTH 238 0
DWIDTH 8 0
BBX 4 9 2 16
BITMAP
F0
F0
F0
F0
F0
F0
F0
60
60
ENDCHAR
STARTCHAR parenleft
ENCODING 40
SWIDTH 333 0
DWIDTH 11 0
BBX 8 31 1 -6
BITMAP
07
0F
1E
1E
3C
3C
38
78
78
78
F0
F0
F0
F0
F0
F0
F0
F0
F0
F8
78
78
78
78
3C
3C
1C
1E
0E
0F
07
ENDCHAR
STARTCHAR parenright
ENCODING 41
SWIDTH 333 0
DWIDTH 11 0
BBX 8 31 1 -6
BITMAP
E0
F0
78
78
3C
3C
1C
1E
1E
1E
0F
0F
0F
0F
0F
0F
0F
0F
0F
1F
1E
1E
1E
1C
3C
3C
38
78
70
F0
E0
ENDCHAR
STARTCHAR asterisk
ENCODING 42
SWIDTH 389 0
DWIDTH 13 0
BBX 10 11 1 13
BITMAP
0C00
0C00
4C80
EDC0
FFC0
7F80
1E00
3F00
7F80
7380
2100
ENDCHAR
STARTCHAR plus
ENCODING 43
SWIDTH 584 0
DWIDTH 19 0
BBX 16 16 1 0
BITMAP
03C0
03C0
03C0
03C0
03C0
03C0
FFFF
FFFF
FFFF
FFFF
03C0
03C0
03C0
03C0
03C0
03C0
ENDCHAR
STARTCHAR comma
ENCODING 44
SWIDTH 278 0
DWIDTH 9 0
BBX 5 11 2 -6
BITMAP
F8
F8
F8
F8
F8
18
18
38
70
E0
80
ENDCHAR
STARTCHAR hyphen
ENCODING 45
SWIDTH 333 0
DWIDTH 11 0
BBX 9 5 1 7
BITMAP
FF80
FF80
FF80
FF80
FF80
ENDCHAR
STARTCHAR period
ENCODING 46
SWIDTH 278 0
DWIDTH 9 0
BBX 5 5 2 0
BITMAP
F8
F8
F8
F8
F8
ENDCHAR
STARTCHAR slash
ENCODING 47
SWIDTH 278 0
DWIDTH 9 0
BBX 8 25 0 0
BITMAP
03
03
03
03
06
06
06
0E
0C
0C
0C
1C
18
18
18
30
30
30
70
60
60
60
C0
C0
C0
ENDCHAR
STARTCHAR zero
ENCODING 48
SWIDTH 556 0
DWIDTH 18 0
BBX 15 24 1 0
BITMAP
0FE0
1FF0
3FF8
7FFC
7C7C
F83E
F83E
F83E
F01E
F01E
F01E
F01E
F01E
F01E
F01E
F01E
F83E
F83E
F83E
7C7C
7FFC
3FF8
1FF0
0FE0
ENDCHAR
STARTCHAR one
ENCODING 49
SWIDTH 556 0
DWIDTH 18 0
BBX 10 23 2 0
BITMAP
01C0
03C0
07C0
1FC0
FFC0
FFC0
FFC0
03C0
03C0
03C0
03C0
03C0
03C0
03C0
03C0
03C0
03C0
03C0
03C0
03C0
03C0
03C0
03C0
ENDCHAR
STARTCHAR two
ENCODING 50
SWIDTH 556 0
DWIDTH 18 0
BBX 16 24 1 0
BITMAP
0FE0
3FF8
7FFC
7FFE
FC7E
F83F
F81F
F01F
F01F
003F
003E
007E
00FC
01F8
07F0
0FE0
1F80
3F00
7E00
FC00
FFFF
FFFF
FFFF
FFFF
ENDCHAR
STARTCHAR three
ENCODING 51
SWIDTH 556 0
DWIDTH 18 0
BBX 16 24 1 0
BITMAP
0FE0
3FF8
7FFC
7FFC
F83E
F03E
F01E
F01E
003E
007C
03F8
03F0
03FC
007E
003F
001F
F01F
F01F
F03F
F83E
7FFE
7FFC
3FF8
0FE0
ENDCHAR
STARTCHAR four
ENCODING 52
SWIDTH 556 0
DWIDTH 18 0
BBX 16 24 1 0
BITMAP
00F8
00F8
01F8
03F8
03F8
07F8
0F78
0E78
1E78
1C78
3C78
7878
7078
F078
E078
FFFF
FFFF
FFFF
FFFF
0078
0078
0078
0078
0078
ENDCHAR
STARTCHAR five
ENCODING 53
SWIDTH 556 0
DWIDTH 18 0
BBX 15 24 1 0
BITMAP
3FFC
3FFC
3FFC
3FFC
3800
7800
7800
7800
7BE0
7FF8
7FFC
7FFC
787E
003E
003E
001E
001E
F03E
F03E
F87C
7FFC
7FF8
3FF0
0FC0
ENDCHAR
STARTCHAR six
ENCODING 54
SWIDTH 556 0
DWIDTH 18 0
BBX 15 24 1 0
BITMAP
07E0
1FF8
3FFC
3FFE
7C3E
781E
F000
F000
F3E0
F7F8
FFFC
FFFC
FC7E
F83E
F01E
F01E
F01E
F01E
F83E
7C7C
7FFC
3FF8
1FF0
07C0
ENDCHAR
STARTCHAR seven
ENCODING 55
SWIDTH 556 0
DWIDTH 18 0
BBX 16 24 1 0
BITMAP
FFFF
FFFF
FFFF
FFFF
001E
003E
003C
0078
00F8
00F0
01F0
01E0
03E0
03C0
07C0
07C0
0780
0F80
0F80
0F80
1F00
1F00
1F00
1F00
ENDCHAR
STARTCHAR eight
ENCODING 56
SWIDTH 556 0
DWIDTH 18 0
BBX 17 24 0 0
BITMAP
07F000
1FFC00
3FFE00
3E3E00
7C1F00
780F00
780F00
780F00
7C1F00
3E3E00
1FFC00
1FFC00
3FFE00
7C1F00
F80F80
F00780
F00780
F00780
F80F80
7E3F00
7FFE00
3FFE00
1FFC00
07F000
ENDCHAR
STARTCHAR nine
ENCODING 57
SWIDTH 556 0
DWIDTH 18 0
BBX 15 24 1 0
BITMAP
07C0
1FF0
3FF8
7FFC
7C7C
F83E
F01E
F01E
F01E
F01E
F83E
FC7E
7FFE
7FFE
3FDE
079E
001E
001E
F03C
F87C
7FF8
7FF8
1FF0
07C0
ENDCHAR
STARTCHAR colon
ENCODING 58
SWIDTH 333 0
DWIDTH 11 0
BBX 5 17 3 0
BITMAP
F8
F8
F8
F8
F8
00
00
00
00
00
00
00
F8
F8
F8
F8
F8
ENDCHAR
STARTCHAR semicolon
ENCODING 59
SWIDTH 333 0
DWIDTH 11 0
BBX 5 23 3 -6
BITMAP
F8
F8
F8
F8
F8
00
00
00
00
00
00
00
F8
F8
F8
F8
F8
18
18
38
70
E0
80
ENDCHAR
STARTCHAR less
ENCODING 60
SWIDTH 584 0
DWIDTH 19 0
BBX 16 16 1 0
BITMAP
0003
001F
007F
03FF
0FFE
7FF8
FFC0
FE00
FE00
FFC0
7FF0
0FFE
03FF
007F
001F
0003
ENDCHAR
STARTCHAR equal
ENCODING 61
SWIDTH 584 0
DWIDTH 19 0
BBX 15 12 2 2
BITMAP
FFFE
FFFE
FFFE
FFFE
0000
0000
0000
0000
FFFE
FFFE
FFFE
FFFE
ENDCHAR
STARTCHAR greater
ENCODING 62
SWIDTH 584 0
DWIDTH 19 0
BBX 16 16 1 0
BITMAP
C000
F000
FE00
FFC0
7FF0
1FFE
03FF
007F
007F
03FF
1FFE
7FF0
FFC0
FE00
F000
C000
ENDCHAR
STARTCHAR question
ENCODING 63
SWIDTH 611 0
DWIDTH 20 0
BBX 16 25 2 0
BITMAP
0FE0
3FF8
7FFC
7FFE
FC7E
F83F
F81F
F01F
F01F
003F
007E
00FE
01FC
01F8
03E0
03C0
07C0
07C0
0000
0000
07C0
07C0
07C0
07C0
07C0
ENDCHAR
STARTCHAR at
ENCODING 64
SWIDTH 975 0
DWIDTH 33 0
BBX 29 30 1 -5
BITMAP
000FE000
007FFC00
01FFFE00
03F03F80
07C007C0
0F0003C0
1E0001E0
1C0000F0
3C07DC70
381FFC70
703CFC38
70787838
F0F03838
E0E03838
E1E03838
E1C07078
E1C07070
E1C07070
E1E0F0E0
F1E1F1E0
70FFFFC0
787F3F80
383E1E00
3C000000
1E000000
0F800000
0FF03C00
03FFFC00
01FFFC00
007FE000
ENDCHAR
STARTCHAR A
ENCODING 65
SWIDTH 722 0
DWIDTH 23 0
BBX 22 25 0 0
BITMAP
00FC00
00FC00
01FE00
01FE00
01FE00
03FF00
03FF00
03FF00
07CF80
07CF80
07CF80
0F8780
0F87C0
0F87C0
1F03C0
1F03E0
1FFFE0
1FFFE0
3FFFF0
3FFFF0
3E01F0
7C00F8
7C00F8
FC00FC
F8007C
ENDCHAR
STARTCHAR B
ENCODING 66
SWIDTH 722 0
DWIDTH 24 0
BBX 19 25 3 0
BITMAP
FFFC00
FFFF00
FFFF80
FFFF80
F80FC0
F807C0
F807C0
F807C0
F807C0
F80F80
FFFF00
FFFF00
FFFF80
FFFFC0
F807C0
F803E0
F803E0
F803E0
F803E0
F803E0
F807E0
FFFFC0
FFFFC0
FFFF80
FFFE00
ENDCHAR
STARTCHAR C
ENCODING 67
SWIDTH 722 0
DWIDTH 24 0
BBX 21 25 1 0
BITMAP
01FE00
07FF80
0FFFC0
1FFFE0
3F87F0
3E01F0
7C01F8
7C00F8
7C00F8
F80000
F80000
F80000
F80000
F80000
F80000
F80000
7C00F8
7C00F8
7E01F8
3E01F0
3F87F0
1FFFE0
0FFFC0
07FF80
01FE00
ENDCHAR
STARTCHAR D
ENCODING 68
SWIDTH 722 0
DWIDTH 24 0
BBX 21 25 2 0
BITMAP
FFF800
FFFF00
FFFF80
FFFFC0
F80FE0
F803E0
F803F0
F801F0
F801F8
F800F8
F800F8
F800F8
F800F8
F800F8
F800F8
F800F8
F801F8
F801F0
F803F0
F803E0
F80FE0
FFFFC0
FFFF80
FFFF00
FFF800
ENDCHAR
STARTCHAR E
ENCODING 69
SWIDTH 667 0
DWIDTH 22 0
BBX 18 25 2 0
BITMAP
FFFF80
FFFF80
FFFF80
FFFF80
F80000
F80000
F80000
F80000
F80000
F80000
FFFF00
FFFF00
FFFF00
FFFF00
F80000
F80000
F80000
F80000
F80000
F80000
F80000
FFFFC0
FFFFC0
FFFFC0
FFFFC0
ENDCHAR
STARTCHAR F
ENCODING 70
SWIDTH 611 0
DWIDTH 20 0
BBX 16 25 2 0
BITMAP
FFFF
FFFF
FFFF
FFFF
F800
F800
F800
F800
F800
F800
FFFE
FFFE
FFFE
FFFE
F800
F800
F800
F800
F800
F800
F800
F800
F800
F800
F800
ENDCHAR
STARTCHAR G
ENCODING 71
SWIDTH 778 0
DWIDTH 25 0
BBX 22 25 1 0
BITMAP
00FF00
03FFC0
0FFFE0
1FFFF0
1FC3F8
3F00F8
7E007C
7C007C
FC0000
F80000
F80000
F80000
F80FFC
F80FFC
F80FFC
F80FFC
FC007C
7C007C
7E007C
7E00FC
3F83FC
3FFFFC
1FFFDC
07FF9C
03FE1C
ENDCHAR
STARTCHAR H
ENCODING 72
SWIDTH 722 0
DWIDTH 23 0
BBX 19 25 2 0
BITMAP
F803E0
F803E0
F803E0
F803E0
F803E0
F803E0
F803E0
F803E0
F803E0
F803E0
FFFFE0
FFFFE0
FFFFE0
FFFFE0
F803E0
F803E0
F803E0
F803E0
F803E0
F803E0
F803E0
F803E0
F803E0
F803E0
F803E0
ENDCHAR
STARTCHAR I
ENCODING 73
SWIDTH 278 0
DWIDTH 9 0
BBX 5 25 2 0
BITMAP
F8
F8
F8
F8
F8
F8
F8
F8
F8
F8
F8
F8
F8
F8
F8
F8
F8
F8
F8
F8
F8
F8
F8
F8
F8
ENDCHAR
STARTCHAR J
ENCODING 74
SWIDTH 556 0
DWIDTH 18 0
BBX 15 25 1 0
BITMAP
003E
003E
003E
003E
003E
003E
003E
003E
003E
003E
003E
003E
003E
003E
003E
F83E
F83E
F83E
F83E
F83E
FC7E
FFFC
7FFC
3FF8
0FE0
ENDCHAR
STARTCHAR K
ENCODING 75
SWIDTH 722 0
DWIDTH 24 0
BBX 20 25 2 0
BITMAP
F807E0
F807E0
F80FC0
F81F80
F83F00
F87E00
F8FC00
F8F800
F9F800
FBF000
FFE000
FFE000
FFF000
FFF000
FFF800
FCFC00
F87E00
F87E00
F83F00
F81F80
F80F80
F80FC0
F807E0
F803F0
F803F0
ENDCHAR
STARTCHAR L
ENCODING 76
SWIDTH 611 0
DWIDTH 20 0
BBX 16 25 2 0
BITMAP
F800
F800
F800
F800
F800
F800
F800
F800
F800
F800
F800
F800
F800
F800
F800
F800
F800
F800
F800
F800
F800
FFFF
FFFF
FFFF
FFFF
ENDCHAR
STARTCHAR M
ENCODING 77
SWIDTH 833 0
DWIDTH 27 0
BBX 23 25 2 0
BITMAP
FE00FE
FE00FE
FF01FE
FF01FE
FF01FE
FF01FE
FF83FE
FF83FE
FB83BE
FB83BE
FBC7BE
FBC7BE
FBC7BE
F9C73E
F9EF3E
F9EF3E
F9EF3E
F9EF3E
F8EE3E
F8FE3E
F8FE3E
F8FE3E
F87C3E
F87C3E
F87C3E
ENDCHAR
STARTCHAR N
ENCODING 78
SWIDTH 722 0
DWIDTH 24 0
BBX 19 25 2 0
BITMAP
F803E0
FC03E0
FC03E0
FE03E0
FE03E0
FF03E0
FF03E0
FF83E0
FFC3E0
FBC3E0
FBE3E0
F9E3E0
F9F3E0
F8F3E0
F8FBE0
F87BE0
F83FE0
F83FE0
F81FE0
F81FE0
F80FE0
F80FE0
F807E0
F807E0
F803E0
ENDCHAR
STARTCHAR O
ENCODING 79
SWIDTH 778 0
DWIDTH 25 0
BBX 23 25 1 0
BITMAP
01FF00
07FFC0
0FFFE0
1FFFF0
3FC7F8
3F01F8
7E00FC
7C007C
7C007C
F8003E
F8003E
F8003E
F8003E
F8003E
F8003E
F8003E
7C007C
7C007C
7E00FC
3F01F8
3FC7F8
1FFFF0
0FFFE0
07FFC0
01FF00
ENDCHAR
STARTCHAR P
ENCODING 80
SWIDTH 667 0
DWIDTH 22 0
BBX 18 25 2 0
BITMAP
FFF800
FFFE00
FFFF00
FFFF80
F81F80
F80FC0
F807C0
F807C0
F807C0
F807C0
F80FC0
F81F80
FFFF80
FFFF00
FFFC00
FFF000
F80000
F80000
F80000
F80000
F80000
F80000
F80000
F80000
F80000
ENDCHAR
STARTCHAR Q
ENCODING 81
SWIDTH 778 0
DWIDTH 26 0
BBX 23 26 1 -1
BITMAP
01FF00
07FFC0
0FFFE0
1FFFF0
3FC7F8
3F01F8
7E00FC
7C007C
FC007E
F8003E
F8003E
F8003E
F8003E
F8003E
F8003E
F8023E
FC073E
7C0FBC
7E0FFC
3F07F8
3FC3F0
1FFFF8
0FFFFC
07FFFE
01FF3C
000018
ENDCHAR
STARTCHAR R
ENCODING 82
SWIDTH 722 0
DWIDTH 24 0
BBX 19 25 2 0
BITMAP
FFFE00
FFFF80
FFFFC0
FFFFC0
F807E0
F803E0
F803E0
F803E0
F803E0
F807C0
F80FC0
FFFF80
FFFF00
FFFF00
FFFF80
F80FC0
F807C0
F807C0
F807C0
F807C0
F807C0
F807C0
F807C0
F807E0
F803E0
ENDCHAR
STARTCHAR S
ENCODING 83
SWIDTH 667 0
DWIDTH 22 0
BBX 19 25 1 0
BITMAP
03F800
0FFE00
1FFF00
3FFF80
3E1F80
7C07C0
7807C0
7803C0
7C0000
7F0000
3FF000
3FFE00
1FFF80
03FFC0
003FC0
0007E0
0003E0
F803E0
F803E0
7C03E0
7E0FC0
3FFFC0
1FFF80
0FFF00
03F800
ENDCHAR
STARTCHAR T
ENCODING 84
SWIDTH 611 0
DWIDTH 20 0
BBX 19 25 0 0
BITMAP
FFFFE0
FFFFE0
FFFFE0
FFFFE0
01F000
01F000
01F000
01F000
01F000
01F000
01F000
01F000
01F000
01F000
01F000
01F000
01F000
01F000
01F000
01F000
01F000
01F000
01F000
01F000
01F000
ENDCHAR
STARTCHAR U
ENCODING 85
SWIDTH 722 0
DWIDTH 24 0
BBX 19 25 2 0
BITMAP
F803E0
F803E0
F803E0
F803E0
F803E0
F803E0
F803E0
F803E0
F803E0
F803E0
F803E0
F803E0
F803E0
F803E0
F803E0
F803E0
F803E0
F803E0
F803E0
FC07E0
7F1FC0
7FFFC0
3FFF80
1FFF00
07FC00
ENDCHAR
STARTCHAR V
ENCODING 86
SWIDTH 667 0
DWIDTH 22 0
BBX 20 25 1 0
BITMAP
F801F0
F801F0
7C03E0
7C03E0
7C03E0
3C03C0
3E07C0
3E07C0
1E0780
1F0F80
1F0F80
0F0F00
0F0F00
0F0F00
079E00
079E00
079E00
07FE00
03FC00
03FC00
03FC00
01F800
01F800
01F800
00F000
ENDCHAR
STARTCHAR W
ENCODING 87
SWIDTH 944 0
DWIDTH 31 0
BBX 29 25 1 0
BITMAP
F81F81F8
F81F81F8
781F81F0
781F81F0
781F81F0
7C3FC3E0
7C3FC3E0
7C3FC3E0
3C3FC3E0
3C39C3C0
3E79E3C0
3E79E7C0
1E79E7C0
1E79E780
1E70E780
1E70E780
0FF0FF00
0FF0FF00
0FF0FF00
0FE07F00
07E07E00
07E07E00
07E07E00
03C03C00
03C03C00
ENDCHAR
STARTCHAR X
ENCODING 88
SWIDTH 667 0
DWIDTH 22 0
BBX 20 25 1 0
BITMAP
FC03E0
7E07E0
7E07C0
3F0FC0
1F0F80
1F9F00
0F9F00
0FBE00
07FE00
07FC00
03FC00
03F800
01F800
03F800
03FC00
07FC00
07FE00
0FBF00
1F9F00
1F1F80
3F0F80
3E0FC0
7E07C0
FC07E0
FC03F0
ENDCHAR
STARTCHAR Y
ENCODING 89
SWIDTH 667 0
DWIDTH 22 0
BBX 20 25 1 0
BITMAP
FC03F0
FC03E0
7E07E0
3E07C0
3F0FC0
3F0F80
1F0F80
1F9F00
0F9F00
0FFE00
07FE00
07FC00
03FC00
03F800
03F800
01F000
01F000
01F000
01F000
01F000
01F000
01F000
01F000
01F000
01F000
ENDCHAR
STARTCHAR Z
ENCODING 90
SWIDTH 611 0
DWIDTH 20 0
BBX 17 25 1 0
BITMAP
FFFF80
FFFF80
FFFF80
FFFF80
000F80
001F80
003F00
007E00
007C00
00FC00
01F800
03F000
03F000
07E000
0FC000
0F8000
1F8000
3F0000
7E0000
7E0000
FC0000
FFFF80
FFFF80
FFFF80
FFFF80
ENDCHAR
STARTCHAR bracketleft
ENCODING 91
SWIDTH 333 0
DWIDTH 11 0
BBX 8 31 2 -6
BITMAP
FF
FF
FF
F0
F0
F0
F0
F0
F0
F0
F0
F0
F0
F0
F0
F0
F0
F0
F0
F0
F0
F0
F0
F0
F0
F0
F0
F0
FF
FF
FF
ENDCHAR
STARTCHAR backslash
ENCODING 92
SWIDTH 278 0
DWIDTH 9 0
BBX 9 25 0 0
BITMAP
C000
C000
E000
6000
6000
7000
7000
3000
3800
3800
1800
1C00
1C00
0C00
0C00
0E00
0E00
0600
0700
0700
0300
0380
0380
0180
0180
ENDCHAR
STARTCHAR bracketright
ENCODING 93
SWIDTH 333 0
DWIDTH 11 0
BBX 8 31 0 -6
BITMAP
FF
FF
FF
0F
0F
0F
0F
0F
0F
0F
0F
0F
0F
0F
0F
0F
0F
0F
0F
0F
0F
0F
0F
0F
0F
0F
0F
0F
FF
FF
FF
ENDCHAR
STARTCHAR asciicircum
ENCODING 94
SWIDTH 584 0
DWIDTH 19 0
BBX 14 14 2 9
BITMAP
0780
0FC0
0FC0
0FC0
1FE0
1FE0
3CF0
3CF0
3870
7878
7878
703C
F03C
F03C
ENDCHAR
STARTCHAR underscore
ENCODING 95
SWIDTH 556 0
DWIDTH 18 0
BBX 18 2 0 -6
BITMAP
FFFFC0
FFFFC0
ENDCHAR
STARTCHAR grave
ENCODING 96
SWIDTH 333 0
DWIDTH 11 0
BBX 5 5 2 20
BITMAP
E0
F0
70
78
38
ENDCHAR
STARTCHAR a
ENCODING 97
SWIDTH 556 0
DWIDTH 18 0
BBX 15 18 1 0
BITMAP
0FF0
3FFC
7FFC
7C3E
F81E
F81E
00FE
0FFE
3FFE
7F1E
F81E
F81E
F03E
F87E
FFFE
FFFE
7FDE
3F1E
ENDCHAR
STARTCHAR b
ENCODING 98
SWIDTH 611 0
DWIDTH 20 0
BBX 16 25 2 0
BITMAP
F000
F000
F000
F000
F000
F000
F000
F3F0
F7FC
FFFC
FFFE
FC3E
F81F
F01F
F00F
F00F
F00F
F00F
F01F
F01F
F83E
FFFE
FFFC
F7F8
F1F0
ENDCHAR
STARTCHAR c
ENCODING 99
SWIDTH 556 0
DWIDTH 18 0
BBX 15 18 1 0
BITMAP
07E0
1FF8
3FFC
3FFC
7C3E
783E
F01E
F000
F000
F000
F000
F01E
F81E
7C3E
7FFC
3FF8
1FF8
07E0
ENDCHAR
STARTCHAR d
ENCODING 100
SWIDTH 611 0
DWIDTH 20 0
BBX 16 25 1 0
BITMAP
000F
000F
000F
000F
000F
000F
000F
0FCF
1FEF
3FFF
7FFF
7C3F
F81F
F00F
F00F
F00F
F00F
F00F
F00F
F81F
7C3F
7FFF
3FEF
1FEF
0F8F
ENDCHAR
STARTCHAR e
ENCODING 101
SWIDTH 556 0
DWIDTH 18 0
BBX 16 18 1 0
BITMAP
07E0
1FF8
3FFC
7FFE
7C3E
F81F
F01F
FFFF
FFFF
FFFF
F000
F000
F81E
7C3E
7FFC
3FFC
1FF0
07C0
ENDCHAR
STARTCHAR f
ENCODING 102
SWIDTH 333 0
DWIDTH 11 0
BBX 10 25 0 0
BITMAP
07C0
0FC0
1FC0
1F00
1E00
1E00
1E00
FFC0
FFC0
FFC0
1E00
1E00
1E00
1E00
1E00
1E00
1E00
1E00
1E00
1E00
1E00
1E00
1E00
1E00
1E00
ENDCHAR
STARTCHAR g
ENCODING 103
SWIDTH 611 0
DWIDTH 20 0
BBX 16 25 1 -7
BITMAP
0FCF
1FEF
3FFF
7FFF
7C3F
F81F
F81F
F00F
F00F
F00F
F00F
F81F
F81F
7C3F
7FFF
3FFF
1FEF
0FCF
000F
F81F
F81F
7E7E
7FFE
3FFC
0FF0
ENDCHAR
STARTCHAR h
ENCODING 104
SWIDTH 611 0
DWIDTH 20 0
BBX 15 25 2 0
BITMAP
F000
F000
F000
F000
F000
F000
F000
F1E0
F7F8
FFFC
FFFC
FC3E
F81E
F81E
F01E
F01E
F01E
F01E
F01E
F01E
F01E
F01E
F01E
F01E
F01E
ENDCHAR
STARTCHAR i
ENCODING 105
SWIDTH 278 0
DWIDTH 9 0
BBX 4 25 2 0
BITMAP
F0
F0
F0
F0
00
00
F0
F0
F0
F0
F0
F0
F0
F0
F0
F0
F0
F0
F0
F0
F0
F0
F0
F0
F0
ENDCHAR
STARTCHAR j
ENCODING 106
SWIDTH 278 0
DWIDTH 9 0
BBX 6 32 0 -7
BITMAP
3C
3C
3C
3C
00
00
3C
3C
3C
3C
3C
3C
3C
3C
3C
3C
3C
3C
3C
3C
3C
3C
3C
3C
3C
3C
3C
3C
FC
FC
F8
F8
ENDCHAR
STARTCHAR k
ENCODING 107
SWIDTH 556 0
DWIDTH 19 0
BBX 15 25 2 0
BITMAP
F000
F000
F000
F000
F000
F000
F000
F03E
F07C
F0F8
F1F0
F3E0
F7C0
FF80
FFC0
FFC0
FFE0
FFE0
F9F0
F1F0
F0F8
F078
F07C
F03E
F03E
ENDCHAR
STARTCHAR l
ENCODING 108
SWIDTH 278 0
DWIDTH 9 0
BBX 4 25 2 0
BITMAP
F0
F0
F0
F0
F0
F0
F0
F0
F0
F0
F0
F0
F0
F0
F0
F0
F0
F0
F0
F0
F0
F0
F0
F0
F0
ENDCHAR
STARTCHAR m
ENCODING 109
SWIDTH 889 0
DWIDTH 30 0
BBX 24 18 2 0
BITMAP
F1E0F8
F7FBFE
FFFFFE
FFFFFF
FC7F1F
F83E0F
F03C0F
F03C0F
F03C0F
F03C0F
F03C0F
F03C0F
F03C0F
F03C0F
F03C0F
F03C0F
F03C0F
F03C0F
ENDCHAR
STARTCHAR n
ENCODING 110
SWIDTH 611 0
DWIDTH 20 0
BBX 15 18 2 0
BITMAP
F1F0
F7FC
FFFC
FFFE
FC3E
F81E
F01E
F01E
F01E
F01E
F01E
F01E
F01E
F01E
F01E
F01E
F01E
F01E
ENDCHAR
STARTCHAR o
ENCODING 111
SWIDTH 611 0
DWIDTH 20 0
BBX 17 18 1 0
BITMAP
07F000
1FFC00
3FFE00
7FFF00
7C1F00
F80F80
F80F80
F00780
F00780
F00780
F00780
F80F80
F80F80
7C1F00
7FFF00
3FFE00
1FFC00
07F000
ENDCHAR
STARTCHAR p
ENCODING 112
SWIDTH 611 0
DWIDTH 20 0
BBX 16 25 2 -7
BITMAP
F1F0
F7F8
FFFC
FFFE
FC3E
F81F
F81F
F00F
F00F
F00F
F00F
F81F
F81F
FC3E
FFFE
FFFC
F7F8
F1F0
F000
F000
F000
F000
F000
F000
F000
ENDCHAR
STARTCHAR q
ENCODING 113
SWIDTH 611 0
DWIDTH 20 0
BBX 16 25 1 -7
BITMAP
07CF
1FEF
3FFF
7FFF
7C3F
F81F
F00F
F00F
F00F
F00F
F00F
F00F
F81F
7C3F
7FFF
3FFF
3FEF
0FCF
000F
000F
000F
000F
000F
000F
000F
ENDCHAR
STARTCHAR r
ENCODING 114
SWIDTH 389 0
DWIDTH 13 0
BBX 10 18 2 0
BITMAP
F0C0
F3C0
F7C0
FFC0
FFC0
FC00
F800
F800
F000
F000
F000
F000
F000
F000
F000
F000
F000
F000
ENDCHAR
STARTCHAR s
ENCODING 115
SWIDTH 556 0
DWIDTH 19 0
BBX 16 18 1 0
BITMAP
07F0
1FFC
3FFE
7C3E
781F
781F
7C00
7FC0
3FF8
0FFE
03FF
003F
F80F
F80F
7C1F
7FFE
3FFC
0FF0
ENDCHAR
STARTCHAR t
ENCODING 116
SWIDTH 333 0
DWIDTH 11 0
BBX 9 22 1 0
BITMAP
3C00
3C00
3C00
3C00
FF80
FF80
FF80
3C00
3C00
3C00
3C00
3C00
3C00
3C00
3C00
3C00
3C00
3C00
3F80
3F80
1F80
0F80
ENDCHAR
STARTCHAR u
ENCODING 117
SWIDTH 611 0
DWIDTH 20 0
BBX 15 18 2 0
BITMAP
F01E
F01E
F01E
F01E
F01E
F01E
F01E
F01E
F01E
F01E
F01E
F01E
F83E
F87E
FFFE
7FFE
7FDE
1F1E
ENDCHAR
STARTCHAR v
ENCODING 118
SWIDTH 556 0
DWIDTH 19 0
BBX 17 18 0 0
BITMAP
F80F80
F80F80
7C1F00
7C1F00
3C1E00
3C1E00
3E3E00
1E3C00
1E3C00
1E3C00
0F7800
0F7800
0F7800
07F000
07F000
07F000
03E000
03E000
ENDCHAR
STARTCHAR w
ENCODING 119
SWIDTH 778 0
DWIDTH 26 0
BBX 25 18 0 0
BITMAP
F83E0F80
F83E0F80
783E0F00
7C3E1F00
7C7F1F00
3C7F1E00
3C7F1E00
3C771E00
3CF79E00
1EE3BC00
1EE3BC00
1EE3BC00
1FE3FC00
0FC1F800
0FC1F800
0FC1F800
0780F000
0780F000
ENDCHAR
STARTCHAR x
ENCODING 120
SWIDTH 556 0
DWIDTH 19 0
BBX 16 18 1 0
BITMAP
F81F
FC3F
7C3E
3E7C
3E78
1FF8
0FF0
07E0
03C0
07E0
0FE0
0FF0
1FF8
3E78
3E7C
7C3E
FC3F
F81F
ENDCHAR
STARTCHAR y
ENCODING 121
SWIDTH 556 0
DWIDTH 19 0
BBX 16 25 1 -7
BITMAP
F81F
F81F
F81E
783E
7C3E
7C3C
3C3C
3E7C
3E78
1E78
1E78
1FF0
0FF0
0FF0
0FE0
07E0
07E0
07C0
07C0
07C0
0F80
3F80
3F00
3F00
3C00
ENDCHAR
STARTCHAR z
ENCODING 122
SWIDTH 500 0
DWIDTH 17 0
BBX 14 18 1 0
BITMAP
FFFC
FFFC
FFFC
FFFC
00F8
01F0
03F0
07E0
0FC0
1F80
1F00
3E00
7C00
F800
FFFC
FFFC
FFFC
FFFC
ENDCHAR
STARTCHAR braceleft
ENCODING 123
SWIDTH 389 0
DWIDTH 13 0
BBX 9 32 2 -7
BITMAP
0F80
1F80
3F80
3E00
3C00
3C00
3C00
3C00
3C00
3C00
3C00
3C00
3C00
3C00
7C00
7800
E000
7800
7C00
3C00
3C00
3C00
3C00
3C00
3C00
3C00
3C00
3C00
3C00
3F80
1F80
0F80
ENDCHAR
STARTCHAR bar
ENCODING 124
SWIDTH 280 0
DWIDTH 9 0
BBX 3 31 3 -6
BITMAP
E0
E0
E0
E0
E0
E0
E0
E0
E0
E0
E0
E0
E0
E0
E0
E0
E0
E0
E0
E0
E0
E0
E0
E0
E0
E0
E0
E0
E0
E0
E0
ENDCHAR
STARTCHAR braceright
ENCODING 125
SWIDTH 389 0
DWIDTH 13 0
BBX 9 32 2 -7
BITMAP
F800
FC00
FE00
3E00
1E00
1E00
1E00
1E00
1E00
1E00
1E00
1E00
1E00
1E00
1F00
0F00
0380
0F00
1F00
1E00
1E00
1E00
1E00
1E00
1E00
1E00
1E00
1E00
1E00
FE00
FC00
F800
ENDCHAR
STARTCHAR asciitilde
ENCODING 126
SWIDTH 584 0
DWIDTH 19 0
BBX 14 6 2 5
BITMAP
3800
7E0C
FF9C
E7FC
C1F8
0070
ENDCHAR
STARTCHAR space
ENCODING 160
SWIDTH 278 0
DWIDTH 9 0
BBX 1 1 0 0
BITMAP
00
ENDCHAR
STARTCHAR exclamdown
ENCODING 161
SWIDTH 333 0
DWIDTH 11 0
BBX 5 24 2 -6
BITMAP
F8
F8
F8
F8
F8
00
00
70
70
70
70
70
70
F8
F8
F8
F8
F8
F8
F8
F8
F8
F8
F8
ENDCHAR
STARTCHAR cent
ENCODING 162
SWIDTH 556 0
DWIDTH 18 0
BBX 15 24 1 -3
BITMAP
0020
0020
0060
07F0
1FF8
3FFC
7FFC
7CBE
F89E
F99E
F180
F180
F300
F300
F31E
FA1E
7E3E
7FFC
3FF8
1FF0
0FC0
0C00
0800
0800
ENDCHAR
STARTCHAR sterling
ENCODING 163
SWIDTH 556 0
DWIDTH 18 0
BBX 17 24 0 0
BITMAP
03F000
1FFC00
3FFE00
3FFF00
7E1F00
7C0F80
7C0F80
7C0780
7C0000
7E0000
3E0000
FFF000
FFF000
1F0000
0F0000
0F0000
0F0000
1F0000
1E0000
3DE300
7FFF80
FFFF80
FFFF00
607E00
ENDCHAR
STARTCHAR currency
ENCODING 164
SWIDTH 556 0
DWIDTH 18 0
BBX 15 15 1 4
BITMAP
E00E
F7DE
FFFE
7FFC
3C78
783C
701C
701C
701C
783C
3C78
7FFC
FFFE
F7DE
E00E
ENDCHAR
STARTCHAR yen
ENCODING 165
SWIDTH 556 0
DWIDTH 18 0
BBX 18 24 0 0
BITMAP
F807C0
F807C0
7C0F80
3C0F00
1E1E00
1E1E00
0F3C00
0F3C00
07F800
07F800
03F000
01E000
3FFF00
3FFF00
01E000
01E000
3FFF00
3FFF00
01E000
01E000
01E000
01E000
01E000
01E000
ENDCHAR
STARTCHAR brokenbar
ENCODING 166
SWIDTH 280 0
DWIDTH 9 0
BBX 3 31 3 -6
BITMAP
E0
E0
E0
E0
E0
E0
E0
E0
E0
E0
E0
E0
E0
00
00
00
00
00
00
E0
E0
E0
E0
E0
E0
E0
E0
E0
E0
E0
E0
ENDCHAR
STARTCHAR section
ENCODING 167
SWIDTH 556 0
DWIDTH 18 0
BBX 16 32 1 -7
BITMAP
0FF0
1FF8
3FF8
7E7C
7C3C
7C3C
7E00
7F00
3FC0
1FE0
3FF8
7FFC
71FE
F0FF
F03F
F81F
FC0F
7F0F
7F9F
3FFE
1FF8
07FC
01FE
007E
003E
781E
781E
7C3E
3FFC
3FFC
1FF8
07E0
ENDCHAR
STARTCHAR dieresis
ENCODING 168
SWIDTH 333 0
DWIDTH 11 0
BBX 10 4 0 21
BITMAP
F3C0
F3C0
F3C0
F3C0
ENDCHAR
STARTCHAR copyright
ENCODING 169
SWIDTH 737 0
DWIDTH 24 0
BBX 26 25 0 0
BITMAP
007F8000
03FFE000
0780F800
1F003C00
1C000E00
38000700
703F0300
707F8380
E0F3C180
E1C0E1C0
C1C0E0C0
C38000C0
C38000C0
C38000C0
C38000C0
C1C0E0C0
E1C0E1C0
E0F3C380
607F8380
703F0700
38000E00
1E003C00
0F80F800
07FFE000
01FF8000
ENDCHAR
STARTCHAR ordfeminine
ENCODING 170
SWIDTH 370 0
DWIDTH 12 0
BBX 9 16 1 9
BITMAP
3E00
7F00
E380
C380
1F80
7F80
F380
E380
E380
FF80
7B80
0000
0000
FF80
FF80
FF80
ENDCHAR
STARTCHAR guillemotleft
ENCODING 171
SWIDTH 556 0
DWIDTH 18 0
BBX 12 13 3 2
BITMAP
0810
1830
3870
78F0
F1E0
E1C0
E1C0
F1E0
F9F0
78F0
3870
1830
0810
ENDCHAR
STARTCHAR logicalnot
ENCODING 172
SWIDTH 584 0
DWIDTH 19 0
BBX 16 10 1 4
BITMAP
FFFF
FFFF
FFFF
FFFF
000F
000F
000F
000F
000F
000F
ENDCHAR
STARTCHAR hyphen
ENCODING 173
SWIDTH 333 0
DWIDTH 11 0
BBX 9 5 1 7
BITMAP
FF80
FF80
FF80
FF80
FF80
ENDCHAR
STARTCHAR registered
ENCODING 174
SWIDTH 737 0
DWIDTH 24 0
BBX 26 25 0 0
BITMAP
00FF8000
03FFE000
0780F800
1E003C00
1C000E00
38FF8700
70FFC300
70E1E380
E0E0E180
E0E0E180
C0E0E1C0
C0E1C1C0
C0FF81C0
C0FF01C0
C0E381C0
C0E3C1C0
E0E1C180
E0E0E380
70E0F380
70E07700
38000E00
1E001C00
0F807800
07FFE000
01FF8000
ENDCHAR
STARTCHAR macron
ENCODING 175
SWIDTH 333 0
DWIDTH 11 0
BBX 10 3 0 21
BITMAP
FFC0
FFC0
FFC0
ENDCHAR
STARTCHAR degree
ENCODING 176
SWIDTH 400 0
DWIDTH 13 0
BBX 9 10 2 14
BITMAP
3E00
7F00
6300
C180
C180
C180
C180
6300
7F00
3E00
ENDCHAR
STARTCHAR plusminus
ENCODING 177
SWIDTH 584 0
DWIDTH 19 0
BBX 16 22 1 0
BITMAP
03C0
03C0
03C0
03C0
03C0
03C0
FFFF
FFFF
FFFF
FFFF
03C0
03C0
03C0
03C0
03C0
03C0
0000
0000
FFFF
FFFF
FFFF
FFFF
ENDCHAR
STARTCHAR twosuperior
ENCODING 178
SWIDTH 333 0
DWIDTH 11 0
BBX 10 15 0 9
BITMAP
3F00
7F80
F3C0
E1C0
E1C0
01C0
03C0
0780
0F00
3E00
7800
7000
FFC0
FFC0
FFC0
ENDCHAR
STARTCHAR threesuperior
ENCODING 179
SWIDTH 333 0
DWIDTH 11 0
BBX 10 15 0 9
BITMAP
1E00
7F80
F3C0
E1C0
E1C0
03C0
0F80
0F80
03C0
01C0
E1C0
E1C0
F3C0
7F80
3E00
ENDCHAR
STARTCHAR acute
ENCODING 180
SWIDTH 333 0
DWIDTH 11 0
BBX 6 5 4 20
BITMAP
3C
78
70
E0
E0
ENDCHAR
STARTCHAR mu
ENCODING 181
SWIDTH 611 0
DWIDTH 20 0
BBX 15 25 2 -7
BITMAP
F01E
F01E
F01E
F01E
F01E
F01E
F01E
F01E
F01E
F01E
F01E
F01E
F83E
F87E
FFFE
FFFE
FFDE
F79E
F000
F000
F000
F000
F000
F000
F000
ENDCHAR
STARTCHAR paragraph
ENCODING 182
SWIDTH 556 0
DWIDTH 18 0
BBX 17 31 0 -6
BITMAP
0FFF80
1FFF80
3F8C00
7F8C00
7F8C00
FF8C00
FF8C00
FF8C00
FF8C00
FF8C00
7F8C00
7F8C00
3F8C00
3F8C00
0F8C00
018C00
018C00
018C00
018C00
018C00
018C00
018C00
018C00
018C00
018C00
018C00
018C00
018C00
018C00
018C00
018C00
ENDCHAR
STARTCHAR periodcentered
ENCODING 183
SWIDTH 278 0
DWIDTH 9 0
BBX 4 5 2 11
BITMAP
60
F0
F0
F0
60
ENDCHAR
STARTCHAR cedilla
ENCODING 184
SWIDTH 333 0
DWIDTH 11 0
BBX 7 8 2 -7
BITMAP
30
30
30
7C
1E
0E
FC
F8
ENDCHAR
STARTCHAR onesuperior
ENCODING 185
SWIDTH 333 0
DWIDTH 11 0
BBX 6 15 2 9
BITMAP
1C
3C
FC
FC
1C
1C
1C
1C
1C
1C
1C
1C
1C
1C
1C
ENDCHAR
STARTCHAR ordmasculine
ENCODING 186
SWIDTH 365 0
DWIDTH 12 0
BBX 10 16 1 9
BITMAP
3F00
7F80
7380
E1C0
E1C0
E1C0
E1C0
E1C0
7380
7F80
3F00
0000
0000
FFC0
FFC0
FFC0
ENDCHAR
STARTCHAR guillemotright
ENCODING 187
SWIDTH 556 0
DWIDTH 18 0
BBX 12 12 3 3
BITMAP
8100
C180
E1C0
F1E0
78F0
3870
3870
78F0
F1E0
E1C0
C180
8100
ENDCHAR
STARTCHAR onequarter
ENCODING 188
SWIDTH 834 0
DWIDTH 28 0
BBX 26 24 0 0
BITMAP
00003800
06007000
1E007000
FE00E000
FE01C000
0E01C000
0E038000
0E038000
0E070000
0E070000
0E0E0700
0E1C0F00
0E1C1F00
0E381F00
00383700
00706700
0070E700
00E0C700
01C18700
01C1FFC0
0381FFC0
03800700
07000700
07000700
ENDCHAR
STARTCHAR onehalf
ENCODING 189
SWIDTH 834 0
DWIDTH 28 0
BBX 25 24 1 0
BITMAP
0000E000
0C01C000
1C01C000
FC038000
FC038000
1C070000
1C0E0000
1C0E0000
1C1C0000
1C1C0000
1C387E00
1C30FF00
1C71E780
1CE1C380
00E1C380
01C00780
01C00F00
03801E00
07003C00
07007800
0E00F000
0E01FF80
1C01FF80
1C01FF80
ENDCHAR
STARTCHAR threequarters
ENCODING 190
SWIDTH 834 0
DWIDTH 27 0
BBX 25 24 1 0
BITMAP
3F001C00
7F803800
F3C03800
E1C07000
E1C0E000
03C0E000
0F81C000
0F81C000
0FC38000
01C70000
E1C70E00
E1CE1E00
F3CE1E00
7F9C3E00
3F1C7E00
0038EE00
0070CE00
00718E00
00E38E00
00E3FF80
01C3FF80
01C00E00
03800E00
03800E00
ENDCHAR
STARTCHAR questiondown
ENCODING 191
SWIDTH 611 0
DWIDTH 20 0
BBX 16 24 1 -6
BITMAP
03E0
03E0
03E0
03E0
0000
0000
03C0
03C0
03C0
07C0
1F80
3F80
7F00
7E00
FC00
F80F
F80F
F80F
FC1F
7E7F
7FFE
3FFE
3FFC
0FF0
ENDCHAR
STARTCHAR Agrave
ENCODING 192
SWIDTH 722 0
DWIDTH 23 0
BBX 22 31 0 0
BITMAP
03C000
01E000
00F000
007800
003C00
000000
00FC00
00FC00
01FE00
01FE00
01FE00
03FF00
03FF00
03FF00
07CF80
07CF80
07CF80
0F8780
0F87C0
0F87C0
1F03C0
1F03E0
1FFFE0
1FFFE0
3FFFF0
3FFFF0
3E01F0
7C00F8
7C00F8
FC00FC
F8007C
ENDCHAR
STARTCHAR Aacute
ENCODING 193
SWIDTH 722 0
DWIDTH 23 0
BBX 22 31 0 0
BITMAP
000F00
001E00
003C00
007800
00F000
000000
00FC00
00FC00
01FE00
01FE00
01FE00
03FF00
03FF00
03FF00
07CF80
07CF80
07CF80
0F8780
0F87C0
0F87C0
1F03C0
1F03E0
1FFFE0
1FFFE0
3FFFF0
3FFFF0
3E01F0
7C00F8
7C00F8
FC00FC
F8007C
ENDCHAR
STARTCHAR Acircumflex
ENCODING 194
SWIDTH 722 0
DWIDTH 23 0
BBX 22 31 0 0
BITMAP
003000
007800
00FC00
01CE00
038700
000000
00FC00
00FC00
01FE00
01FE00
01FE00
03FF00
03FF00
03FF00
07CF80
07CF80
07CF80
0F8780
0F87C0
0F87C0
1F03C0
1F03E0
1FFFE0
1FFFE0
3FFFF0
3FFFF0
3E01F0
7C00F8
7C00F8
FC00FC
F8007C
ENDCHAR
STARTCHAR Atilde
ENCODING 195
SWIDTH 722 0
DWIDTH 23 0
BBX 22 30 0 0
BITMAP
00F180
01FF80
03FF00
031E00
000000
00FC00
00FC00
01FE00
01FE00
01FE00
03FF00
03FF00
03FF00
07CF80
07CF80
07CF80
0F8780
0F87C0
0F87C0
1F03C0
1F03E0
1FFFE0
1FFFE0
3FFFF0
3FFFF0
3E01F0
7C00F8
7C00F8
FC00FC
F8007C
ENDCHAR
STARTCHAR Adieresis
ENCODING 196
SWIDTH 722 0
DWIDTH 23 0
BBX 22 31 0 0
BITMAP
03CF00
03CF00
03CF00
03CF00
000000
000000
00FC00
00FC00
01FE00
01FE00
01FE00
03FF00
03FF00
03FF00
07CF80
07CF80
07CF80
0F8780
0F87C0
0F87C0
1F03C0
1F03E0
1FFFE0
1FFFE0
3FFFF0
3FFFF0
3E01F0
7C00F8
7C00F8
FC00FC
F8007C
ENDCHAR
STARTCHAR Aring
ENCODING 197
SWIDTH 722 0
DWIDTH 23 0
BBX 22 31 0 0
BITMAP
007800
00CC00
008400
008400
00CC00
007800
000000
00FC00
01FE00
01FE00
01FE00
03FF00
03FF00
03FF00
07CF80
07CF80
07CF80
0F8780
0F87C0
0F87C0
1F03C0
1F03E0
1FFFE0
1FFFE0
3FFFF0
3FFFF0
3E01F0
7C00F8
7C00F8
FC00FC
F8007C
ENDCHAR
STARTCHAR AE
ENCODING 198
SWIDTH 1000 0
DWIDTH 32 0
BBX 31 25 0 0
BITMAP
00FFFFFC
00FFFFFC
00FFFFFC
01FFFFFC
01F3C000
01E3C000
03E3C000
03E3C000
03C3C000
07C3C000
07C3C000
07C3FFF8
0F83FFF8
0F83FFF8
0F83FFF8
1F03C000
1FFFC000
1FFFC000
3FFFC000
3FFFC000
3E03C000
7C03FFFE
7C03FFFE
F803FFFE
F803FFFE
ENDCHAR
STARTCHAR Ccedilla
ENCODING 199
SWIDTH 722 0
DWIDTH 23 0
BBX 21 32 1 -7
BITMAP
01FE00
07FF80
0FFFC0
1FFFE0
3F87F0
3E01F0
7C01F0
7C00F8
7C00F8
F80000
F80000
F80000
F80000
F80000
F80000
F80000
7C00F8
7C00F8
7E01F8
3E01F0
3F87F0
1FFFE0
0FFFC0
07FF80
01FC00
006000
006000
00F800
001C00
001C00
01F800
01F000
ENDCHAR
STARTCHAR Egrave
ENCODING 200
SWIDTH 667 0
DWIDTH 22 0
BBX 18 31 2 0
BITMAP
1E0000
0F0000
078000
03C000
01E000
000000
FFFF80
FFFF80
FFFF80
FFFF80
F80000
F80000
F80000
F80000
F80000
F80000
FFFF00
FFFF00
FFFF00
FFFF00
F80000
F80000
F80000
F80000
F80000
F80000
F80000
FFFFC0
FFFFC0
FFFFC0
FFFFC0
ENDCHAR
STARTCHAR Eacute
ENCODING 201
SWIDTH 667 0
DWIDTH 22 0
BBX 18 31 2 0
BITMAP
007800
00F000
01E000
03C000
078000
000000
FFFF80
FFFF80
FFFF80
FFFF80
F80000
F80000
F80000
F80000
F80000
F80000
FFFF00
FFFF00
FFFF00
FFFF00
F80000
F80000
F80000
F80000
F80000
F80000
F80000
FFFFC0
FFFFC0
FFFFC0
FFFFC0
ENDCHAR
STARTCHAR Ecircumflex
ENCODING 202
SWIDTH 667 0
DWIDTH 22 0
BBX 18 31 2 0
BITMAP
00C000
01E000
03F000
073800
0E1C00
000000
FFFF80
FFFF80
FFFF80
FFFF80
F80000
F80000
F80000
F80000
F80000
F80000
FFFF00
FFFF00
FFFF00
FFFF00
F80000
F80000
F80000
F80000
F80000
F80000
F80000
FFFFC0
FFFFC0
FFFFC0
FFFFC0
ENDCHAR
STARTCHAR Edieresis
ENCODING 203
SWIDTH 667 0
DWIDTH 22 0
BBX 18 31 2 0
BITMAP
1E3C00
1E3C00
1E3C00
1E3C00
000000
000000
FFFF80
FFFF80
FFFF80
FFFF80
F80000
F80000
F80000
F80000
F80000
F80000
FFFF00
FFFF00
FFFF00
FFFF00
F80000
F80000
F80000
F80000
F80000
F80000
F80000
FFFFC0
FFFFC0
FFFFC0
FFFFC0
ENDCHAR
STARTCHAR Igrave
ENCODING 204
SWIDTH 278 0
DWIDTH 9 0
BBX 8 31 0 0
BITMAP
F0
78
3C
1E
0F
00
3E
3E
3E
3E
3E
3E
3E
3E
3E
3E
3E
3E
3E
3E
3E
3E
3E
3E
3E
3E
3E
3E
3E
3E
3E
ENDCHAR
STARTCHAR Iacute
ENCODING 205
SWIDTH 278 0
DWIDTH 9 0
BBX 8 31 2 0
BITMAP
0F
1E
3C
78
F0
00
F8
F8
F8
F8
F8
F8
F8
F8
F8
F8
F8
F8
F8
F8
F8
F8
F8
F8
F8
F8
F8
F8
F8
F8
F8
ENDCHAR
STARTCHAR Icircumflex
ENCODING 206
SWIDTH 278 0
DWIDTH 9 0
BBX 10 31 0 0
BITMAP
0C00
1E00
3F00
7380
E1C0
0000
3E00
3E00
3E00
3E00
3E00
3E00
3E00
3E00
3E00
3E00
3E00
3E00
3E00
3E00
3E00
3E00
3E00
3E00
3E00
3E00
3E00
3E00
3E00
3E00
3E00
ENDCHAR
STARTCHAR Idieresis
ENCODING 207
SWIDTH 278 0
DWIDTH 9 0
BBX 10 31 0 0
BITMAP
F3C0
F3C0
F3C0
F3C0
0000
0000
3E00
3E00
3E00
3E00
3E00
3E00
3E00
3E00
3E00
3E00
3E00
3E00
3E00
3E00
3E00
3E00
3E00
3E00
3E00
3E00
3E00
3E00
3E00
3E00
3E00
ENDCHAR
STARTCHAR Eth
ENCODING 208
SWIDTH 722 0
DWIDTH 23 0
BBX 23 25 -1 0
BITMAP
1FFF80
1FFFE0
1FFFF0
1FFFF8
1F07F8
1F00FC
1F00FC
1F007C
1F007E
1F003E
1F003E
FFF03E
FFF03E
FFF03E
1F003E
1F003E
1F007C
1F007C
1F007C
1F00F8
1F03F8
1FFFF0
1FFFF0
1FFFC0
1FFF80
ENDCHAR
STARTCHAR Ntilde
ENCODING 209
SWIDTH 722 0
DWIDTH 24 0
BBX 19 30 2 0
BITMAP
03C600
07FE00
0FFC00
0C7800
000000
F803E0
FC03E0
FC03E0
FE03E0
FE03E0
FF03E0
FF03E0
FF83E0
FFC3E0
FBC3E0
FBE3E0
F9E3E0
F9F3E0
F8F3E0
F8FBE0
F87BE0
F83FE0
F83FE0
F81FE0
F81FE0
F80FE0
F80FE0
F807E0
F807E0
F803E0
ENDCHAR
STARTCHAR Ograve
ENCODING 210
SWIDTH 778 0
DWIDTH 25 0
BBX 23 31 1 0
BITMAP
01E000
00F000
007800
003C00
001E00
000000
01FF00
07FFC0
0FFFE0
1FFFF0
3FC7F8
3F01F8
7E00FC
7C007C
7C007C
F8003E
F8003E
F8003E
F8003E
F8003E
F8003E
F8003E
7C007C
7C007C
7E00FC
3F01F8
3FC7F8
1FFFF0
0FFFE0
07FFC0
01FF00
ENDCHAR
STARTCHAR Oacute
ENCODING 211
SWIDTH 778 0
DWIDTH 25 0
BBX 23 31 1 0
BITMAP
000780
000F00
001E00
003C00
007800
000000
01FF00
07FFC0
0FFFE0
1FFFF0
3FC7F8
3F01F8
7E00FC
7C007C
7C007C
F8003E
F8003E
F8003E
F8003E
F8003E
F8003E
F8003E
7C007C
7C007C
7E00FC
3F01F8
3FC7F8
1FFFF0
0FFFE0
07FFC0
01FF00
ENDCHAR
STARTCHAR Ocircumflex
ENCODING 212
SWIDTH 778 0
DWIDTH 25 0
BBX 23 31 1 0
BITMAP
001800
003C00
007E00
00E700
01C380
000000
01FF00
07FFC0
0FFFE0
1FFFF0
3FC7F8
3F01F8
7E00FC
7C007C
7C007C
F8003E
F8003E
F8003E
F8003E
F8003E
F8003E
F8003E
7C007C
7C007C
7E00FC
3F01F8
3FC7F8
1FFFF0
0FFFE0
07FFC0
01FF00
ENDCHAR
STARTCHAR Otilde
ENCODING 213
SWIDTH 778 0
DWIDTH 25 0
BBX 23 30 1 0
BITMAP
0078C0
00FFC0
01FF80
018F00
000000
01FF00
07FFC0
0FFFE0
1FFFF0
3FC7F8
3F01F8
7E00FC
7C007C
7C007C
F8003E
F8003E
F8003E
F8003E
F8003E
F8003E
F8003E
7C007C
7C007C
7E00FC
3F01F8
3FC7F8
1FFFF0
0FFFE0
07FFC0
01FF00
ENDCHAR
STARTCHAR Odieresis
ENCODING 214
SWIDTH 778 0
DWIDTH 25 0
BBX 23 31 1 0
BITMAP
01E780
01E780
01E780
01E780
000000
000000
01FF00
07FFC0
0FFFE0
1FFFF0
3FC7F8
3F01F8
7E00FC
7C007C
7C007C
F8003E
F8003E
F8003E
F8003E
F8003E
F8003E
F8003E
7C007C
7C007C
7E00FC
3F01F8
3FC7F8
1FFFF0
0FFFE0
07FFC0
01FF00
ENDCHAR
STARTCHAR multiply
ENCODING 215
SWIDTH 584 0
DWIDTH 19 0
BBX 15 16 2 0
BITMAP
2008
701C
F83E
FC7E
7EFC
3FF8
1FF0
0FE0
0FE0
1FF0
3FF8
7EFC
FC7E
F83E
701C
2008
ENDCHAR
STARTCHAR Oslash
ENCODING 216
SWIDTH 778 0
DWIDTH 25 0
BBX 24 25 1 0
BITMAP
01FF07
07FFCE
0FFFFC
1FFFF8
3FC7F8
3F00F8
7E01FC
7C03FC
7C07BC
F8073E
F80E3E
F81C3E
F8383E
F8703E
F8E03E
F8E03E
7DC07C
7F807C
7F00FC
3F01F8
3FC7F8
3FFFF0
3FFFE0
77FFC0
E1FF00
ENDCHAR
STARTCHAR Ugrave
ENCODING 217
SWIDTH 722 0
DWIDTH 24 0
BBX 19 31 2 0
BITMAP
078000
03C000
01E000
00F000
007800
000000
F803E0
F803E0
F803E0
F803E0
F803E0
F803E0
F803E0
F803E0
F803E0
F803E0
F803E0
F803E0
F803E0
F803E0
F803E0
F803E0
F803E0
F803E0
F803E0
FC07E0
7F1FC0
7FFFC0
3FFF80
1FFF00
07FC00
ENDCHAR
STARTCHAR Uacute
ENCODING 218
SWIDTH 722 0
DWIDTH 24 0
BBX 19 31 2 0
BITMAP
001E00
003C00
007800
00F000
01E000
000000
F803E0
F803E0
F803E0
F803E0
F803E0
F803E0
F803E0
F803E0
F803E0
F803E0
F803E0
F803E0
F803E0
F803E0
F803E0
F803E0
F803E0
F803E0
F803E0
FC07E0
7F1FC0
7FFFC0
3FFF80
1FFF00
07FC00
ENDCHAR
STARTCHAR Ucircumflex
ENCODING 219
SWIDTH 722 0
DWIDTH 24 0
BBX 19 31 2 0
BITMAP
006000
00F000
01F800
039C00
070E00
000000
F803E0
F803E0
F803E0
F803E0
F803E0
F803E0
F803E0
F803E0
F803E0
F803E0
F803E0
F803E0
F803E0
F803E0
F803E0
F803E0
F803E0
F803E0
F803E0
FC07E0
7F1FC0
7FFFC0
3FFF80
1FFF00
07FC00
ENDCHAR
STARTCHAR Udieresis
ENCODING 220
SWIDTH 722 0
DWIDTH 24 0
BBX 19 31 2 0
BITMAP
0F1E00
0F1E00
0F1E00
0F1E00
000000
000000
F803E0
F803E0
F803E0
F803E0
F803E0
F803E0
F803E0
F803E0
F803E0
F803E0
F803E0
F803E0
F803E0
F803E0
F803E0
F803E0
F803E0
F803E0
F803E0
FC07E0
7F1FC0
7FFFC0
3FFF80
1FFF00
07FC00
ENDCHAR
STARTCHAR Yacute
ENCODING 221
SWIDTH 667 0
DWIDTH 22 0
BBX 20 31 1 0
BITMAP
001E00
003C00
007800
00F000
01E000
000000
FC03F0
FC03F0
7E07E0
3E07C0
3F0FC0
3F0F80
1F0F80
1F9F00
0F9F00
0FFE00
07FE00
07FC00
03FC00
03F800
03F800
01F000
01F000
01F000
01F000
01F000
01F000
01F000
01F000
01F000
01F000
ENDCHAR
STARTCHAR Thorn
ENCODING 222
SWIDTH 667 0
DWIDTH 22 0
BBX 18 25 2 0
BITMAP
F80000
F80000
F80000
FFF800
FFFE00
FFFF00
FFFF80
F81F80
F80FC0
F807C0
F807C0
F807C0
F807C0
F80FC0
F81F80
FFFF80
FFFF00
FFFE00
FFFC00
F80000
F80000
F80000
F80000
F80000
F80000
ENDCHAR
STARTCHAR germandbls
ENCODING 223
SWIDTH 611 0
DWIDTH 20 0
BBX 17 25 2 0
BITMAP
0FC000
3FF000
7FFC00
FFFC00
F87E00
F83E00
F03E00
F03E00
F07C00
F0FC00
F1F800
F1FC00
F1FE00
F07F00
F01F00
F01F80
F00F80
F00F80
F00F80
F01F80
F03F00
F1FF00
F1FE00
F1FC00
F1F000
ENDCHAR
STARTCHAR agrave
ENCODING 224
SWIDTH 556 0
DWIDTH 18 0
BBX 15 25 1 0
BITMAP
0F00
0780
0380
01C0
00E0
0000
0000
0FF0
3FFC
7FFC
7C3E
F81E
F81E
01FE
0FFE
3FFE
7F1E
F81E
F01E
F03E
F87E
FFFE
FFFE
7FDE
3F1E
ENDCHAR
STARTCHAR aacute
ENCODING 225
SWIDTH 556 0
DWIDTH 18 0
BBX 15 25 1 0
BITMAP
0078
00F0
00E0
01C0
0380
0000
0000
0FF0
3FFC
7FFC
7C3E
F81E
F81E
01FE
0FFE
3FFE
7F1E
F81E
F01E
F03E
F87E
FFFE
FFFE
7FDE
3F1E
ENDCHAR
STARTCHAR acircumflex
ENCODING 226
SWIDTH 556 0
DWIDTH 18 0
BBX 15 25 1 0
BITMAP
0180
03C0
07E0
0E70
1C38
0000
0000
0FF0
3FFC
7FFC
7C3E
F81E
F81E
01FE
0FFE
3FFE
7F1E
F81E
F01E
F03E
F87E
FFFE
FFFE
7FDE
3F1E
ENDCHAR
STARTCHAR atilde
ENCODING 227
SWIDTH 556 0
DWIDTH 18 0
BBX 15 24 1 0
BITMAP
078C
0FFC
1FF8
18F0
0000
0000
0FF0
3FFC
7FFC
7C3E
F81E
F81E
01FE
0FFE
3FFE
7F1E
F81E
F01E
F03E
F87E
FFFE
FFFE
7FDE
3F1E
ENDCHAR
STARTCHAR adieresis
ENCODING 228
SWIDTH 556 0
DWIDTH 18 0
BBX 15 24 1 0
BITMAP
1E78
1E78
1E78
1E78
0000
0000
0FF0
3FFC
7FFC
7C3E
F81E
F81E
01FE
0FFE
3FFE
7F1E
F81E
F01E
F03E
F87E
FFFE
FFFE
7FDE
3F1E
ENDCHAR
STARTCHAR aring
ENCODING 229
SWIDTH 556 0
DWIDTH 18 0
BBX 15 25 1 0
BITMAP
03C0
0660
0420
0420
0660
03C0
0000
0FF0
3FFC
7FFC
7C3E
F81E
F81E
01FE
0FFE
3FFE
7F1E
F81E
F81E
F03E
F87E
FFFE
FFFE
7FDE
3F1E
ENDCHAR
STARTCHAR ae
ENCODING 230
SWIDTH 889 0
DWIDTH 29 0
BBX 26 19 1 0
BITMAP
07E0F800
1FFBFE00
3FFFFF00
3FFFFF00
7C3F0F80
781E0780
781E07C0
003E07C0
07FFFFC0
3FFFFFC0
7FFFFFC0
7C1E0000
F81E0000
F81E07C0
FC3F0FC0
FFFFFF80
7FF7FF00
3FE3FE00
0F81F800
ENDCHAR
STARTCHAR ccedilla
ENCODING 231
SWIDTH 556 0
DWIDTH 18 0
BBX 15 25 1 -7
BITMAP
07E0
1FF8
3FFC
3FFC
7C3E
781E
F81E
F000
F000
F000
F000
F81E
F81E
7C3E
7FFC
3FF8
1FF8
07E0
0300
0300
07C0
00E0
00E0
0FC0
0F80
ENDCHAR
STARTCHAR egrave
ENCODING 232
SWIDTH 556 0
DWIDTH 18 0
BBX 16 25 1 0
BITMAP
0F00
0780
0380
01C0
00E0
0000
0000
07E0
1FF8
3FFC
7FFE
7C3E
F81E
F01F
FFFF
FFFF
FFFF
F000
F000
F81E
7C3E
7FFE
3FFC
1FF0
07C0
ENDCHAR
STARTCHAR eacute
ENCODING 233
SWIDTH 556 0
DWIDTH 18 0
BBX 16 25 1 0
BITMAP
0078
00F0
00E0
01C0
0380
0000
0000
07E0
1FF8
3FFC
7FFE
7C3E
F81E
F01F
FFFF
FFFF
FFFF
F000
F000
F81E
7C3E
7FFE
3FFC
1FF0
07C0
ENDCHAR
STARTCHAR ecircumflex
ENCODING 234
SWIDTH 556 0
DWIDTH 18 0
BBX 16 25 1 0
BITMAP
0180
03C0
07E0
0E70
1C38
0000
0000
07E0
1FF8
3FFC
7FFE
7C3E
F81E
F01F
FFFF
FFFF
FFFF
F000
F000
F81E
7C3E
7FFE
3FFC
1FF0
07C0
ENDCHAR
STARTCHAR edieresis
ENCODING 235
SWIDTH 556 0
DWIDTH 18 0
BBX 16 24 1 0
BITMAP
1E78
1E78
1E78
1E78
0000
0000
07E0
1FF8
3FFC
7FFE
7C3E
F81E
F01F
FFFF
FFFF
FFFF
F000
F000
F81E
7C3E
7FFE
3FFC
1FF0
07C0
ENDCHAR
STARTCHAR igrave
ENCODING 236
SWIDTH 278 0
DWIDTH 9 0
BBX 7 25 1 0
BITMAP
F0
78
38
1C
0E
00
00
1E
1E
1E
1E
1E
1E
1E
1E
1E
1E
1E
1E
1E
1E
1E
1E
1E
1E
ENDCHAR
STARTCHAR iacute
ENCODING 237
SWIDTH 278 0
DWIDTH 9 0
BBX 6 25 2 0
BITMAP
3C
38
70
70
E0
00
00
F0
F0
F0
F0
F0
F0
F0
F0
F0
F0
F0
F0
F0
F0
F0
F0
F0
F0
ENDCHAR
STARTCHAR icircumflex
ENCODING 238
SWIDTH 278 0
DWIDTH 9 0
BBX 10 25 -1 0
BITMAP
0C00
1E00
3F00
7380
E1C0
0000
0000
1E00
1E00
1E00
1E00
1E00
1E00
1E00
1E00
1E00
1E00
1E00
1E00
1E00
1E00
1E00
1E00
1E00
1E00
ENDCHAR
STARTCHAR idieresis
ENCODING 239
SWIDTH 278 0
DWIDTH 9 0
BBX 10 24 -1 0
BITMAP
F3C0
F3C0
F3C0
F3C0
0000
0000
1E00
1E00
1E00
1E00
1E00
1E00
1E00
1E00
1E00
1E00
1E00
1E00
1E00
1E00
1E00
1E00
1E00
1E00
ENDCHAR
STARTCHAR eth
ENCODING 240
SWIDTH 611 0
DWIDTH 20 0
BBX 17 26 1 0
BITMAP
300000
782000
7CF000
3FE000
1FC000
3FE000
73F000
21F800
07FC00
1FFE00
3FFE00
7FFF00
7C1F00
F80F80
F80F80
F00780
F00780
F00780
F80F80
F80F80
FC1F80
7E3F00
7FFF00
3FFE00
1FFC00
07F000
ENDCHAR
STARTCHAR ntilde
ENCODING 241
SWIDTH 611 0
DWIDTH 20 0
BBX 15 24 2 0
BITMAP
0F18
1FF8
3FF0
31E0
0000
0000
F3F0
F7F8
FFFC
FFFE
FC3E
F83E
F01E
F01E
F01E
F01E
F01E
F01E
F01E
F01E
F01E
F01E
F01E
F01E
ENDCHAR
STARTCHAR ograve
ENCODING 242
SWIDTH 611 0
DWIDTH 20 0
BBX 17 25 1 0
BITMAP
078000
03C000
01C000
01E000
00F000
000000
000000
07F000
1FFC00
3FFE00
7FFF00
7C1F00
F80F80
F80F80
F00780
F00780
F00780
F00780
F80F80
F80F80
7C1F00
7FFF00
3FFE00
1FFC00
07F000
ENDCHAR
STARTCHAR oacute
ENCODING 243
SWIDTH 611 0
DWIDTH 20 0
BBX 17 25 1 0
BITMAP
007800
00F000
00E000
01C000
03C000
000000
000000
07F000
1FFC00
3FFE00
7FFF00
7C1F00
F80F80
F80F80
F00780
F00780
F00780
F00780
F80F80
F80F80
7C1F00
7FFF00
3FFE00
1FFC00
07F000
ENDCHAR
STARTCHAR ocircumflex
ENCODING 244
SWIDTH 611 0
DWIDTH 20 0
BBX 17 25 1 0
BITMAP
00C000
01E000
03F000
073800
0E1C00
000000
000000
07F000
1FFC00
3FFE00
7FFF00
7C1F00
F80F80
F80F80
F00780
F00780
F00780
F00780
F80F80
F80F80
7C1F00
7FFF00
3FFE00
1FFC00
07F000
ENDCHAR
STARTCHAR otilde
ENCODING 245
SWIDTH 611 0
DWIDTH 20 0
BBX 17 24 1 0
BITMAP
078C00
0FFC00
1FF800
18F000
000000
000000
07F000
1FFC00
3FFE00
7FFF00
7C1F00
F80F80
F80F80
F00780
F00780
F00780
F00780
F80F80
F80F80
7C1F00
7FFF00
3FFE00
1FFC00
07F000
ENDCHAR
STARTCHAR odieresis
ENCODING 246
SWIDTH 611 0
DWIDTH 20 0
BBX 17 24 1 0
BITMAP
1E3C00
1E3C00
1E3C00
1E3C00
000000
000000
07F000
1FFC00
3FFE00
7FFF00
7C1F00
F80F80
F80F80
F00780
F00780
F00780
F00780
F80F80
F80F80
7C1F00
7FFF00
3FFE00
1FFC00
07F000
ENDCHAR
STARTCHAR divide
ENCODING 247
SWIDTH 584 0
DWIDTH 19 0
BBX 16 16 1 0
BITMAP
03C0
03C0
03C0
03C0
0000
0000
FFFF
FFFF
FFFF
FFFF
0000
0000
03C0
03C0
03C0
03C0
ENDCHAR
STARTCHAR oslash
ENCODING 248
SWIDTH 611 0
DWIDTH 20 0
BBX 21 18 -1 0
BITMAP
01FC38
07FF70
0FFFE0
1FFFC0
1F8FC0
3E07E0
3E0FE0
3C1DE0
3C39E0
3C71E0
3EE3E0
3F83E0
3F07E0
1F8FC0
1FFFC0
3FFF80
77FF00
E1FC00
ENDCHAR
STARTCHAR ugrave
ENCODING 249
SWIDTH 611 0
DWIDTH 20 0
BBX 15 25 2 0
BITMAP
1E00
0F00
0700
0380
01C0
0000
0000
F01E
F01E
F01E
F01E
F01E
F01E
F01E
F01E
F01E
F01E
F01E
F01E
F83E
F87E
FFFE
7FFE
7FDE
1F1E
ENDCHAR
STARTCHAR uacute
ENCODING 250
SWIDTH 611 0
DWIDTH 20 0
BBX 15 25 2 0
BITMAP
00F0
01E0
01C0
0380
0700
0000
0000
F01E
F01E
F01E
F01E
F01E
F01E
F01E
F01E
F01E
F01E
F01E
F01E
F83E
F87E
FFFE
7FFE
7FDE
1F1E
ENDCHAR
STARTCHAR ucircumflex
ENCODING 251
SWIDTH 611 0
DWIDTH 20 0
BBX 15 25 2 0
BITMAP
0300
0780
0FC0
1CE0
3870
0000
0000
F01E
F01E
F01E
F01E
F01E
F01E
F01E
F01E
F01E
F01E
F01E
F01E
F83E
F87E
FFFE
7FFE
7FDE
1F1E
ENDCHAR
STARTCHAR udieresis
ENCODING 252
SWIDTH 611 0
DWIDTH 20 0
BBX 15 25 2 0
BITMAP
3C78
3C78
3C78
3C78
0000
0000
0000
F01E
F01E
F01E
F01E
F01E
F01E
F01E
F01E
F01E
F01E
F01E
F01E
F83E
F87E
FFFE
7FFE
7FDE
1F1E
ENDCHAR
STARTCHAR yacute
ENCODING 253
SWIDTH 556 0
DWIDTH 19 0
BBX 16 32 1 -7
BITMAP
0078
00F0
01E0
01C0
0380
0000
0000
F81F
F81F
F81F
781E
7C3E
7C3C
3C3C
3C3C
3E78
3E78
1E78
1FF0
1FF0
0FF0
0FE0
07E0
07E0
07C0
07C0
07C0
0F80
3F80
3F00
3F00
3C00
ENDCHAR
STARTCHAR thorn
ENCODING 254
SWIDTH 611 0
DWIDTH 20 0
BBX 16 32 2 -7
BITMAP
F000
F000
F000
F000
F000
F000
F000
F3F0
F7FC
FFFE
FFFE
FC3F
F81F
F81F
F00F
F00F
F00F
F00F
F81F
F81F
FC3E
FFFE
FFFC
F7F8
F1F0
F000
F000
F000
F000
F000
F000
F000
ENDCHAR
STARTCHAR ydieresis
ENCODING 255
SWIDTH 556 0
DWIDTH 19 0
BBX 16 31 1 -7
BITMAP
1E78
1E78
1E78
1E78
0000
0000
F81F
F81F
F81F
783E
7C3E
7C3C
7C3C
3E7C
3E78
3E78
1E78
1FF0
1FF0
0FF0
0FE0
07E0
07E0
07C0
07C0
07C0
0F80
3F80
3F00
3F00
3C00
ENDCHAR
STARTCHAR Amacron
ENCODING 256
SWIDTH 722 0
DWIDTH 23 0
BBX 22 29 0 0
BITMAP
03FF00
03FF00
03FF00
000000
00FC00
00FC00
01FE00
01FE00
01FE00
03FF00
03FF00
03FF00
07CF80
07CF80
07CF80
0F8780
0F87C0
0F87C0
1F03C0
1F03E0
1FFFE0
1FFFE0
3FFFF0
3FFFF0
3E01F0
7C00F8
7C00F8
FC00FC
F8007C
ENDCHAR
STARTCHAR amacron
ENCODING 257
SWIDTH 556 0
DWIDTH 18 0
BBX 15 22 1 0
BITMAP
1FF8
1FF8
1FF8
0000
0FF0
3FFC
7FFC
7C3E
F81E
F81E
00FE
0FFE
3FFE
7F1E
F81E
F81E
F03E
F87E
FFFE
FFFE
7FDE
3F1E
ENDCHAR
STARTCHAR Abreve
ENCODING 258
SWIDTH 722 0
DWIDTH 23 0
BBX 22 31 0 0
BITMAP
010100
018300
00FE00
00FE00
003800
000000
00FC00
00FC00
01FE00
01FE00
01FE00
03FF00
03FF00
03FF00
07CF80
07CF80
07CF80
0F8780
0F87C0
0F87C0
1F03C0
1F03E0
1FFFE0
1FFFE0
3FFFF0
3FFFF0
3E01F0
7C00F8
7C00F8
FC00FC
F8007C
ENDCHAR
STARTCHAR abreve
ENCODING 259
SWIDTH 556 0
DWIDTH 18 0
BBX 15 24 1 0
BITMAP
1010
1830
0FE0
0FE0
0380
0000
0FF0
3FFC
7FFC
7C3E
F81E
F81E
00FE
0FFE
3FFE
7F1E
F81E
F81E
F03E
F87E
FFFE
FFFE
7FDE
3F1E
ENDCHAR
STARTCHAR Aogonek
ENCODING 260
SWIDTH 722 0
DWIDTH 23 0
BBX 22 32 0 -7
BITMAP
00FC00
00FC00
01FE00
01FE00
01FE00
03FF00
03FF00
03FF00
07CF80
07CF80
07CF80
0F8780
0F87C0
0F87C0
1F03C0
1F03E0
1FFFE0
1FFFE0
3FFFF0
3FFFF0
3E01F0
7C00F8
7C00F8
FC00FC
F8387C
003000
007000
007000
007000
007F00
003F00
001E00
ENDCHAR
STARTCHAR aogonek
ENCODING 261
SWIDTH 556 0
DWIDTH 18 0
BBX 15 25 1 -7
BITMAP
0FF0
3FFC
7FFC
7C3E
F81E
F81E
00FE
0FFE
3FFE
7F1E
F81E
F81E
F03E
F87E
FFFE
FFFE
7FDE
3F9E
0300
0700
0700
0700
07F0
03F0
01E0
ENDCHAR
STARTCHAR Cacute
ENCODING 262
SWIDTH 722 0
DWIDTH 24 0
BBX 21 31 1 0
BITMAP
001E00
003C00
003800
007000
007000
000000
01FE00
07FF80
0FFFC0
1FFFE0
3F87F0
3E01F0
7C01F8
7C00F8
7C00F8
F80000
F80000
F80000
F80000
F80000
F80000
F80000
7C00F8
7C00F8
7E01F8
3E01F0
3F87F0
1FFFE0
0FFFC0
07FF80
01FE00
ENDCHAR
STARTCHAR cacute
ENCODING 263
SWIDTH 556 0
DWIDTH 18 0
BBX 15 24 1 0
BITMAP
00F0
01E0
01C0
0380
0380
0000
07E0
1FF8
3FFC
3FFC
7C3E
783E
F01E
F000
F000
F000
F000
F01E
F81E
7C3E
7FFC
3FF8
1FF8
07E0
ENDCHAR
STARTCHAR Ccircumflex
ENCODING 264
SWIDTH 722 0
DWIDTH 24 0
BBX 21 31 1 0
BITMAP
003000
007800
00FC00
01CE00
038700
000000
01FE00
07FF80
0FFFC0
1FFFE0
3F87F0
3E01F0
7C01F8
7C00F8
7C00F8
F80000
F80000
F80000
F80000
F80000
F80000
F80000
7C00F8
7C00F8
7E01F8
3E01F0
3F87F0
1FFFE0
0FFFC0
07FF80
01FE00
ENDCHAR
STARTCHAR ccircumflex
ENCODING 265
SWIDTH 556 0
DWIDTH 18 0
BBX 15 24 1 0
BITMAP
0180
03C0
07E0
0E70
1C38
0000
07E0
1FF8
3FFC
3FFC
7C3E
783E
F01E
F000
F000
F000
F000
F01E
F81E
7C3E
7FFC
3FF8
1FF8
07E0
ENDCHAR
STARTCHAR Cdotaccent
ENCODING 266
SWIDTH 722 0
DWIDTH 24 0
BBX 21 30 1 0
BITMAP
007800
007800
007800
007800
000000
01FE00
07FF80
0FFFC0
1FFFE0
3F87F0
3E01F0
7C01F8
7C00F8
7C00F8
F80000
F80000
F80000
F80000
F80000
F80000
F80000
7C00F8
7C00F8
7E01F8
3E01F0
3F87F0
1FFFE0
0FFFC0
07FF80
01FE00
ENDCHAR
STARTCHAR cdotaccent
ENCODING 267
SWIDTH 556 0
DWIDTH 18 0
BBX 15 23 1 0
BITMAP
03C0
03C0
03C0
03C0
0000
07E0
1FF8
3FFC
3FFC
7C3E
783E
F01E
F000
F000
F000
F000
F01E
F81E
7C3E
7FFC
3FF8
1FF8
07E0
ENDCHAR
STARTCHAR Ccaron
ENCODING 268
SWIDTH 722 0
DWIDTH 24 0
BBX 21 31 1 0
BITMAP
038700
01CE00
00FC00
007800
003000
000000
01FE00
07FF80
0FFFC0
1FFFE0
3F87F0
3E01F0
7C01F8
7C00F8
7C00F8
F80000
F80000
F80000
F80000
F80000
F80000
F80000
7C00F8
7C00F8
7E01F8
3E01F0
3F87F0
1FFFE0
0FFFC0
07FF80
01FE00
ENDCHAR
STARTCHAR ccaron
ENCODING 269
SWIDTH 556 0
DWIDTH 18 0
BBX 15 24 1 0
BITMAP
1C38
0E70
07E0
03C0
0180
0000
07E0
1FF8
3FFC
3FFC
7C3E
783E
F01E
F000
F000
F000
F000
F01E
F81E
7C3E
7FFC
3FF8
1FF8
07E0
ENDCHAR
STARTCHAR Dcaron
ENCODING 270
SWIDTH 722 0
DWIDTH 24 0
BBX 21 31 2 0
BITMAP
0E1C00
073800
03F000
01E000
00C000
000000
FFF800
FFFF00
FFFF80
FFFFC0
F80FE0
F803E0
F803F0
F801F0
F801F8
F800F8
F800F8
F800F8
F800F8
F800F8
F800F8
F800F8
F801F8
F801F0
F803F0
F803E0
F80FE0
FFFFC0
FFFF80
FFFF00
FFF800
ENDCHAR
STARTCHAR dcaron
ENCODING 271
SWIDTH 858 0
DWIDTH 28 0
BBX 24 25 1 0
BITMAP
000F0F
000F0F
000F0F
000F0F
000F03
000F03
000F03
0FCF06
1FEF0C
3FFF00
7FFF00
7C3F00
F81F00
F00F00
F00F00
F00F00
F00F00
F00F00
F00F00
F81F00
7C3F00
7FFF00
3FEF00
1FEF00
0F8F00
ENDCHAR
STARTCHAR Dcroat
ENCODING 272
SWIDTH 722 0
DWIDTH 23 0
BBX 23 25 -1 0
BITMAP
1FFF80
1FFFE0
1FFFF0
1FFFF8
1F07F8
1F00FC
1F00FC
1F007C
1F007E
1F003E
1F003E
FFF03E
FFF03E
FFF03E
1F003E
1F003E
1F007C
1F007C
1F007C
1F00F8
1F03F8
1FFFF0
1FFFF0
1FFFC0
1FFF80
ENDCHAR
STARTCHAR dcroat
ENCODING 273
SWIDTH 611 0
DWIDTH 20 0
BBX 16 25 1 0
BITMAP
000F
000F
000F
000F
000F
003F
003F
0FCF
1FEF
3FFF
7FFF
7C3F
F81F
F00F
F00F
F00F
F00F
F00F
F00F
F81F
7C3F
7FFF
3FEF
1FEF
0F8F
ENDCHAR
STARTCHAR Emacron
ENCODING 274
SWIDTH 667 0
DWIDTH 22 0
BBX 18 29 2 0
BITMAP
1FF800
1FF800
1FF800
000000
FFFF80
FFFF80
FFFF80
FFFF80
F80000
F80000
F80000
F80000
F80000
F80000
FFFF00
FFFF00
FFFF00
FFFF00
F80000
F80000
F80000
F80000
F80000
F80000
F80000
FFFFC0
FFFFC0
FFFFC0
FFFFC0
ENDCHAR
STARTCHAR emacron
ENCODING 275
SWIDTH 556 0
DWIDTH 18 0
BBX 16 22 1 0
BITMAP
1FF8
1FF8
1FF8
0000
07E0
1FF8
3FFC
7FFE
7C3E
F81F
F01F
FFFF
FFFF
FFFF
F000
F000
F81E
7C3E
7FFC
3FFC
1FF0
07C0
ENDCHAR
STARTCHAR Ebreve
ENCODING 276
SWIDTH 667 0
DWIDTH 22 0
BBX 18 31 2 0
BITMAP
101000
183000
0FE000
0FE000
038000
000000
FFFF80
FFFF80
FFFF80
FFFF80
F80000
F80000
F80000
F80000
F80000
F80000
FFFF00
FFFF00
FFFF00
FFFF00
F80000
F80000
F80000
F80000
F80000
F80000
F80000
FFFFC0
FFFFC0
FFFFC0
FFFFC0
ENDCHAR
STARTCHAR ebreve
ENCODING 277
SWIDTH 556 0
DWIDTH 18 0
BBX 16 24 1 0
BITMAP
0808
0C18
07F0
07F0
01C0
0000
07E0
1FF8
3FFC
7FFE
7C3E
F81F
F01F
FFFF
FFFF
FFFF
F000
F000
F81E
7C3E
7FFC
3FFC
1FF0
07C0
ENDCHAR
STARTCHAR Edotaccent
ENCODING 278
SWIDTH 667 0
DWIDTH 22 0
BBX 18 30 2 0
BITMAP
03C000
03C000
03C000
03C000
000000
FFFF80
FFFF80
FFFF80
FFFF80
F80000
F80000
F80000
F80000
F80000
F80000
FFFF00
FFFF00
FFFF00
FFFF00
F80000
F80000
F80000
F80000
F80000
F80000
F80000
FFFFC0
FFFFC0
FFFFC0
FFFFC0
ENDCHAR
STARTCHAR edotaccent
ENCODING 279
SWIDTH 556 0
DWIDTH 18 0
BBX 16 23 1 0
BITMAP
03C0
03C0
03C0
03C0
0000
07E0
1FF8
3FFC
7FFE
7C3E
F81F
F01F
FFFF
FFFF
FFFF
F000
F000
F81E
7C3E
7FFC
3FFC
1FF0
07C0
ENDCHAR
STARTCHAR Eogonek
ENCODING 280
SWIDTH 667 0
DWIDTH 22 0
BBX 18 32 2 -7
BITMAP
FFFF80
FFFF80
FFFF80
FFFF80
F80000
F80000
F80000
F80000
F80000
F80000
FFFF00
FFFF00
FFFF00
FFFF00
F80000
F80000
F80000
F80000
F80000
F80000
F80000
FFFFC0
FFFFC0
FFFFC0
FFFFC0
018000
038000
038000
038000
03F800
01F800
00F000
ENDCHAR
STARTCHAR eogonek
ENCODING 281
SWIDTH 556 0
DWIDTH 18 0
BBX 16 25 1 -7
BITMAP
07E0
1FF8
3FFC
7FFE
7C3E
F81F
F01F
FFFF
FFFF
FFFF
F000
F000
F81E
7C3E
7FFC
3FFC
1FF0
07C0
0300
0700
0700
0700
07F0
03F0
01E0
ENDCHAR
STARTCHAR Ecaron
ENCODING 282
SWIDTH 667 0
DWIDTH 22 0
BBX 18 31 2 0
BITMAP
1C3800
0E7000
07E000
03C000
018000
000000
FFFF80
FFFF80
FFFF80
FFFF80
F80000
F80000
F80000
F80000
F80000
F80000
FFFF00
FFFF00
FFFF00
FFFF00
F80000
F80000
F80000
F80000
F80000
F80000
F80000
FFFFC0
FFFFC0
FFFFC0
FFFFC0
ENDCHAR
STARTCHAR ecaron
ENCODING 283
SWIDTH 556 0
DWIDTH 18 0
BBX 16 24 1 0
BITMAP
1C38
0E70
07E0
03C0
0180
0000
07E0
1FF8
3FFC
7FFE
7C3E
F81F
F01F
FFFF
FFFF
FFFF
F000
F000
F81E
7C3E
7FFC
3FFC
1FF0
07C0
ENDCHAR
STARTCHAR Gcircumflex
ENCODING 284
SWIDTH 778 0
DWIDTH 25 0
BBX 22 31 1 0
BITMAP
003000
007800
00FC00
01CE00
038700
000000
00FF00
03FFC0
0FFFE0
1FFFF0
1FC3F8
3F00F8
7E007C
7C007C
FC0000
F80000
F80000
F80000
F80FFC
F80FFC
F80FFC
F80FFC
FC007C
7C007C
7E007C
7E00FC
3F83FC
3FFFFC
1FFFDC
07FF9C
03FE1C
ENDCHAR
STARTCHAR gcircumflex
ENCODING 285
SWIDTH 611 0
DWIDTH 20 0
BBX 16 31 1 -7
BITMAP
00C0
01E0
03F0
0738
0E1C
0000
0FCF
1FEF
3FFF
7FFF
7C3F
F81F
F81F
F00F
F00F
F00F
F00F
F81F
F81F
7C3F
7FFF
3FFF
1FEF
0FCF
000F
F81F
F81F
7E7E
7FFE
3FFC
0FF0
ENDCHAR
STARTCHAR Gbreve
ENCODING 286
SWIDTH 778 0
DWIDTH 25 0
BBX 22 31 1 0
BITMAP
010100
018300
00FE00
00FE00
003800
000000
00FF00
03FFC0
0FFFE0
1FFFF0
1FC3F8
3F00F8
7E007C
7C007C
FC0000
F80000
F80000
F80000
F80FFC
F80FFC
F80FFC
F80FFC
FC007C
7C007C
7E007C
7E00FC
3F83FC
3FFFFC
1FFFDC
07FF9C
03FE1C
ENDCHAR
STARTCHAR gbreve
ENCODING 287
SWIDTH 611 0
DWIDTH 20 0
BBX 16 31 1 -7
BITMAP
0808
0C18
07F0
07F0
01C0
0000
0FCF
1FEF
3FFF
7FFF
7C3F
F81F
F81F
F00F
F00F
F00F
F00F
F81F
F81F
7C3F
7FFF
3FFF
1FEF
0FCF
000F
F81F
F81F
7E7E
7FFE
3FFC
0FF0
ENDCHAR
STARTCHAR Gdotaccent
ENCODING 288
SWIDTH 778 0
DWIDTH 25 0
BBX 22 30 1 0
BITMAP
007800
007800
007800
007800
000000
00FF00
03FFC0
0FFFE0
1FFFF0
1FC3F8
3F00F8
7E007C
7C007C
FC0000
F80000
F80000
F80000
F80FFC
F80FFC
F80FFC
F80FFC
FC007C
7C007C
7E007C
7E00FC
3F83FC
3FFFFC
1FFFDC
07FF9C
03FE1C
ENDCHAR
STARTCHAR gdotaccent
ENCODING 289
SWIDTH 611 0
DWIDTH 20 0
BBX 16 30 1 -7
BITMAP
01E0
01E0
01E0
01E0
0000
0FCF
1FEF
3FFF
7FFF
7C3F
F81F
F81F
F00F
F00F
F00F
F00F
F81F
F81F
7C3F
7FFF
3FFF
1FEF
0FCF
000F
F81F
F81F
7E7E
7FFE
3FFC
0FF0
ENDCHAR
STARTCHAR Gcommaaccent
ENCODING 290
SWIDTH 778 0
DWIDTH 25 0
BBX 22 37 1 -12
BITMAP
00FF00
03FFC0
0FFFE0
1FFFF0
1FC3F8
3F00F8
7E007C
7C007C
FC0000
F80000
F80000
F80000
F80FFC
F80FFC
F80FFC
F80FFC
FC007C
7C007C
7E007C
7E00FC
3F83FC
3FFFFC
1FFFDC
07FF9C
03FE1C
000000
007C00
007C00
007C00
007C00
007C00
000C00
000C00
001C00
003800
007000
004000
ENDCHAR
STARTCHAR gcommaaccent
ENCODING 291
SWIDTH 611 0
DWIDTH 20 0
BBX 16 35 1 -7
BITMAP
0060
00C0
0180
0180
0180
01E0
01E0
01E0
01E0
0000
0FCF
1FEF
3FFF
7FFF
7C3F
F81F
F81F
F00F
F00F
F00F
F00F
F81F
F81F
7C3F
7FFF
3FFF
1FEF
0FCF
000F
F81F
F81F
7E7E
7FFE
3FFC
0FF0
ENDCHAR
STARTCHAR Hcircumflex
ENCODING 292
SWIDTH 722 0
DWIDTH 23 0
BBX 19 31 2 0
BITMAP
006000
00F000
01F800
039C00
070E00
000000
F803E0
F803E0
F803E0
F803E0
F803E0
F803E0
F803E0
F803E0
F803E0
F803E0
FFFFE0
FFFFE0
FFFFE0
FFFFE0
F803E0
F803E0
F803E0
F803E0
F803E0
F803E0
F803E0
F803E0
F803E0
F803E0
F803E0
ENDCHAR
STARTCHAR hcircumflex
ENCODING 293
SWIDTH 611 0
DWIDTH 20 0
BBX 16 31 1 0
BITMAP
0C00
1E00
3F00
7380
E1C0
0000
7800
7800
7800
7800
7800
7800
7800
78F0
7BFC
7FFE
7FFE
7E1F
7C0F
7C0F
780F
780F
780F
780F
780F
780F
780F
780F
780F
780F
780F
ENDCHAR
STARTCHAR Hbar
ENCODING 294
SWIDTH 722 0
DWIDTH 23 0
BBX 19 25 2 0
BITMAP
F803E0
F803E0
F803E0
F803E0
F803E0
F803E0
FFFFE0
FFFFE0
F803E0
F803E0
FFFFE0
FFFFE0
FFFFE0
FFFFE0
F803E0
F803E0
F803E0
F803E0
F803E0
F803E0
F803E0
F803E0
F803E0
F803E0
F803E0
ENDCHAR
STARTCHAR hbar
ENCODING 295
SWIDTH 611 0
DWIDTH 20 0
BBX 15 25 2 0
BITMAP
F000
F000
F000
F000
F000
FE00
FE00
F1E0
F7F8
FFFC
FFFC
FC3E
F81E
F81E
F01E
F01E
F01E
F01E
F01E
F01E
F01E
F01E
F01E
F01E
F01E
ENDCHAR
STARTCHAR Itilde
ENCODING 296
SWIDTH 278 0
DWIDTH 9 0
BBX 11 30 -1 0
BITMAP
3C60
7FE0
FFC0
C780
0000
1F00
1F00
1F00
1F00
1F00
1F00
1F00
1F00
1F00
1F00
1F00
1F00
1F00
1F00
1F00
1F00
1F00
1F00
1F00
1F00
1F00
1F00
1F00
1F00
1F00
ENDCHAR
STARTCHAR itilde
ENCODING 297
SWIDTH 278 0
DWIDTH 9 0
BBX 11 23 -1 0
BITMAP
3C60
7FE0
FFC0
C780
0000
1E00
1E00
1E00
1E00
1E00
1E00
1E00
1E00
1E00
1E00
1E00
1E00
1E00
1E00
1E00
1E00
1E00
1E00
ENDCHAR
STARTCHAR Imacron
ENCODING 298
SWIDTH 278 0
DWIDTH 9 0
BBX 10 29 0 0
BITMAP
FFC0
FFC0
FFC0
0000
3E00
3E00
3E00
3E00
3E00
3E00
3E00
3E00
3E00
3E00
3E00
3E00
3E00
3E00
3E00
3E00
3E00
3E00
3E00
3E00
3E00
3E00
3E00
3E00
3E00
ENDCHAR
STARTCHAR imacron
ENCODING 299
SWIDTH 278 0
DWIDTH 9 0
BBX 10 22 -1 0
BITMAP
FFC0
FFC0
FFC0
0000
1E00
1E00
1E00
1E00
1E00
1E00
1E00
1E00
1E00
1E00
1E00
1E00
1E00
1E00
1E00
1E00
1E00
1E00
ENDCHAR
STARTCHAR Ibreve
ENCODING 300
SWIDTH 278 0
DWIDTH 9 0
BBX 9 31 0 0
BITMAP
8080
C180
7F00
7F00
1C00
0000
3E00
3E00
3E00
3E00
3E00
3E00
3E00
3E00
3E00
3E00
3E00
3E00
3E00
3E00
3E00
3E00
3E00
3E00
3E00
3E00
3E00
3E00
3E00
3E00
3E00
ENDCHAR
STARTCHAR ibreve
ENCODING 301
SWIDTH 278 0
DWIDTH 9 0
BBX 9 24 0 0
BITMAP
8080
C180
7F00
7F00
1C00
0000
3C00
3C00
3C00
3C00
3C00
3C00
3C00
3C00
3C00
3C00
3C00
3C00
3C00
3C00
3C00
3C00
3C00
3C00
ENDCHAR
STARTCHAR Iogonek
ENCODING 302
SWIDTH 278 0
DWIDTH 9 0
BBX 7 32 2 -7
BITMAP
F8
F8
F8
F8
F8
F8
F8
F8
F8
F8
F8
F8
F8
F8
F8
F8
F8
F8
F8
F8
F8
F8
F8
F8
F8
60
E0
E0
E0
FE
7E
3C
ENDCHAR
STARTCHAR iogonek
ENCODING 303
SWIDTH 278 0
DWIDTH 9 0
BBX 7 32 2 -7
BITMAP
F0
F0
F0
F0
00
00
F0
F0
F0
F0
F0
F0
F0
F0
F0
F0
F0
F0
F0
F0
F0
F0
F0
F0
F0
60
E0
E0
E0
FE
7E
3C
ENDCHAR
STARTCHAR Idotaccent
ENCODING 304
SWIDTH 278 0
DWIDTH 9 0
BBX 5 30 2 0
BITMAP
78
78
78
78
00
F8
F8
F8
F8
F8
F8
F8
F8
F8
F8
F8
F8
F8
F8
F8
F8
F8
F8
F8
F8
F8
F8
F8
F8
F8
ENDCHAR
STARTCHAR dotlessi
ENCODING 305
SWIDTH 278 0
DWIDTH 9 0
BBX 4 18 2 0
BITMAP
F0
F0
F0
F0
F0
F0
F0
F0
F0
F0
F0
F0
F0
F0
F0
F0
F0
F0
ENDCHAR
STARTCHAR IJ
ENCODING 306
SWIDTH 820 0
DWIDTH 27 0
BBX 23 25 2 0
BITMAP
F8003E
F8003E
F8003E
F8003E
F8003E
F8003E
F8003E
F8003E
F8003E
F8003E
F8003E
F8003E
F8003E
F8003E
F8003E
F8F83E
F8F83E
F8F83E
F8F83E
F8F83E
F8FC7E
F8FFFC
F87FFC
F83FF8
F80FE0
ENDCHAR
STARTCHAR ij
ENCODING 307
SWIDTH 542 0
DWIDTH 18 0
BBX 13 32 2 -7
BITMAP
F078
F078
F078
F078
0000
0000
F078
F078
F078
F078
F078
F078
F078
F078
F078
F078
F078
F078
F078
F078
F078
F078
F078
F078
F078
0078
0078
0078
01F8
01F8
01F0
01F0
ENDCHAR
STARTCHAR Jcircumflex
ENCODING 308
SWIDTH 556 0
DWIDTH 18 0
BBX 16 31 1 0
BITMAP
0030
0078
00FC
01CE
0387
0000
003E
003E
003E
003E
003E
003E
003E
003E
003E
003E
003E
003E
003E
003E
003E
F83E
F83E
F83E
F83E
F83E
FC7E
FFFC
7FFC
3FF8
0FE0
ENDCHAR
STARTCHAR jcircumflex
ENCODING 309
SWIDTH 278 0
DWIDTH 9 0
BBX 10 32 -1 -7
BITMAP
0C00
1E00
3F00
7380
E1C0
0000
1E00
1E00
1E00
1E00
1E00
1E00
1E00
1E00
1E00
1E00
1E00
1E00
1E00
1E00
1E00
1E00
1E00
1E00
1E00
1E00
1E00
1E00
7E00
7E00
7C00
7C00
ENDCHAR
STARTCHAR Kcommaaccent
ENCODING 310
SWIDTH 722 0
DWIDTH 24 0
BBX 20 37 2 -12
BITMAP
F807E0
F807E0
F80FC0
F81F80
F83F00
F87E00
F8FC00
F8F800
F9F800
FBF000
FFE000
FFE000
FFF000
FFF000
FFF800
FCFC00
F87E00
F87E00
F83F00
F81F80
F80F80
F80FC0
F807E0
F803F0
F803F0
000000
01F000
01F000
01F000
01F000
01F000
003000
003000
007000
00E000
01C000
010000
ENDCHAR
STARTCHAR kcommaaccent
ENCODING 311
SWIDTH 556 0
DWIDTH 19 0
BBX 15 37 2 -12
BITMAP
F000
F000
F000
F000
F000
F000
F000
F03E
F07C
F0F8
F1F0
F3E0
F7C0
FF80
FFC0
FFC0
FFE0
FFE0
F9F0
F1F0
F0F8
F078
F07C
F03E
F03E
0000
07C0
07C0
07C0
07C0
07C0
00C0
00C0
01C0
0380
0700
0400
ENDCHAR
STARTCHAR kgreenlandic
ENCODING 312
SWIDTH 556 0
DWIDTH 19 0
BBX 15 18 2 0
BITMAP
F03E
F07C
F0F8
F1F0
F3E0
F7C0
FF80
FFC0
FFC0
FFE0
FFE0
F9F0
F1F0
F0F8
F078
F07C
F03E
F03E
ENDCHAR
STARTCHAR Lacute
ENCODING 313
SWIDTH 611 0
DWIDTH 20 0
BBX 16 31 2 0
BITMAP
0F00
1E00
1C00
3800
3800
0000
F800
F800
F800
F800
F800
F800
F800
F800
F800
F800
F800
F800
F800
F800
F800
F800
F800
F800
F800
F800
F800
FFFF
FFFF
FFFF
FFFF
ENDCHAR
STARTCHAR lacute
ENCODING 314
SWIDTH 278 0
DWIDTH 9 0
BBX 6 31 2 0
BITMAP
3C
78
70
E0
E0
00
F0
F0
F0
F0
F0
F0
F0
F0
F0
F0
F0
F0
F0
F0
F0
F0
F0
F0
F0
F0
F0
F0
F0
F0
F0
ENDCHAR
STARTCHAR Lcommaaccent
ENCODING 315
SWIDTH 611 0
DWIDTH 20 0
BBX 16 37 2 -12
BITMAP
F800
F800
F800
F800
F800
F800
F800
F800
F800
F800
F800
F800
F800
F800
F800
F800
F800
F800
F800
F800
F800
FFFF
FFFF
FFFF
FFFF
0000
07C0
07C0
07C0
07C0
07C0
00C0
00C0
01C0
0380
0700
0400
ENDCHAR
STARTCHAR lcommaaccent
ENCODING 316
SWIDTH 278 0
DWIDTH 9 0
BBX 5 37 2 -12
BITMAP
F0
F0
F0
F0
F0
F0
F0
F0
F0
F0
F0
F0
F0
F0
F0
F0
F0
F0
F0
F0
F0
F0
F0
F0
F0
00
F8
F8
F8
F8
F8
18
18
38
70
E0
80
ENDCHAR
STARTCHAR Lcaron
ENCODING 317
SWIDTH 858 0
DWIDTH 28 0
BBX 23 25 2 0
BITMAP
F8001E
F8001E
F8001E
F8001E
F80006
F80006
F80006
F8000C
F80018
F80000
F80000
F80000
F80000
F80000
F80000
F80000
F80000
F80000
F80000
F80000
F80000
FFFF00
FFFF00
FFFF00
FFFF00
ENDCHAR
STARTCHAR lcaron
ENCODING 318
SWIDTH 542 0
DWIDTH 18 0
BBX 13 25 2 0
BITMAP
F078
F078
F078
F078
F018
F018
F018
F030
F060
F000
F000
F000
F000
F000
F000
F000
F000
F000
F000
F000
F000
F000
F000
F000
F000
ENDCHAR
STARTCHAR Ldot
ENCODING 319
SWIDTH 858 0
DWIDTH 28 0
BBX 23 25 2 0
BITMAP
F80000
F80000
F80000
F80000
F80000
F80000
F80000
F80000
F80000
F8000C
F8001E
F8001E
F8001E
F8000C
F80000
F80000
F80000
F80000
F80000
F80000
F80000
FFFF00
FFFF00
FFFF00
FFFF00
ENDCHAR
STARTCHAR ldot
ENCODING 320
SWIDTH 542 0
DWIDTH 18 0
BBX 13 25 2 0
BITMAP
F000
F000
F000
F000
F000
F000
F000
F000
F000
F030
F078
F078
F078
F030
F000
F000
F000
F000
F000
F000
F000
F000
F000
F000
F000
ENDCHAR
STARTCHAR Lslash
ENCODING 321
SWIDTH 611 0
DWIDTH 20 0
BBX 19 25 0 0
BITMAP
1F0000
1F0000
1F0000
1F0000
1F0000
1F0000
1F0000
1F2000
1FE000
1FE000
1FC000
1F0000
3F0000
FF0000
FF0000
DF0000
1F0000
1F0000
1F0000
1F0000
1F0000
1FFFE0
1FFFE0
1FFFE0
1FFFE0
ENDCHAR
STARTCHAR lslash
ENCODING 322
SWIDTH 278 0
DWIDTH 9 0
BBX 8 25 0 0
BITMAP
3C
3C
3C
3C
3C
3C
3D
3F
3F
3E
3C
3C
7C
FC
FC
BC
3C
3C
3C
3C
3C
3C
3C
3C
3C
ENDCHAR
STARTCHAR Nacute
ENCODING 323
SWIDTH 722 0
DWIDTH 24 0
BBX 19 31 2 0
BITMAP
007800
00F000
00E000
01C000
01C000
000000
F803E0
FC03E0
FC03E0
FE03E0
FE03E0
FF03E0
FF03E0
FF83E0
FFC3E0
FBC3E0
FBE3E0
F9E3E0
F9F3E0
F8F3E0
F8FBE0
F87BE0
F83FE0
F83FE0
F81FE0
F81FE0
F80FE0
F80FE0
F807E0
F807E0
F803E0
ENDCHAR
STARTCHAR nacute
ENCODING 324
SWIDTH 611 0
DWIDTH 20 0
BBX 15 24 2 0
BITMAP
01E0
03C0
0380
0700
0700
0000
F1F0
F7FC
FFFC
FFFE
FC3E
F81E
F01E
F01E
F01E
F01E
F01E
F01E
F01E
F01E
F01E
F01E
F01E
F01E
ENDCHAR
STARTCHAR Ncommaaccent
ENCODING 325
SWIDTH 722 0
DWIDTH 24 0
BBX 19 37 2 -12
BITMAP
F803E0
FC03E0
FC03E0
FE03E0
FE03E0
FF03E0
FF03E0
FF83E0
FFC3E0
FBC3E0
FBE3E0
F9E3E0
F9F3E0
F8F3E0
F8FBE0
F87BE0
F83FE0
F83FE0
F81FE0
F81FE0
F80FE0
F80FE0
F807E0
F807E0
F803E0
000000
01F000
01F000
01F000
01F000
01F000
003000
003000
007000
00E000
01C000
010000
ENDCHAR
STARTCHAR ncommaaccent
ENCODING 326
SWIDTH 611 0
DWIDTH 20 0
BBX 15 30 2 -12
BITMAP
F1F0
F7FC
FFFC
FFFE
FC3E
F81E
F01E
F01E
F01E
F01E
F01E
F01E
F01E
F01E
F01E
F01E
F01E
F01E
0000
07C0
07C0
07C0
07C0
07C0
00C0
00C0
01C0
0380
0700
0400
ENDCHAR
STARTCHAR Ncaron
ENCODING 327
SWIDTH 722 0
DWIDTH 24 0
BBX 19 31 2 0
BITMAP
0E1C00
073800
03F000
01E000
00C000
000000
F803E0
FC03E0
FC03E0
FE03E0
FE03E0
FF03E0
FF03E0
FF83E0
FFC3E0
FBC3E0
FBE3E0
F9E3E0
F9F3E0
F8F3E0
F8FBE0
F87BE0
F83FE0
F83FE0
F81FE0
F81FE0
F80FE0
F80FE0
F807E0
F807E0
F803E0
ENDCHAR
STARTCHAR ncaron
ENCODING 328
SWIDTH 611 0
DWIDTH 20 0
BBX 15 24 2 0
BITMAP
3870
1CE0
0FC0
0780
0300
0000
F1F0
F7FC
FFFC
FFFE
FC3E
F81E
F01E
F01E
F01E
F01E
F01E
F01E
F01E
F01E
F01E
F01E
F01E
F01E
ENDCHAR
STARTCHAR napostrophe
ENCODING 329
SWIDTH 875 0
DWIDTH 29 0
BBX 24 25 2 0
BITMAP
F00000
F00000
F00000
F00000
300000
300000
300000
6078F8
C07BFE
007FFE
007FFF
007E1F
007C0F
00780F
00780F
00780F
00780F
00780F
00780F
00780F
00780F
00780F
00780F
00780F
00780F
ENDCHAR
STARTCHAR Eng
ENCODING 330
SWIDTH 722 0
DWIDTH 24 0
BBX 19 32 2 -7
BITMAP
F803E0
FC03E0
FC03E0
FE03E0
FE03E0
FF03E0
FF03E0
FF83E0
FFC3E0
FBC3E0
FBE3E0
F9E3E0
F9F3E0
F8F3E0
F8FBE0
F87BE0
F83FE0
F83FE0
F81FE0
F81FE0
F80FE0
F80FE0
F807E0
F807E0
F803E0
0001E0
0001E0
0001E0
0007E0
0007E0
0007C0
0007C0
ENDCHAR
STARTCHAR eng
ENCODING 331
SWIDTH 611 0
DWIDTH 20 0
BBX 15 25 2 -7
BITMAP
F1F0
F7FC
FFFC
FFFE
FC3E
F81E
F01E
F01E
F01E
F01E
F01E
F01E
F01E
F01E
F01E
F01E
F01E
F01E
001E
001E
001E
007E
007E
007C
007C
ENDCHAR
STARTCHAR Omacron
ENCODING 332
SWIDTH 778 0
DWIDTH 25 0
BBX 23 29 1 0
BITMAP
01FF80
01FF80
01FF80
000000
01FF00
07FFC0
0FFFE0
1FFFF0
3FC7F8
3F01F8
7E00FC
7C007C
7C007C
F8003E
F8003E
F8003E
F8003E
F8003E
F8003E
F8003E
7C007C
7C007C
7E00FC
3F01F8
3FC7F8
1FFFF0
0FFFE0
07FFC0
01FF00
ENDCHAR
STARTCHAR omacron
ENCODING 333
SWIDTH 611 0
DWIDTH 20 0
BBX 17 22 1 0
BITMAP
0FFC00
0FFC00
0FFC00
000000
07F000
1FFC00
3FFE00
7FFF00
7C1F00
F80F80
F80F80
F00780
F00780
F00780
F00780
F80F80
F80F80
7C1F00
7FFF00
3FFE00
1FFC00
07F000
ENDCHAR
STARTCHAR Obreve
ENCODING 334
SWIDTH 778 0
DWIDTH 25 0
BBX 23 31 1 0
BITMAP
010100
018300
00FE00
00FE00
003800
000000
01FF00
07FFC0
0FFFE0
1FFFF0
3FC7F8
3F01F8
7E00FC
7C007C
7C007C
F8003E
F8003E
F8003E
F8003E
F8003E
F8003E
F8003E
7C007C
7C007C
7E00FC
3F01F8
3FC7F8
1FFFF0
0FFFE0
07FFC0
01FF00
ENDCHAR
STARTCHAR obreve
ENCODING 335
SWIDTH 611 0
DWIDTH 20 0
BBX 17 24 1 0
BITMAP
080800
0C1800
07F000
07F000
01C000
000000
07F000
1FFC00
3FFE00
7FFF00
7C1F00
F80F80
F80F80
F00780
F00780
F00780
F00780
F80F80
F80F80
7C1F00
7FFF00
3FFE00
1FFC00
07F000
ENDCHAR
STARTCHAR Ohungarumlaut
ENCODING 336
SWIDTH 778 0
DWIDTH 25 0
BBX 23 31 1 0
BITMAP
0071C0
00F3C0
00E380
01C700
018600
000000
01FF00
07FFC0
0FFFE0
1FFFF0
3FC7F8
3F01F8
7E00FC
7C007C
7C007C
F8003E
F8003E
F8003E
F8003E
F8003E
F8003E
F8003E
7C007C
7C007C
7E00FC
3F01F8
3FC7F8
1FFFF0
0FFFE0
07FFC0
01FF00
ENDCHAR
STARTCHAR ohungarumlaut
ENCODING 337
SWIDTH 611 0
DWIDTH 20 0
BBX 17 24 1 0
BITMAP
038E00
079E00
071C00
0E3800
0C3000
000000
07F000
1FFC00
3FFE00
7FFF00
7C1F00
F80F80
F80F80
F00780
F00780
F00780
F00780
F80F80
F80F80
7C1F00
7FFF00
3FFE00
1FFC00
07F000
ENDCHAR
STARTCHAR OE
ENCODING 338
SWIDTH 1000 0
DWIDTH 32 0
BBX 29 25 1 0
BITMAP
03FBFFF8
07FFFFF8
0FFFFFF8
1FFFFFF8
3F8FFFF8
3F07E000
7E03E000
7C03E000
7C03E000
F803E000
F803E000
F803FFF0
F803FFF0
F803FFF0
F803FFF0
F803E000
7803E000
7C03E000
7C03E000
7E03E000
3F0FE000
3FFFFFF8
1FFFFFF8
0FFFFFF8
03FBFFF8
ENDCHAR
STARTCHAR oe
ENCODING 339
SWIDTH 944 0
DWIDTH 31 0
BBX 28 19 1 0
BITMAP
07E03E00
1FF8FF80
3FFDFFC0
3FFFFFE0
7E7FE3E0
7C1FC1F0
F81F80F0
F80F80F0
F00FFFF0
F00FFFF0
F00FFFF0
F00F8000
F81F8000
F81FC1F0
7C3FC1F0
7FFFFFE0
3FFDFFC0
1FF8FF80
07E03E00
ENDCHAR
STARTCHAR Racute
ENCODING 340
SWIDTH 722 0
DWIDTH 24 0
BBX 19 31 2 0
BITMAP
007800
00F000
00E000
01C000
01C000
000000
FFFE00
FFFF80
FFFFC0
FFFFC0
F807E0
F803E0
F803E0
F803E0
F803E0
F807C0
F80FC0
FFFF80
FFFF00
FFFF00
FFFF80
F80FC0
F807C0
F807C0
F807C0
F807C0
F807C0
F807C0
F807C0
F807E0
F803E0
ENDCHAR
STARTCHAR racute
ENCODING 341
SWIDTH 389 0
DWIDTH 13 0
BBX 10 24 2 0
BITMAP
0780
0F00
0E00
1C00
1C00
0000
F0C0
F3C0
F7C0
FFC0
FFC0
FC00
F800
F800
F000
F000
F000
F000
F000
F000
F000
F000
F000
F000
ENDCHAR
STARTCHAR Rcommaaccent
ENCODING 342
SWIDTH 722 0
DWIDTH 24 0
BBX 19 37 2 -12
BITMAP
FFFE00
FFFF80
FFFFC0
FFFFC0
F807E0
F803E0
F803E0
F803E0
F803E0
F807C0
F80FC0
FFFF80
FFFF00
FFFF00
FFFF80
F80FC0
F807C0
F807C0
F807C0
F807C0
F807C0
F807C0
F807C0
F807E0
F803E0
000000
01F000
01F000
01F000
01F000
01F000
003000
003000
007000
00E000
01C000
010000
ENDCHAR
STARTCHAR rcommaaccent
ENCODING 343
SWIDTH 389 0
DWIDTH 13 0
BBX 10 30 2 -12
BITMAP
F0C0
F3C0
F7C0
FFC0
FFC0
FC00
F800
F800
F000
F000
F000
F000
F000
F000
F000
F000
F000
F000
0000
7C00
7C00
7C00
7C00
7C00
0C00
0C00
1C00
3800
7000
4000
ENDCHAR
STARTCHAR Rcaron
ENCODING 344
SWIDTH 722 0
DWIDTH 24 0
BBX 19 31 2 0
BITMAP
0E1C00
073800
03F000
01E000
00C000
000000
FFFE00
FFFF80
FFFFC0
FFFFC0
F807E0
F803E0
F803E0
F803E0
F803E0
F807C0
F80FC0
FFFF80
FFFF00
FFFF00
FFFF80
F80FC0
F807C0
F807C0
F807C0
F807C0
F807C0
F807C0
F807C0
F807E0
F803E0
ENDCHAR
STARTCHAR rcaron
ENCODING 345
SWIDTH 389 0
DWIDTH 13 0
BBX 10 24 2 0
BITMAP
E1C0
7380
3F00
1E00
0C00
0000
F0C0
F3C0
F7C0
FFC0
FFC0
FC00
F800
F800
F000
F000
F000
F000
F000
F000
F000
F000
F000
F000
ENDCHAR
STARTCHAR Sacute
ENCODING 346
SWIDTH 667 0
DWIDTH 22 0
BBX 19 31 1 0
BITMAP
003C00
007800
007000
00E000
00E000
000000
03F800
0FFE00
1FFF00
3FFF80
3E1F80
7C07C0
7807C0
7803C0
7C0000
7F0000
3FF000
3FFE00
1FFF80
03FFC0
003FC0
0007E0
0003E0
F803E0
F803E0
7C03E0
7E0FC0
3FFFC0
1FFF80
0FFF00
03F800
ENDCHAR
STARTCHAR sacute
ENCODING 347
SWIDTH 556 0
DWIDTH 19 0
BBX 16 24 1 0
BITMAP
00F0
01E0
01C0
0380
0380
0000
07F0
1FFC
3FFE
7C3E
781F
781F
7C00
7FC0
3FF8
0FFE
03FF
003F
F80F
F80F
7C1F
7FFE
3FFC
0FF0
ENDCHAR
STARTCHAR Scircumflex
ENCODING 348
SWIDTH 667 0
DWIDTH 22 0
BBX 19 31 1 0
BITMAP
006000
00F000
01F800
039C00
070E00
000000
03F800
0FFE00
1FFF00
3FFF80
3E1F80
7C07C0
7807C0
7803C0
7C0000
7F0000
3FF000
3FFE00
1FFF80
03FFC0
003FC0
0007E0
0003E0
F803E0
F803E0
7C03E0
7E0FC0
3FFFC0
1FFF80
0FFF00
03F800
ENDCHAR
STARTCHAR scircumflex
ENCODING 349
SWIDTH 556 0
DWIDTH 19 0
BBX 16 24 1 0
BITMAP
0180
03C0
07E0
0E70
1C38
0000
07F0
1FFC
3FFE
7C3E
781F
781F
7C00
7FC0
3FF8
0FFE
03FF
003F
F80F
F80F
7C1F
7FFE
3FFC
0FF0
ENDCHAR
STARTCHAR Scedilla
ENCODING 350
SWIDTH 667 0
DWIDTH 22 0
BBX 19 32 1 -7
BITMAP
03F800
0FFE00
1FFF00
3FFF80
3E1F80
7C07C0
7807C0
7803C0
7C0000
7F0000
3FF000
3FFE00
1FFF80
03FFC0
003FC0
0007E0
0003E0
F803E0
F803E0
7C03E0
7E0FC0
3FFFC0
1FFF80
0FFF00
03F800
006000
006000
00F800
003C00
001C00
01F800
01F000
ENDCHAR
STARTCHAR scedilla
ENCODING 351
SWIDTH 556 0
DWIDTH 19 0
BBX 16 25 1 -7
BITMAP
07F0
1FFC
3FFE
7C3E
781F
781F
7C00
7FC0
3FF8
0FFE
03FF
003F
F80F
F80F
7C1F
7FFE
3FFC
0FF0
0180
0180
03E0
00F0
0070
07E0
07C0
ENDCHAR
STARTCHAR Scaron
ENCODING 352
SWIDTH 667 0
DWIDTH 22 0
BBX 18 27 2 0
BITMAP
1C3800
0E7000
07E000
03C000
018000
000000
000000
07F000
1FFC00
3FFE00
7FFF00
FC3F00
F80F00
FE0000
7FC000
7FFC00
1FFF00
01FF80
001FC0
F007C0
F007C0
F807C0
FC1F80
7FFF80
3FFF00
1FFE00
07F000
ENDCHAR
STARTCHAR scaron
ENCODING 353
SWIDTH 556 0
DWIDTH 18 0
BBX 16 25 1 0
BITMAP
1C38
0E70
07E0
03C0
0180
0000
0000
0FF0
1FFC
3FFE
7E7E
781E
781E
7F00
7FF0
3FFC
1FFE
03FF
003F
F81F
F81F
7F3E
7FFE
3FFC
0FF8
ENDCHAR
STARTCHAR Tcommaaccent
ENCODING 354
SWIDTH 611 0
DWIDTH 20 0
BBX 19 32 0 -7
BITMAP
FFFFE0
FFFFE0
FFFFE0
FFFFE0
01F000
01F000
01F000
01F000
01F000
01F000
01F000
01F000
01F000
01F000
01F000
01F000
01F000
01F000
01F000
01F000
01F000
01F000
01F000
01F000
01F000
00C000
00C000
01F000
007800
003800
03F000
03E000
ENDCHAR
STARTCHAR tcommaaccent
ENCODING 355
SWIDTH 333 0
DWIDTH 11 0
BBX 9 29 1 -7
BITMAP
3C00
3C00
3C00
3C00
FF80
FF80
FF80
3C00
3C00
3C00
3C00
3C00
3C00
3C00
3C00
3C00
3C00
3C00
3F80
3F80
1F80
0F80
0C00
0C00
1F00
0780
0380
3F00
3E00
ENDCHAR
STARTCHAR Tcaron
ENCODING 356
SWIDTH 611 0
DWIDTH 20 0
BBX 19 31 0 0
BITMAP
070E00
039C00
01F800
00F000
006000
000000
FFFFE0
FFFFE0
FFFFE0
FFFFE0
01F000
01F000
01F000
01F000
01F000
01F000
01F000
01F000
01F000
01F000
01F000
01F000
01F000
01F000
01F000
01F000
01F000
01F000
01F000
01F000
01F000
ENDCHAR
STARTCHAR tcaron
ENCODING 357
SWIDTH 594 0
DWIDTH 19 0
BBX 15 25 1 0
BITMAP
001E
001E
001E
3C1E
3C06
3C06
3C06
FF8C
FF98
FF80
3C00
3C00
3C00
3C00
3C00
3C00
3C00
3C00
3C00
3C00
3C00
3F80
3F80
1F80
0F80
ENDCHAR
STARTCHAR Tbar
ENCODING 358
SWIDTH 611 0
DWIDTH 20 0
BBX 19 25 0 0
BITMAP
FFFFE0
FFFFE0
FFFFE0
FFFFE0
01F000
01F000
01F000
01F000
01F000
01F000
01F000
01F000
01F000
01F000
01F000
01F000
01F000
01F000
01F000
01F000
01F000
01F000
01F000
01F000
01F000
ENDCHAR
STARTCHAR tbar
ENCODING 359
SWIDTH 333 0
DWIDTH 11 0
BBX 9 22 1 0
BITMAP
3C00
3C00
3C00
3C00
FF80
FF80
FF80
3C00
3C00
3C00
3C00
3C00
3E00
3E00
3C00
3C00
3C00
3C00
3F80
3F80
1F80
0F80
ENDCHAR
STARTCHAR Utilde
ENCODING 360
SWIDTH 722 0
DWIDTH 24 0
BBX 19 30 2 0
BITMAP
03C600
07FE00
0FFC00
0C7800
000000
F803E0
F803E0
F803E0
F803E0
F803E0
F803E0
F803E0
F803E0
F803E0
F803E0
F803E0
F803E0
F803E0
F803E0
F803E0
F803E0
F803E0
F803E0
F803E0
FC07E0
7F1FC0
7FFFC0
3FFF80
1FFF00
07FC00
ENDCHAR
STARTCHAR utilde
ENCODING 361
SWIDTH 611 0
DWIDTH 20 0
BBX 15 23 2 0
BITMAP
0F18
1FF8
3FF0
31E0
0000
F01E
F01E
F01E
F01E
F01E
F01E
F01E
F01E
F01E
F01E
F01E
F01E
F83E
F87E
FFFE
7FFE
7FDE
1F1E
ENDCHAR
STARTCHAR Umacron
ENCODING 362
SWIDTH 722 0
DWIDTH 24 0
BBX 19 29 2 0
BITMAP
07FE00
07FE00
07FE00
000000
F803E0
F803E0
F803E0
F803E0
F803E0
F803E0
F803E0
F803E0
F803E0
F803E0
F803E0
F803E0
F803E0
F803E0
F803E0
F803E0
F803E0
F803E0
F803E0
FC07E0
7F1FC0
7FFFC0
3FFF80
1FFF00
07FC00
ENDCHAR
STARTCHAR umacron
ENCODING 363
SWIDTH 611 0
DWIDTH 20 0
BBX 15 22 2 0
BITMAP
1FF8
1FF8
1FF8
0000
F01E
F01E
F01E
F01E
F01E
F01E
F01E
F01E
F01E
F01E
F01E
F01E
F83E
F87E
FFFE
7FFE
7FDE
1F1E
ENDCHAR
STARTCHAR Ubreve
ENCODING 364
SWIDTH 722 0
DWIDTH 24 0
BBX 19 31 2 0
BITMAP
040400
060C00
03F800
03F800
00E000
000000
F803E0
F803E0
F803E0
F803E0
F803E0
F803E0
F803E0
F803E0
F803E0
F803E0
F803E0
F803E0
F803E0
F803E0
F803E0
F803E0
F803E0
F803E0
F803E0
FC07E0
7F1FC0
7FFFC0
3FFF80
1FFF00
07FC00
ENDCHAR
STARTCHAR ubreve
ENCODING 365
SWIDTH 611 0
DWIDTH 20 0
BBX 15 24 2 0
BITMAP
1010
1830
0FE0
0FE0
0380
0000
F01E
F01E
F01E
F01E
F01E
F01E
F01E
F01E
F01E
F01E
F01E
F01E
F83E
F87E
FFFE
7FFE
7FDE
1F1E
ENDCHAR
STARTCHAR Uring
ENCODING 366
SWIDTH 722 0
DWIDTH 24 0
BBX 19 32 2 0
BITMAP
00E000
01B000
011000
011000
01B000
00E000
000000
F803E0
F803E0
F803E0
F803E0
F803E0
F803E0
F803E0
F803E0
F803E0
F803E0
F803E0
F803E0
F803E0
F803E0
F803E0
F803E0
F803E0
F803E0
F803E0
FC07E0
7F1FC0
7FFFC0
3FFF80
1FFF00
07FC00
ENDCHAR
STARTCHAR uring
ENCODING 367
SWIDTH 611 0
DWIDTH 20 0
BBX 15 25 2 0
BITMAP
0380
06C0
0440
0440
06C0
0380
0000
F01E
F01E
F01E
F01E
F01E
F01E
F01E
F01E
F01E
F01E
F01E
F01E
F83E
F87E
FFFE
7FFE
7FDE
1F1E
ENDCHAR
STARTCHAR Uhungarumlaut
ENCODING 368
SWIDTH 722 0
DWIDTH 24 0
BBX 19 31 2 0
BITMAP
01C700
03CF00
038E00
071C00
061800
000000
F803E0
F803E0
F803E0
F803E0
F803E0
F803E0
F803E0
F803E0
F803E0
F803E0
F803E0
F803E0
F803E0
F803E0
F803E0
F803E0
F803E0
F803E0
F803E0
FC07E0
7F1FC0
7FFFC0
3FFF80
1FFF00
07FC00
ENDCHAR
STARTCHAR uhungarumlaut
ENCODING 369
SWIDTH 611 0
DWIDTH 20 0
BBX 15 24 2 0
BITMAP
071C
0F3C
0E38
1C70
1860
0000
F01E
F01E
F01E
F01E
F01E
F01E
F01E
F01E
F01E
F01E
F01E
F01E
F83E
F87E
FFFE
7FFE
7FDE
1F1E
ENDCHAR
STARTCHAR Uogonek
ENCODING 370
SWIDTH 722 0
DWIDTH 24 0
BBX 19 32 2 -7
BITMAP
F803E0
F803E0
F803E0
F803E0
F803E0
F803E0
F803E0
F803E0
F803E0
F803E0
F803E0
F803E0
F803E0
F803E0
F803E0
F803E0
F803E0
F803E0
F803E0
FC07E0
7F1FC0
7FFFC0
3FFF80
1FFF00
07FC00
00C000
01C000
01C000
01C000
01FC00
00FC00
007800
ENDCHAR
STARTCHAR uogonek
ENCODING 371
SWIDTH 611 0
DWIDTH 20 0
BBX 15 25 2 -7
BITMAP
F01E
F01E
F01E
F01E
F01E
F01E
F01E
F01E
F01E
F01E
F01E
F01E
F83E
F87E
FFFE
7FFE
7FDE
1F9E
0300
0700
0700
0700
07F0
03F0
01E0
ENDCHAR
STARTCHAR Wcircumflex
ENCODING 372
SWIDTH 944 0
DWIDTH 31 0
BBX 29 31 1 0
BITMAP
00030000
00078000
000FC000
001CE000
00387000
00000000
F81F81F8
F81F81F8
781F81F0
781F81F0
781F81F0
7C3FC3E0
7C3FC3E0
7C3FC3E0
3C3FC3E0
3C39C3C0
3E79E3C0
3E79E7C0
1E79E7C0
1E79E780
1E70E780
1E70E780
0FF0FF00
0FF0FF00
0FF0FF00
0FE07F00
07E07E00
07E07E00
07E07E00
03C03C00
03C03C00
ENDCHAR
STARTCHAR wcircumflex
ENCODING 373
SWIDTH 778 0
DWIDTH 26 0
BBX 25 24 0 0
BITMAP
000C0000
001E0000
003F0000
00738000
00E1C000
00000000
F83E0F80
F83E0F80
783E0F00
7C3E1F00
7C7F1F00
3C7F1E00
3C7F1E00
3C771E00
3CF79E00
1EE3BC00
1EE3BC00
1EE3BC00
1FE3FC00
0FC1F800
0FC1F800
0FC1F800
0780F000
0780F000
ENDCHAR
STARTCHAR Ycircumflex
ENCODING 374
SWIDTH 667 0
DWIDTH 22 0
BBX 20 31 1 0
BITMAP
006000
00F000
01F800
039C00
070E00
000000
FC03F0
FC03E0
7E07E0
3E07C0
3F0FC0
3F0F80
1F0F80
1F9F00
0F9F00
0FFE00
07FE00
07FC00
03FC00
03F800
03F800
01F000
01F000
01F000
01F000
01F000
01F000
01F000
01F000
01F000
01F000
ENDCHAR
STARTCHAR ycircumflex
ENCODING 375
SWIDTH 556 0
DWIDTH 19 0
BBX 16 31 1 -7
BITMAP
0180
03C0
07E0
0E70
1C38
0000
F81F
F81F
F81E
783E
7C3E
7C3C
3C3C
3E7C
3E78
1E78
1E78
1FF0
0FF0
0FF0
0FE0
07E0
07E0
07C0
07C0
07C0
0F80
3F80
3F00
3F00
3C00
ENDCHAR
STARTCHAR Ydieresis
ENCODING 376
SWIDTH 667 0
DWIDTH 22 0
BBX 19 27 1 0
BITMAP
0F3C00
0F3C00
0F3C00
0F3C00
000000
000000
000000
F001E0
F803E0
7C07C0
3E0F80
1F1F00
0FBE00
07FC00
03F800
01F000
01F000
01F000
01F000
01F000
01F000
01F000
01F000
01F000
01F000
01F000
01F000
ENDCHAR
STARTCHAR Zacute
ENCODING 377
SWIDTH 611 0
DWIDTH 20 0
BBX 17 31 1 0
BITMAP
007800
00F000
00E000
01C000
01C000
000000
FFFF80
FFFF80
FFFF80
FFFF80
000F80
001F80
003F00
007E00
007C00
00FC00
01F800
03F000
03F000
07E000
0FC000
0F8000
1F8000
3F0000
7E0000
7E0000
FC0000
FFFF80
FFFF80
FFFF80
FFFF80
ENDCHAR
STARTCHAR zacute
ENCODING 378
SWIDTH 500 0
DWIDTH 17 0
BBX 14 24 1 0
BITMAP
01E0
03C0
0380
0700
0700
0000
FFFC
FFFC
FFFC
FFFC
00F8
01F0
03F0
07E0
0FC0
1F80
1F00
3E00
7C00
F800
FFFC
FFFC
FFFC
FFFC
ENDCHAR
STARTCHAR Zdotaccent
ENCODING 379
SWIDTH 611 0
DWIDTH 20 0
BBX 17 30 1 0
BITMAP
01E000
01E000
01E000
01E000
000000
FFFF80
FFFF80
FFFF80
FFFF80
000F80
001F80
003F00
007E00
007C00
00FC00
01F800
03F000
03F000
07E000
0FC000
0F8000
1F8000
3F0000
7E0000
7E0000
FC0000
FFFF80
FFFF80
FFFF80
FFFF80
ENDCHAR
STARTCHAR zdotaccent
ENCODING 380
SWIDTH 500 0
DWIDTH 17 0
BBX 14 23 1 0
BITMAP
0780
0780
0780
0780
0000
FFFC
FFFC
FFFC
FFFC
00F8
01F0
03F0
07E0
0FC0
1F80
1F00
3E00
7C00
F800
FFFC
FFFC
FFFC
FFFC
ENDCHAR
STARTCHAR Zcaron
ENCODING 381
SWIDTH 611 0
DWIDTH 20 0
BBX 17 27 1 0
BITMAP
1C3800
0E7000
07E000
03C000
018000
000000
000000
FFFF80
FFFF80
FFFF80
FFFF80
003F00
007E00
00FC00
01F800
03F000
07E000
0FC000
1F8000
3F0000
7E0000
FC0000
F80000
FFFF80
FFFF80
FFFF80
FFFF80
ENDCHAR
STARTCHAR zcaron
ENCODING 382
SWIDTH 500 0
DWIDTH 17 0
BBX 14 25 1 0
BITMAP
3870
1CE0
0FC0
0780
0300
0000
0000
FFFC
FFFC
FFFC
FFFC
00F8
01F0
03F0
07E0
0FC0
1F80
1F00
3E00
7E00
FC00
FFFC
FFFC
FFFC
FFFC
ENDCHAR
STARTCHAR uni0186
ENCODING 390
SWIDTH 722 0
DWIDTH 24 0
BBX 21 25 1 0
BITMAP
03FC00
0FFF00
1FFF80
3FFFC0
7F0FE0
7C03E0
FC03F0
F801F0
F801F0
0000F8
0000F8
0000F8
0000F8
0000F8
0000F8
0000F8
F801F0
F801F0
FC01F0
7C03E0
7F0FE0
3FFFC0
1FFF80
0FFF00
03FC00
ENDCHAR
STARTCHAR uni0189
ENCODING 393
SWIDTH 722 0
DWIDTH 23 0
BBX 23 25 -1 0
BITMAP
1FFF80
1FFFE0
1FFFF0
1FFFF8
1F07F8
1F00FC
1F00FC
1F007C
1F007E
1F003E
1F003E
FFF03E
FFF03E
FFF03E
1F003E
1F003E
1F007C
1F007C
1F007C
1F00F8
1F03F8
1FFFF0
1FFFF0
1FFFC0
1FFF80
ENDCHAR
STARTCHAR uni018E
ENCODING 398
SWIDTH 667 0
DWIDTH 22 0
BBX 18 25 2 0
BITMAP
FFFFC0
FFFFC0
FFFFC0
FFFFC0
0007C0
0007C0
0007C0
0007C0
0007C0
0007C0
0007C0
3FFFC0
3FFFC0
3FFFC0
3FFFC0
0007C0
0007C0
0007C0
0007C0
0007C0
0007C0
7FFFC0
7FFFC0
7FFFC0
7FFFC0
ENDCHAR
STARTCHAR florin
ENCODING 402
SWIDTH 556 0
DWIDTH 18 0
BBX 16 32 1 -7
BITMAP
003F
007F
007F
00FF
00F0
01F0
01F0
01E0
01E0
3FFE
3FFE
3FFE
03E0
03C0
03C0
07C0
07C0
07C0
07C0
07C0
0780
0780
0F80
0F80
0F80
0F80
0F00
1F00
FF00
FE00
FC00
F800
ENDCHAR
STARTCHAR uni0197
ENCODING 407
SWIDTH 278 0
DWIDTH 9 0
BBX 5 25 2 0
BITMAP
F8
F8
F8
F8
F8
F8
F8
F8
F8
F8
F8
F8
F8
F8
F8
F8
F8
F8
F8
F8
F8
F8
F8
F8
F8
ENDCHAR
STARTCHAR uni019A
ENCODING 410
SWIDTH 278 0
DWIDTH 9 0
BBX 5 25 2 0
BITMAP
F0
F0
F0
F0
F0
F0
F0
F0
F0
F0
F0
F8
F8
F0
F0
F0
F0
F0
F0
F0
F0
F0
F0
F0
F0
ENDCHAR
STARTCHAR uni019D
ENCODING 413
SWIDTH 722 0
DWIDTH 24 0
BBX 21 32 0 -7
BITMAP
3E00F8
3F00F8
3F00F8
3F80F8
3F80F8
3FC0F8
3FC0F8
3FE0F8
3FF0F8
3EF0F8
3EF8F8
3E78F8
3E7CF8
3E3CF8
3E3EF8
3E1EF8
3E0FF8
3E0FF8
3C07F8
3C07F8
3C03F8
3C03F8
3C01F8
3C01F8
3C00F8
3C0000
3C0000
3C0000
FC0000
FC0000
F80000
F80000
ENDCHAR
STARTCHAR uni019F
ENCODING 415
SWIDTH 778 0
DWIDTH 25 0
BBX 23 25 1 0
BITMAP
01FF00
07FFC0
0FFFE0
1FFFF0
3FC7F8
3F01F8
7E00FC
7C007C
7C007C
F8003E
F8003E
FFFFFE
FFFFFE
F8003E
F8003E
F8003E
7C007C
7C007C
7E00FC
3F01F8
3FC7F8
1FFFF0
0FFFE0
07FFC0
01FF00
ENDCHAR
STARTCHAR Ohorn
ENCODING 416
SWIDTH 778 0
DWIDTH 25 0
BBX 25 25 1 0
BITMAP
01FF0780
07FFC780
0FFFE780
1FFFF780
3FC7F980
3F01F980
7E00FD80
7C007F00
7C007E00
F8003E00
F8003E00
F8003E00
F8003E00
F8003E00
F8003E00
F8003E00
7C007C00
7C007C00
7E00FC00
3F01F800
3FC7F800
1FFFF000
0FFFE000
07FFC000
01FF0000
ENDCHAR
STARTCHAR ohorn
ENCODING 417
SWIDTH 611 0
DWIDTH 20 0
BBX 19 18 1 0
BITMAP
07F1E0
1FFDE0
3FFFE0
7FFFE0
7C1F60
F80FE0
F80FE0
F007C0
F00780
F00780
F00780
F80F80
F80F80
7C1F00
7FFF00
3FFE00
1FFC00
07F000
ENDCHAR
STARTCHAR uni01A7
ENCODING 423
SWIDTH 667 0
DWIDTH 22 0
BBX 19 25 1 0
BITMAP
03F800
0FFE00
1FFF00
3FFF80
3F0F80
7C07C0
7C03C0
7803C0
0007C0
001FC0
01FF80
0FFF80
3FFF00
7FF800
7F8000
FC0000
F80000
F803E0
F803E0
F807C0
7E0FC0
7FFF80
3FFF00
1FFE00
03F800
ENDCHAR
STARTCHAR uni01A8
ENCODING 424
SWIDTH 556 0
DWIDTH 19 0
BBX 16 18 1 0
BITMAP
0FE0
3FF8
7FFC
7C3E
F81E
F81E
003E
03FE
1FFC
7FF0
FFC0
FC00
F01F
F01F
F83E
7FFE
3FFC
0FF0
ENDCHAR
STARTCHAR uni01AE
ENCODING 430
SWIDTH 611 0
DWIDTH 20 0
BBX 19 32 0 -7
BITMAP
FFFFE0
FFFFE0
FFFFE0
FFFFE0
01F000
01F000
01F000
01F000
01F000
01F000
01F000
01F000
01F000
01F000
01F000
01F000
01F000
01F000
00F000
00F000
00F000
00F000
00F000
00F000
00F000
00F000
00F000
00F000
00FC00
00FC00
007C00
007C00
ENDCHAR
STARTCHAR Uhorn
ENCODING 431
SWIDTH 722 0
DWIDTH 24 0
BBX 21 25 2 0
BITMAP
F803F8
F803F8
F803F8
F803F8
F803F8
F803F8
F803F8
F803F0
F803E0
F803E0
F803E0
F803E0
F803E0
F803E0
F803E0
F803E0
F803E0
F803E0
F803E0
FC07E0
7F1FC0
7FFFC0
3FFF80
1FFF00
07FC00
ENDCHAR
STARTCHAR uhorn
ENCODING 432
SWIDTH 611 0
DWIDTH 20 0
BBX 18 18 2 0
BITMAP
F01FC0
F01FC0
F01FC0
F01FC0
F01EC0
F01EC0
F01EC0
F01F80
F01F00
F01E00
F01E00
F01E00
F83E00
F87E00
FFFE00
7FFE00
7FDE00
1F1E00
ENDCHAR
STARTCHAR uni01B5
ENCODING 437
SWIDTH 611 0
DWIDTH 20 0
BBX 17 25 1 0
BITMAP
FFFF80
FFFF80
FFFF80
FFFF80
000F80
001F80
003F00
007E00
007C00
00FC00
01F800
03F000
03F000
07E000
0FC000
0F8000
1F8000
3F0000
7E0000
7E0000
FC0000
FFFF80
FFFF80
FFFF80
FFFF80
ENDCHAR
STARTCHAR uni01B6
ENCODING 438
SWIDTH 500 0
DWIDTH 17 0
BBX 14 18 1 0
BITMAP
FFFC
FFFC
FFFC
FFFC
00F8
01F0
03F0
07E0
0FC0
1FC0
1F00
3E00
7C00
F800
FFFC
FFFC
FFFC
FFFC
ENDCHAR
STARTCHAR uni01BB
ENCODING 443
SWIDTH 556 0
DWIDTH 18 0
BBX 16 24 1 0
BITMAP
0FE0
3FF8
7FFC
7FFE
FC7E
F83F
F81F
F01F
F01F
003F
003E
FFFF
FFFF
01F8
07F0
0FE0
1F80
3F00
7E00
FC00
FFFF
FFFF
FFFF
FFFF
ENDCHAR
STARTCHAR uni01BC
ENCODING 444
SWIDTH 556 0
DWIDTH 18 0
BBX 15 24 1 0
BITMAP
3FFC
3FFC
3FFC
3FFC
3800
7800
7800
7800
7BE0
7FF8
7FFC
7FFC
787E
003E
003E
001E
001E
F03E
F03E
F87C
7FFC
7FF8
3FF0
0FC0
ENDCHAR
STARTCHAR uni01C0
ENCODING 448
SWIDTH 280 0
DWIDTH 9 0
BBX 3 31 3 -6
BITMAP
E0
E0
E0
E0
E0
E0
E0
E0
E0
E0
E0
E0
E0
E0
E0
E0
E0
E0
E0
E0
E0
E0
E0
E0
E0
E0
E0
E0
E0
E0
E0
ENDCHAR
STARTCHAR uni01C2
ENCODING 450
SWIDTH 584 0
DWIDTH 19 0
BBX 15 31 2 -7
BITMAP
0380
0380
0380
0380
0380
0380
0380
0380
0380
0380
FFFE
FFFE
FFFE
FFFE
0380
0380
0380
0380
FFFE
FFFE
FFFE
FFFE
0380
0380
0380
0380
0380
0380
0380
0380
0380
ENDCHAR
STARTCHAR uni01C3
ENCODING 451
SWIDTH 333 0
DWIDTH 11 0
BBX 5 25 3 0
BITMAP
F8
F8
F8
F8
F8
F8
F8
F8
F8
F8
F8
70
70
70
70
70
70
70
00
00
F8
F8
F8
F8
F8
ENDCHAR
STARTCHAR uni01CD
ENCODING 461
SWIDTH 722 0
DWIDTH 23 0
BBX 22 31 0 0
BITMAP
038700
01CE00
00FC00
007800
003000
000000
00FC00
00FC00
01FE00
01FE00
01FE00
03FF00
03FF00
03FF00
07CF80
07CF80
07CF80
0F8780
0F87C0
0F87C0
1F03C0
1F03E0
1FFFE0
1FFFE0
3FFFF0
3FFFF0
3E01F0
7C00F8
7C00F8
FC00FC
F8007C
ENDCHAR
STARTCHAR uni01CE
ENCODING 462
SWIDTH 556 0
DWIDTH 18 0
BBX 15 24 1 0
BITMAP
1C38
0E70
07E0
03C0
0180
0000
0FF0
3FFC
7FFC
7C3E
F81E
F81E
00FE
0FFE
3FFE
7F1E
F81E
F81E
F03E
F87E
FFFE
FFFE
7FDE
3F1E
ENDCHAR
STARTCHAR uni01CF
ENCODING 463
SWIDTH 278 0
DWIDTH 9 0
BBX 10 31 0 0
BITMAP
E1C0
7380
3F00
1E00
0C00
0000
3E00
3E00
3E00
3E00
3E00
3E00
3E00
3E00
3E00
3E00
3E00
3E00
3E00
3E00
3E00
3E00
3E00
3E00
3E00
3E00
3E00
3E00
3E00
3E00
3E00
ENDCHAR
STARTCHAR uni01D0
ENCODING 464
SWIDTH 278 0
DWIDTH 9 0
BBX 10 24 -1 0
BITMAP
E1C0
7380
3F00
1E00
0C00
0000
1E00
1E00
1E00
1E00
1E00
1E00
1E00
1E00
1E00
1E00
1E00
1E00
1E00
1E00
1E00
1E00
1E00
1E00
ENDCHAR
STARTCHAR uni01D1
ENCODING 465
SWIDTH 778 0
DWIDTH 25 0
BBX 23 31 1 0
BITMAP
01C380
00E700
007E00
003C00
001800
000000
01FF00
07FFC0
0FFFE0
1FFFF0
3FC7F8
3F01F8
7E00FC
7C007C
7C007C
F8003E
F8003E
F8003E
F8003E
F8003E
F8003E
F8003E
7C007C
7C007C
7E00FC
3F01F8
3FC7F8
1FFFF0
0FFFE0
07FFC0
01FF00
ENDCHAR
STARTCHAR uni01D2
ENCODING 466
SWIDTH 611 0
DWIDTH 20 0
BBX 17 24 1 0
BITMAP
0E1C00
073800
03F000
01E000
00C000
000000
07F000
1FFC00
3FFE00
7FFF00
7C1F00
F80F80
F80F80
F00780
F00780
F00780
F00780
F80F80
F80F80
7C1F00
7FFF00
3FFE00
1FFC00
07F000
ENDCHAR
STARTCHAR uni01D3
ENCODING 467
SWIDTH 722 0
DWIDTH 24 0
BBX 19 31 2 0
BITMAP
070E00
039C00
01F800
00F000
006000
000000
F803E0
F803E0
F803E0
F803E0
F803E0
F803E0
F803E0
F803E0
F803E0
F803E0
F803E0
F803E0
F803E0
F803E0
F803E0
F803E0
F803E0
F803E0
F803E0
FC07E0
7F1FC0
7FFFC0
3FFF80
1FFF00
07FC00
ENDCHAR
STARTCHAR uni01D4
ENCODING 468
SWIDTH 611 0
DWIDTH 20 0
BBX 15 24 2 0
BITMAP
1C38
0E70
07E0
03C0
0180
0000
F01E
F01E
F01E
F01E
F01E
F01E
F01E
F01E
F01E
F01E
F01E
F01E
F83E
F87E
FFFE
7FFE
7FDE
1F1E
ENDCHAR
STARTCHAR uni01D5
ENCODING 469
SWIDTH 722 0
DWIDTH 24 0
BBX 19 35 2 0
BITMAP
07FE00
07FE00
07FE00
000000
0F1E00
0F1E00
0F1E00
0F1E00
000000
000000
F803E0
F803E0
F803E0
F803E0
F803E0
F803E0
F803E0
F803E0
F803E0
F803E0
F803E0
F803E0
F803E0
F803E0
F803E0
F803E0
F803E0
F803E0
F803E0
FC07E0
7F1FC0
7FFFC0
3FFF80
1FFF00
07FC00
ENDCHAR
STARTCHAR uni01D6
ENCODING 470
SWIDTH 611 0
DWIDTH 20 0
BBX 15 29 2 0
BITMAP
1FF8
1FF8
1FF8
0000
3C78
3C78
3C78
3C78
0000
0000
0000
F01E
F01E
F01E
F01E
F01E
F01E
F01E
F01E
F01E
F01E
F01E
F01E
F83E
F87E
FFFE
7FFE
7FDE
1F1E
ENDCHAR
STARTCHAR uni01D7
ENCODING 471
SWIDTH 722 0
DWIDTH 24 0
BBX 19 37 2 0
BITMAP
003C00
007800
007000
00E000
00E000
000000
0F1E00
0F1E00
0F1E00
0F1E00
000000
000000
F803E0
F803E0
F803E0
F803E0
F803E0
F803E0
F803E0
F803E0
F803E0
F803E0
F803E0
F803E0
F803E0
F803E0
F803E0
F803E0
F803E0
F803E0
F803E0
FC07E0
7F1FC0
7FFFC0
3FFF80
1FFF00
07FC00
ENDCHAR
STARTCHAR uni01D8
ENCODING 472
SWIDTH 611 0
DWIDTH 20 0
BBX 15 31 2 0
BITMAP
00F0
01E0
01C0
0380
0380
0000
3C78
3C78
3C78
3C78
0000
0000
0000
F01E
F01E
F01E
F01E
F01E
F01E
F01E
F01E
F01E
F01E
F01E
F01E
F83E
F87E
FFFE
7FFE
7FDE
1F1E
ENDCHAR
STARTCHAR uni01D9
ENCODING 473
SWIDTH 722 0
DWIDTH 24 0
BBX 19 37 2 0
BITMAP
070E00
039C00
01F800
00F000
006000
000000
0F1E00
0F1E00
0F1E00
0F1E00
000000
000000
F803E0
F803E0
F803E0
F803E0
F803E0
F803E0
F803E0
F803E0
F803E0
F803E0
F803E0
F803E0
F803E0
F803E0
F803E0
F803E0
F803E0
F803E0
F803E0
FC07E0
7F1FC0
7FFFC0
3FFF80
1FFF00
07FC00
ENDCHAR
STARTCHAR uni01DA
ENCODING 474
SWIDTH 611 0
DWIDTH 20 0
BBX 15 31 2 0
BITMAP
1C38
0E70
07E0
03C0
0180
0000
3C78
3C78
3C78
3C78
0000
0000
0000
F01E
F01E
F01E
F01E
F01E
F01E
F01E
F01E
F01E
F01E
F01E
F01E
F83E
F87E
FFFE
7FFE
7FDE
1F1E
ENDCHAR
STARTCHAR uni01DB
ENCODING 475
SWIDTH 722 0
DWIDTH 24 0
BBX 19 37 2 0
BITMAP
01C000
01E000
00E000
00F000
007000
000000
0F1E00
0F1E00
0F1E00
0F1E00
000000
000000
F803E0
F803E0
F803E0
F803E0
F803E0
F803E0
F803E0
F803E0
F803E0
F803E0
F803E0
F803E0
F803E0
F803E0
F803E0
F803E0
F803E0
F803E0
F803E0
FC07E0
7F1FC0
7FFFC0
3FFF80
1FFF00
07FC00
ENDCHAR
STARTCHAR uni01DC
ENCODING 476
SWIDTH 611 0
DWIDTH 20 0
BBX 15 31 2 0
BITMAP
0700
0780
0380
03C0
01C0
0000
3C78
3C78
3C78
3C78
0000
0000
0000
F01E
F01E
F01E
F01E
F01E
F01E
F01E
F01E
F01E
F01E
F01E
F01E
F83E
F87E
FFFE
7FFE
7FDE
1F1E
ENDCHAR
STARTCHAR uni01DD
ENCODING 477
SWIDTH 556 0
DWIDTH 18 0
BBX 16 18 1 0
BITMAP
03E0
0FF8
3FFC
3FFE
7C3E
781F
000F
000F
FFFF
FFFF
FFFF
F80F
F81F
7C3E
7FFE
3FFC
1FF8
07E0
ENDCHAR
STARTCHAR uni01DE
ENCODING 478
SWIDTH 722 0
DWIDTH 23 0
BBX 22 35 0 0
BITMAP
03FF00
03FF00
03FF00
000000
03CF00
03CF00
03CF00
03CF00
000000
000000
00FC00
00FC00
01FE00
01FE00
01FE00
03FF00
03FF00
03FF00
07CF80
07CF80
07CF80
0F8780
0F87C0
0F87C0
1F03C0
1F03E0
1FFFE0
1FFFE0
3FFFF0
3FFFF0
3E01F0
7C00F8
7C00F8
FC00FC
F8007C
ENDCHAR
STARTCHAR uni01DF
ENCODING 479
SWIDTH 556 0
DWIDTH 18 0
BBX 15 28 1 0
BITMAP
1FF8
1FF8
1FF8
0000
1E78
1E78
1E78
1E78
0000
0000
0FF0
3FFC
7FFC
7C3E
F81E
F81E
01FE
0FFE
3FFE
7F1E
F81E
F01E
F03E
F87E
FFFE
FFFE
7FDE
3F1E
ENDCHAR
STARTCHAR uni01E0
ENCODING 480
SWIDTH 722 0
DWIDTH 23 0
BBX 22 34 0 0
BITMAP
03FF00
03FF00
03FF00
000000
007800
007800
007800
007800
000000
00FC00
00FC00
01FE00
01FE00
01FE00
03FF00
03FF00
03FF00
07CF80
07CF80
07CF80
0F8780
0F87C0
0F87C0
1F03C0
1F03E0
1FFFE0
1FFFE0
3FFFF0
3FFFF0
3E01F0
7C00F8
7C00F8
FC00FC
F8007C
ENDCHAR
STARTCHAR uni01E1
ENCODING 481
SWIDTH 556 0
DWIDTH 18 0
BBX 15 27 1 0
BITMAP
1FF8
1FF8
1FF8
0000
03C0
03C0
03C0
03C0
0000
0FF0
3FFC
7FFC
7C3E
F81E
F81E
00FE
0FFE
3FFE
7F1E
F81E
F81E
F03E
F87E
FFFE
FFFE
7FDE
3F1E
ENDCHAR
STARTCHAR uni01E2
ENCODING 482
SWIDTH 1000 0
DWIDTH 32 0
BBX 31 29 0 0
BITMAP
000FFC00
000FFC00
000FFC00
00000000
00FFFFFC
00FFFFFC
00FFFFFC
01FFFFFC
01F3C000
01E3C000
03E3C000
03E3C000
03C3C000
07C3C000
07C3C000
07C3FFF8
0F83FFF8
0F83FFF8
0F83FFF8
1F03C000
1FFFC000
1FFFC000
3FFFC000
3FFFC000
3E03C000
7C03FFFE
7C03FFFE
F803FFFE
F803FFFE
ENDCHAR
STARTCHAR uni01E3
ENCODING 483
SWIDTH 889 0
DWIDTH 29 0
BBX 26 23 1 0
BITMAP
00FFC000
00FFC000
00FFC000
00000000
07E0F800
1FFBFE00
3FFFFF00
3FFFFF00
7C3F0F80
781E0780
781E07C0
003E07C0
07FFFFC0
3FFFFFC0
7FFFFFC0
7C1E0000
F81E0000
F81E07C0
FC3F0FC0
FFFFFF80
7FF7FF00
3FE3FE00
0F81F800
ENDCHAR
STARTCHAR uni01E4
ENCODING 484
SWIDTH 778 0
DWIDTH 25 0
BBX 22 25 1 0
BITMAP
00FF00
03FFC0
0FFFE0
1FFFF0
1FC3F8
3F00F8
7E007C
7C007C
FC0000
F80000
F80000
F80000
F80FFC
F80FFC
F80FFC
F80FFC
FC007C
7C007C
7E007C
7E00FC
3F83FC
3FFFFC
1FFFDC
07FF9C
03FE1C
ENDCHAR
STARTCHAR uni01E5
ENCODING 485
SWIDTH 611 0
DWIDTH 20 0
BBX 16 25 1 -7
BITMAP
0FCF
1FEF
3FFF
7FFF
7C3F
F81F
F81F
F00F
F00F
F00F
F00F
F81F
F81F
7C3F
7FFF
3FFF
1FEF
0FCF
FFFF
FFFF
F81F
7E7E
7FFE
3FFC
0FF0
ENDCHAR
STARTCHAR Gcaron
ENCODING 486
SWIDTH 778 0
DWIDTH 25 0
BBX 22 31 1 0
BITMAP
038700
01CE00
00FC00
007800
003000
000000
00FF00
03FFC0
0FFFE0
1FFFF0
1FC3F8
3F00F8
7E007C
7C007C
FC0000
F80000
F80000
F80000
F80FFC
F80FFC
F80FFC
F80FFC
FC007C
7C007C
7E007C
7E00FC
3F83FC
3FFFFC
1FFFDC
07FF9C
03FE1C
ENDCHAR
STARTCHAR gcaron
ENCODING 487
SWIDTH 611 0
DWIDTH 20 0
BBX 16 31 1 -7
BITMAP
0E1C
0738
03F0
01E0
00C0
0000
0FCF
1FEF
3FFF
7FFF
7C3F
F81F
F81F
F00F
F00F
F00F
F00F
F81F
F81F
7C3F
7FFF
3FFF
1FEF
0FCF
000F
F81F
F81F
7E7E
7FFE
3FFC
0FF0
ENDCHAR
STARTCHAR uni01E8
ENCODING 488
SWIDTH 722 0
DWIDTH 24 0
BBX 20 31 2 0
BITMAP
0E1C00
073800
03F000
01E000
00C000
000000
F807E0
F807E0
F80FC0
F81F80
F83F00
F87E00
F8FC00
F8F800
F9F800
FBF000
FFE000
FFE000
FFF000
FFF000
FFF800
FCFC00
F87E00
F87E00
F83F00
F81F80
F80F80
F80FC0
F807E0
F803F0
F803F0
ENDCHAR
STARTCHAR uni01E9
ENCODING 489
SWIDTH 556 0
DWIDTH 19 0
BBX 16 31 1 0
BITMAP
E1C0
7380
3F00
1E00
0C00
0000
7800
7800
7800
7800
7800
7800
7800
781F
783E
787C
78F8
79F0
7BE0
7FC0
7FE0
7FE0
7FF0
7FF0
7CF8
78F8
787C
783C
783E
781F
781F
ENDCHAR
STARTCHAR uni01EA
ENCODING 490
SWIDTH 778 0
DWIDTH 25 0
BBX 23 32 1 -7
BITMAP
01FF00
07FFC0
0FFFE0
1FFFF0
3FC7F8
3F01F8
7E00FC
7C007C
7C007C
F8003E
F8003E
F8003E
F8003E
F8003E
F8003E
F8003E
7C007C
7C007C
7E00FC
3F01F8
3FC7F8
1FFFF0
0FFFE0
07FFC0
01FF00
003000
007000
007000
007000
007F00
003F00
001E00
ENDCHAR
STARTCHAR uni01EB
ENCODING 491
SWIDTH 611 0
DWIDTH 20 0
BBX 17 25 1 -7
BITMAP
07F000
1FFC00
3FFE00
7FFF00
7C1F00
F80F80
F80F80
F00780
F00780
F00780
F00780
F80F80
F80F80
7C1F00
7FFF00
3FFE00
1FFC00
07F000
018000
038000
038000
038000
03F800
01F800
00F000
ENDCHAR
STARTCHAR uni01EC
ENCODING 492
SWIDTH 778 0
DWIDTH 25 0
BBX 23 36 1 -7
BITMAP
01FF80
01FF80
01FF80
000000
01FF00
07FFC0
0FFFE0
1FFFF0
3FC7F8
3F01F8
7E00FC
7C007C
7C007C
F8003E
F8003E
F8003E
F8003E
F8003E
F8003E
F8003E
7C007C
7C007C
7E00FC
3F01F8
3FC7F8
1FFFF0
0FFFE0
07FFC0
01FF00
003000
007000
007000
007000
007F00
003F00
001E00
ENDCHAR
STARTCHAR uni01ED
ENCODING 493
SWIDTH 611 0
DWIDTH 20 0
BBX 17 29 1 -7
BITMAP
0FFC00
0FFC00
0FFC00
000000
07F000
1FFC00
3FFE00
7FFF00
7C1F00
F80F80
F80F80
F00780
F00780
F00780
F00780
F80F80
F80F80
7C1F00
7FFF00
3FFE00
1FFC00
07F000
018000
038000
038000
038000
03F800
01F800
00F000
ENDCHAR
STARTCHAR uni01F0
ENCODING 496
SWIDTH 278 0
DWIDTH 9 0
BBX 10 32 -1 -7
BITMAP
E1C0
7380
3F00
1E00
0C00
0000
1E00
1E00
1E00
1E00
1E00
1E00
1E00
1E00
1E00
1E00
1E00
1E00
1E00
1E00
1E00
1E00
1E00
1E00
1E00
1E00
1E00
1E00
7E00
7E00
7C00
7C00
ENDCHAR
STARTCHAR uni01F4
ENCODING 500
SWIDTH 778 0
DWIDTH 25 0
BBX 22 31 1 0
BITMAP
001E00
003C00
003800
007000
007000
000000
00FF00
03FFC0
0FFFE0
1FFFF0
1FC3F8
3F00F8
7E007C
7C007C
FC0000
F80000
F80000
F80000
F80FFC
F80FFC
F80FFC
F80FFC
FC007C
7C007C
7E007C
7E00FC
3F83FC
3FFFFC
1FFFDC
07FF9C
03FE1C
ENDCHAR
STARTCHAR uni01F5
ENCODING 501
SWIDTH 611 0
DWIDTH 20 0
BBX 16 31 1 -7
BITMAP
0078
00F0
00E0
01C0
01C0
0000
0FCF
1FEF
3FFF
7FFF
7C3F
F81F
F81F
F00F
F00F
F00F
F00F
F81F
F81F
7C3F
7FFF
3FFF
1FEF
0FCF
000F
F81F
F81F
7E7E
7FFE
3FFC
0FF0
ENDCHAR
STARTCHAR uni01F8
ENCODING 504
SWIDTH 722 0
DWIDTH 24 0
BBX 19 31 2 0
BITMAP
038000
03C000
01C000
01E000
00E000
000000
F803E0
FC03E0
FC03E0
FE03E0
FE03E0
FF03E0
FF03E0
FF83E0
FFC3E0
FBC3E0
FBE3E0
F9E3E0
F9F3E0
F8F3E0
F8FBE0
F87BE0
F83FE0
F83FE0
F81FE0
F81FE0
F80FE0
F80FE0
F807E0
F807E0
F803E0
ENDCHAR
STARTCHAR uni01F9
ENCODING 505
SWIDTH 611 0
DWIDTH 20 0
BBX 15 24 2 0
BITMAP
0E00
0F00
0700
0780
0380
0000
F1F0
F7FC
FFFC
FFFE
FC3E
F81E
F01E
F01E
F01E
F01E
F01E
F01E
F01E
F01E
F01E
F01E
F01E
F01E
ENDCHAR
STARTCHAR Aringacute
ENCODING 506
SWIDTH 722 0
DWIDTH 23 0
BBX 22 37 0 0
BITMAP
001E00
003C00
003800
007000
007000
000000
007800
00CC00
008400
008400
00CC00
007800
000000
00FC00
01FE00
01FE00
01FE00
03FF00
03FF00
03FF00
07CF80
07CF80
07CF80
0F8780
0F87C0
0F87C0
1F03C0
1F03E0
1FFFE0
1FFFE0
3FFFF0
3FFFF0
3E01F0
7C00F8
7C00F8
FC00FC
F8007C
ENDCHAR
STARTCHAR aringacute
ENCODING 507
SWIDTH 556 0
DWIDTH 18 0
BBX 15 31 1 0
BITMAP
00F0
01E0
01C0
0380
0380
0000
03C0
0660
0420
0420
0660
03C0
0000
0FF0
3FFC
7FFC
7C3E
F81E
F81E
01FE
0FFE
3FFE
7F1E
F81E
F81E
F03E
F87E
FFFE
FFFE
7FDE
3F1E
ENDCHAR
STARTCHAR AEacute
ENCODING 508
SWIDTH 1000 0
DWIDTH 32 0
BBX 31 31 0 0
BITMAP
00007800
0000F000
0000E000
0001C000
0001C000
00000000
00FFFFFC
00FFFFFC
00FFFFFC
01FFFFFC
01F3C000
01E3C000
03E3C000
03E3C000
03C3C000
07C3C000
07C3C000
07C3FFF8
0F83FFF8
0F83FFF8
0F83FFF8
1F03C000
1FFFC000
1FFFC000
3FFFC000
3FFFC000
3E03C000
7C03FFFE
7C03FFFE
F803FFFE
F803FFFE
ENDCHAR
STARTCHAR aeacute
ENCODING 509
SWIDTH 889 0
DWIDTH 29 0
BBX 26 25 1 0
BITMAP
00078000
000F0000
000E0000
001C0000
001C0000
00000000
07E0F800
1FFBFE00
3FFFFF00
3FFFFF00
7C3F0F80
781E0780
781E07C0
003E07C0
07FFFFC0
3FFFFFC0
7FFFFFC0
7C1E0000
F81E0000
F81E07C0
FC3F0FC0
FFFFFF80
7FF7FF00
3FE3FE00
0F81F800
ENDCHAR
STARTCHAR Oslashacute
ENCODING 510
SWIDTH 778 0
DWIDTH 25 0
BBX 24 31 1 0
BITMAP
000F00
001E00
001C00
003800
003800
000000
01FF07
07FFCE
0FFFFC
1FFFF8
3FC7F8
3F00F8
7E01FC
7C03FC
7C07BC
F8073E
F80E3E
F81C3E
F8383E
F8703E
F8E03E
F8E03E
7DC07C
7F807C
7F00FC
3F01F8
3FC7F8
3FFFF0
3FFFE0
77FFC0
E1FF00
ENDCHAR
STARTCHAR oslashacute
ENCODING 511
SWIDTH 611 0
DWIDTH 20 0
BBX 21 24 -1 0
BITMAP
001E00
003C00
003800
007000
007000
000000
01FC38
07FF70
0FFFE0
1FFFC0
1F8FC0
3E07E0
3E0FE0
3C1DE0
3C39E0
3C71E0
3EE3E0
3F83E0
3F07E0
1F8FC0
1FFFC0
3FFF80
77FF00
E1FC00
ENDCHAR
STARTCHAR uni0200
ENCODING 512
SWIDTH 722 0
DWIDTH 23 0
BBX 22 31 0 0
BITMAP
071C00
079E00
038E00
01C700
00C300
000000
00FC00
00FC00
01FE00
01FE00
01FE00
03FF00
03FF00
03FF00
07CF80
07CF80
07CF80
0F8780
0F87C0
0F87C0
1F03C0
1F03E0
1FFFE0
1FFFE0
3FFFF0
3FFFF0
3E01F0
7C00F8
7C00F8
FC00FC
F8007C
ENDCHAR
STARTCHAR uni0201
ENCODING 513
SWIDTH 556 0
DWIDTH 18 0
BBX 15 24 1 0
BITMAP
71C0
79E0
38E0
1C70
0C30
0000
0FF0
3FFC
7FFC
7C3E
F81E
F81E
00FE
0FFE
3FFE
7F1E
F81E
F81E
F03E
F87E
FFFE
FFFE
7FDE
3F1E
ENDCHAR
STARTCHAR uni0202
ENCODING 514
SWIDTH 722 0
DWIDTH 23 0
BBX 22 31 0 0
BITMAP
003800
00FE00
00FE00
018300
010100
000000
00FC00
00FC00
01FE00
01FE00
01FE00
03FF00
03FF00
03FF00
07CF80
07CF80
07CF80
0F8780
0F87C0
0F87C0
1F03C0
1F03E0
1FFFE0
1FFFE0
3FFFF0
3FFFF0
3E01F0
7C00F8
7C00F8
FC00FC
F8007C
ENDCHAR
STARTCHAR uni0203
ENCODING 515
SWIDTH 556 0
DWIDTH 18 0
BBX 15 24 1 0
BITMAP
0380
0FE0
0FE0
1830
1010
0000
0FF0
3FFC
7FFC
7C3E
F81E
F81E
00FE
0FFE
3FFE
7F1E
F81E
F81E
F03E
F87E
FFFE
FFFE
7FDE
3F1E
ENDCHAR
STARTCHAR uni0204
ENCODING 516
SWIDTH 667 0
DWIDTH 22 0
BBX 18 31 2 0
BITMAP
38E000
3CF000
1C7000
0E3800
061800
000000
FFFF80
FFFF80
FFFF80
FFFF80
F80000
F80000
F80000
F80000
F80000
F80000
FFFF00
FFFF00
FFFF00
FFFF00
F80000
F80000
F80000
F80000
F80000
F80000
F80000
FFFFC0
FFFFC0
FFFFC0
FFFFC0
ENDCHAR
STARTCHAR uni0205
ENCODING 517
SWIDTH 556 0
DWIDTH 18 0
BBX 16 24 1 0
BITMAP
38E0
3CF0
1C70
0E38
0618
0000
07E0
1FF8
3FFC
7FFE
7C3E
F81F
F01F
FFFF
FFFF
FFFF
F000
F000
F81E
7C3E
7FFC
3FFC
1FF0
07C0
ENDCHAR
STARTCHAR uni0206
ENCODING 518
SWIDTH 667 0
DWIDTH 22 0
BBX 18 31 2 0
BITMAP
038000
0FE000
0FE000
183000
101000
000000
FFFF80
FFFF80
FFFF80
FFFF80
F80000
F80000
F80000
F80000
F80000
F80000
FFFF00
FFFF00
FFFF00
FFFF00
F80000
F80000
F80000
F80000
F80000
F80000
F80000
FFFFC0
FFFFC0
FFFFC0
FFFFC0
ENDCHAR
STARTCHAR uni0207
ENCODING 519
SWIDTH 556 0
DWIDTH 18 0
BBX 16 24 1 0
BITMAP
01C0
07F0
07F0
0C18
0808
0000
07E0
1FF8
3FFC
7FFE
7C3E
F81F
F01F
FFFF
FFFF
FFFF
F000
F000
F81E
7C3E
7FFC
3FFC
1FF0
07C0
ENDCHAR
STARTCHAR uni0208
ENCODING 520
SWIDTH 278 0
DWIDTH 9 0
BBX 11 31 -2 0
BITMAP
E380
F3C0
71C0
38E0
1860
0000
0F80
0F80
0F80
0F80
0F80
0F80
0F80
0F80
0F80
0F80
0F80
0F80
0F80
0F80
0F80
0F80
0F80
0F80
0F80
0F80
0F80
0F80
0F80
0F80
0F80
ENDCHAR
STARTCHAR uni0209
ENCODING 521
SWIDTH 278 0
DWIDTH 9 0
BBX 11 24 -2 0
BITMAP
E380
F3C0
71C0
38E0
1860
0000
0F00
0F00
0F00
0F00
0F00
0F00
0F00
0F00
0F00
0F00
0F00
0F00
0F00
0F00
0F00
0F00
0F00
0F00
ENDCHAR
STARTCHAR uni020A
ENCODING 522
SWIDTH 278 0
DWIDTH 9 0
BBX 9 31 0 0
BITMAP
1C00
7F00
7F00
C180
8080
0000
3E00
3E00
3E00
3E00
3E00
3E00
3E00
3E00
3E00
3E00
3E00
3E00
3E00
3E00
3E00
3E00
3E00
3E00
3E00
3E00
3E00
3E00
3E00
3E00
3E00
ENDCHAR
STARTCHAR uni020B
ENCODING 523
SWIDTH 278 0
DWIDTH 9 0
BBX 9 24 0 0
BITMAP
1C00
7F00
7F00
C180
8080
0000
3C00
3C00
3C00
3C00
3C00
3C00
3C00
3C00
3C00
3C00
3C00
3C00
3C00
3C00
3C00
3C00
3C00
3C00
ENDCHAR
STARTCHAR uni020C
ENCODING 524
SWIDTH 778 0
DWIDTH 25 0
BBX 23 31 1 0
BITMAP
071C00
079E00
038E00
01C700
00C300
000000
01FF00
07FFC0
0FFFE0
1FFFF0
3FC7F8
3F01F8
7E00FC
7C007C
7C007C
F8003E
F8003E
F8003E
F8003E
F8003E
F8003E
F8003E
7C007C
7C007C
7E00FC
3F01F8
3FC7F8
1FFFF0
0FFFE0
07FFC0
01FF00
ENDCHAR
STARTCHAR uni020D
ENCODING 525
SWIDTH 611 0
DWIDTH 20 0
BBX 17 24 1 0
BITMAP
38E000
3CF000
1C7000
0E3800
061800
000000
07F000
1FFC00
3FFE00
7FFF00
7C1F00
F80F80
F80F80
F00780
F00780
F00780
F00780
F80F80
F80F80
7C1F00
7FFF00
3FFE00
1FFC00
07F000
ENDCHAR
STARTCHAR uni020E
ENCODING 526
SWIDTH 778 0
DWIDTH 25 0
BBX 23 31 1 0
BITMAP
003800
00FE00
00FE00
018300
010100
000000
01FF00
07FFC0
0FFFE0
1FFFF0
3FC7F8
3F01F8
7E00FC
7C007C
7C007C
F8003E
F8003E
F8003E
F8003E
F8003E
F8003E
F8003E
7C007C
7C007C
7E00FC
3F01F8
3FC7F8
1FFFF0
0FFFE0
07FFC0
01FF00
ENDCHAR
STARTCHAR uni020F
ENCODING 527
SWIDTH 611 0
DWIDTH 20 0
BBX 17 24 1 0
BITMAP
01C000
07F000
07F000
0C1800
080800
000000
07F000
1FFC00
3FFE00
7FFF00
7C1F00
F80F80
F80F80
F00780
F00780
F00780
F00780
F80F80
F80F80
7C1F00
7FFF00
3FFE00
1FFC00
07F000
ENDCHAR
STARTCHAR uni0210
ENCODING 528
SWIDTH 722 0
DWIDTH 24 0
BBX 19 31 2 0
BITMAP
1C7000
1E7800
0E3800
071C00
030C00
000000
FFFE00
FFFF80
FFFFC0
FFFFC0
F807E0
F803E0
F803E0
F803E0
F803E0
F807C0
F80FC0
FFFF80
FFFF00
FFFF00
FFFF80
F80FC0
F807C0
F807C0
F807C0
F807C0
F807C0
F807C0
F807C0
F807E0
F803E0
ENDCHAR
STARTCHAR uni0211
ENCODING 529
SWIDTH 389 0
DWIDTH 13 0
BBX 11 24 1 0
BITMAP
E380
F3C0
71C0
38E0
1860
0000
7860
79E0
7BE0
7FE0
7FE0
7E00
7C00
7C00
7800
7800
7800
7800
7800
7800
7800
7800
7800
7800
ENDCHAR
STARTCHAR uni0212
ENCODING 530
SWIDTH 722 0
DWIDTH 24 0
BBX 19 31 2 0
BITMAP
00E000
03F800
03F800
060C00
040400
000000
FFFE00
FFFF80
FFFFC0
FFFFC0
F807E0
F803E0
F803E0
F803E0
F803E0
F807C0
F80FC0
FFFF80
FFFF00
FFFF00
FFFF80
F80FC0
F807C0
F807C0
F807C0
F807C0
F807C0
F807C0
F807C0
F807E0
F803E0
ENDCHAR
STARTCHAR uni0213
ENCODING 531
SWIDTH 389 0
DWIDTH 13 0
BBX 10 24 2 0
BITMAP
1C00
7F00
7F00
C180
8080
0000
F0C0
F3C0
F7C0
FFC0
FFC0
FC00
F800
F800
F000
F000
F000
F000
F000
F000
F000
F000
F000
F000
ENDCHAR
STARTCHAR uni0214
ENCODING 532
SWIDTH 722 0
DWIDTH 24 0
BBX 19 31 2 0
BITMAP
1C7000
1E7800
0E3800
071C00
030C00
000000
F803E0
F803E0
F803E0
F803E0
F803E0
F803E0
F803E0
F803E0
F803E0
F803E0
F803E0
F803E0
F803E0
F803E0
F803E0
F803E0
F803E0
F803E0
F803E0
FC07E0
7F1FC0
7FFFC0
3FFF80
1FFF00
07FC00
ENDCHAR
STARTCHAR uni0215
ENCODING 533
SWIDTH 611 0
DWIDTH 20 0
BBX 15 24 2 0
BITMAP
71C0
79E0
38E0
1C70
0C30
0000
F01E
F01E
F01E
F01E
F01E
F01E
F01E
F01E
F01E
F01E
F01E
F01E
F83E
F87E
FFFE
7FFE
7FDE
1F1E
ENDCHAR
STARTCHAR uni0216
ENCODING 534
SWIDTH 722 0
DWIDTH 24 0
BBX 19 31 2 0
BITMAP
00E000
03F800
03F800
060C00
040400
000000
F803E0
F803E0
F803E0
F803E0
F803E0
F803E0
F803E0
F803E0
F803E0
F803E0
F803E0
F803E0
F803E0
F803E0
F803E0
F803E0
F803E0
F803E0
F803E0
FC07E0
7F1FC0
7FFFC0
3FFF80
1FFF00
07FC00
ENDCHAR
STARTCHAR uni0217
ENCODING 535
SWIDTH 611 0
DWIDTH 20 0
BBX 15 24 2 0
BITMAP
0380
0FE0
0FE0
1830
1010
0000
F01E
F01E
F01E
F01E
F01E
F01E
F01E
F01E
F01E
F01E
F01E
F01E
F83E
F87E
FFFE
7FFE
7FDE
1F1E
ENDCHAR
STARTCHAR Scommaaccent
ENCODING 536
SWIDTH 667 0
DWIDTH 22 0
BBX 19 37 1 -12
BITMAP
03F800
0FFE00
1FFF00
3FFF80
3E1F80
7C07C0
7807C0
7803C0
7C0000
7F0000
3FF000
3FFE00
1FFF80
03FFC0
003FC0
0007E0
0003E0
F803E0
F803E0
7C03E0
7E0FC0
3FFFC0
1FFF80
0FFF00
03F800
000000
01F000
01F000
01F000
01F000
01F000
003000
003000
007000
00E000
01C000
010000
ENDCHAR
STARTCHAR scommaaccent
ENCODING 537
SWIDTH 556 0
DWIDTH 19 0
BBX 16 30 1 -12
BITMAP
07F0
1FFC
3FFE
7C3E
781F
781F
7C00
7FC0
3FF8
0FFE
03FF
003F
F80F
F80F
7C1F
7FFE
3FFC
0FF0
0000
03E0
03E0
03E0
03E0
03E0
0060
0060
00E0
01C0
0380
0200
ENDCHAR
STARTCHAR Tcommaaccent
ENCODING 538
SWIDTH 611 0
DWIDTH 20 0
BBX 19 37 0 -12
BITMAP
FFFFE0
FFFFE0
FFFFE0
FFFFE0
01F000
01F000
01F000
01F000
01F000
01F000
01F000
01F000
01F000
01F000
01F000
01F000
01F000
01F000
01F000
01F000
01F000
01F000
01F000
01F000
01F000
000000
01F000
01F000
01F000
01F000
01F000
003000
003000
007000
00E000
01C000
010000
ENDCHAR
STARTCHAR tcommaaccent
ENCODING 539
SWIDTH 333 0
DWIDTH 11 0
BBX 9 34 1 -12
BITMAP
3C00
3C00
3C00
3C00
FF80
FF80
FF80
3C00
3C00
3C00
3C00
3C00
3C00
3C00
3C00
3C00
3C00
3C00
3F80
3F80
1F80
0F80
0000
1F00
1F00
1F00
1F00
1F00
0300
0300
0700
0E00
1C00
1000
ENDCHAR
STARTCHAR uni021E
ENCODING 542
SWIDTH 722 0
DWIDTH 23 0
BBX 19 31 2 0
BITMAP
070E00
039C00
01F800
00F000
006000
000000
F803E0
F803E0
F803E0
F803E0
F803E0
F803E0
F803E0
F803E0
F803E0
F803E0
FFFFE0
FFFFE0
FFFFE0
FFFFE0
F803E0
F803E0
F803E0
F803E0
F803E0
F803E0
F803E0
F803E0
F803E0
F803E0
F803E0
ENDCHAR
STARTCHAR uni021F
ENCODING 543
SWIDTH 611 0
DWIDTH 20 0
BBX 16 31 1 0
BITMAP
E1C0
7380
3F00
1E00
0C00
0000
7800
7800
7800
7800
7800
7800
7800
78F0
7BFC
7FFE
7FFE
7E1F
7C0F
7C0F
780F
780F
780F
780F
780F
780F
780F
780F
780F
780F
780F
ENDCHAR
STARTCHAR uni0226
ENCODING 550
SWIDTH 722 0
DWIDTH 23 0
BBX 22 30 0 0
BITMAP
007800
007800
007800
007800
000000
00FC00
00FC00
01FE00
01FE00
01FE00
03FF00
03FF00
03FF00
07CF80
07CF80
07CF80
0F8780
0F87C0
0F87C0
1F03C0
1F03E0
1FFFE0
1FFFE0
3FFFF0
3FFFF0
3E01F0
7C00F8
7C00F8
FC00FC
F8007C
ENDCHAR
STARTCHAR uni0227
ENCODING 551
SWIDTH 556 0
DWIDTH 18 0
BBX 15 23 1 0
BITMAP
03C0
03C0
03C0
03C0
0000
0FF0
3FFC
7FFC
7C3E
F81E
F81E
00FE
0FFE
3FFE
7F1E
F81E
F81E
F03E
F87E
FFFE
FFFE
7FDE
3F1E
ENDCHAR
STARTCHAR uni0228
ENCODING 552
SWIDTH 667 0
DWIDTH 22 0
BBX 18 32 2 -7
BITMAP
FFFF80
FFFF80
FFFF80
FFFF80
F80000
F80000
F80000
F80000
F80000
F80000
FFFF00
FFFF00
FFFF00
FFFF00
F80000
F80000
F80000
F80000
F80000
F80000
F80000
FFFFC0
FFFFC0
FFFFC0
FFFFC0
018000
018000
03E000
00F000
007000
07E000
07C000
ENDCHAR
STARTCHAR uni0229
ENCODING 553
SWIDTH 556 0
DWIDTH 18 0
BBX 16 25 1 -7
BITMAP
07E0
1FF8
3FFC
7FFE
7C3E
F81F
F01F
FFFF
FFFF
FFFF
F000
F000
F81E
7C3E
7FFC
3FFC
1FF0
07C0
0180
0180
03E0
00F0
0070
07E0
07C0
ENDCHAR
STARTCHAR uni022A
ENCODING 554
SWIDTH 778 0
DWIDTH 25 0
BBX 23 35 1 0
BITMAP
01FF80
01FF80
01FF80
000000
01E780
01E780
01E780
01E780
000000
000000
01FF00
07FFC0
0FFFE0
1FFFF0
3FC7F8
3F01F8
7E00FC
7C007C
7C007C
F8003E
F8003E
F8003E
F8003E
F8003E
F8003E
F8003E
7C007C
7C007C
7E00FC
3F01F8
3FC7F8
1FFFF0
0FFFE0
07FFC0
01FF00
ENDCHAR
STARTCHAR uni022B
ENCODING 555
SWIDTH 611 0
DWIDTH 20 0
BBX 17 28 1 0
BITMAP
0FFC00
0FFC00
0FFC00
000000
1E3C00
1E3C00
1E3C00
1E3C00
000000
000000
07F000
1FFC00
3FFE00
7FFF00
7C1F00
F80F80
F80F80
F00780
F00780
F00780
F00780
F80F80
F80F80
7C1F00
7FFF00
3FFE00
1FFC00
07F000
ENDCHAR
STARTCHAR uni022C
ENCODING 556
SWIDTH 778 0
DWIDTH 25 0
BBX 23 34 1 0
BITMAP
01FF80
01FF80
01FF80
000000
0078C0
00FFC0
01FF80
018F00
000000
01FF00
07FFC0
0FFFE0
1FFFF0
3FC7F8
3F01F8
7E00FC
7C007C
7C007C
F8003E
F8003E
F8003E
F8003E
F8003E
F8003E
F8003E
7C007C
7C007C
7E00FC
3F01F8
3FC7F8
1FFFF0
0FFFE0
07FFC0
01FF00
ENDCHAR
STARTCHAR uni022D
ENCODING 557
SWIDTH 611 0
DWIDTH 20 0
BBX 17 28 1 0
BITMAP
0FFC00
0FFC00
0FFC00
000000
078C00
0FFC00
1FF800
18F000
000000
000000
07F000
1FFC00
3FFE00
7FFF00
7C1F00
F80F80
F80F80
F00780
F00780
F00780
F00780
F80F80
F80F80
7C1F00
7FFF00
3FFE00
1FFC00
07F000
ENDCHAR
STARTCHAR uni022E
ENCODING 558
SWIDTH 778 0
DWIDTH 25 0
BBX 23 30 1 0
BITMAP
003C00
003C00
003C00
003C00
000000
01FF00
07FFC0
0FFFE0
1FFFF0
3FC7F8
3F01F8
7E00FC
7C007C
7C007C
F8003E
F8003E
F8003E
F8003E
F8003E
F8003E
F8003E
7C007C
7C007C
7E00FC
3F01F8
3FC7F8
1FFFF0
0FFFE0
07FFC0
01FF00
ENDCHAR
STARTCHAR uni022F
ENCODING 559
SWIDTH 611 0
DWIDTH 20 0
BBX 17 23 1 0
BITMAP
01E000
01E000
01E000
01E000
000000
07F000
1FFC00
3FFE00
7FFF00
7C1F00
F80F80
F80F80
F00780
F00780
F00780
F00780
F80F80
F80F80
7C1F00
7FFF00
3FFE00
1FFC00
07F000
ENDCHAR
STARTCHAR uni0230
ENCODING 560
SWIDTH 778 0
DWIDTH 25 0
BBX 23 34 1 0
BITMAP
01FF80
01FF80
01FF80
000000
003C00
003C00
003C00
003C00
000000
01FF00
07FFC0
0FFFE0
1FFFF0
3FC7F8
3F01F8
7E00FC
7C007C
7C007C
F8003E
F8003E
F8003E
F8003E
F8003E
F8003E
F8003E
7C007C
7C007C
7E00FC
3F01F8
3FC7F8
1FFFF0
0FFFE0
07FFC0
01FF00
ENDCHAR
STARTCHAR uni0231
ENCODING 561
SWIDTH 611 0
DWIDTH 20 0
BBX 17 27 1 0
BITMAP
0FFC00
0FFC00
0FFC00
000000
01E000
01E000
01E000
01E000
000000
07F000
1FFC00
3FFE00
7FFF00
7C1F00
F80F80
F80F80
F00780
F00780
F00780
F00780
F80F80
F80F80
7C1F00
7FFF00
3FFE00
1FFC00
07F000
ENDCHAR
STARTCHAR uni0232
ENCODING 562
SWIDTH 667 0
DWIDTH 22 0
BBX 20 29 1 0
BITMAP
07FE00
07FE00
07FE00
000000
FC03F0
FC03E0
7E07E0
3E07C0
3F0FC0
3F0F80
1F0F80
1F9F00
0F9F00
0FFE00
07FE00
07FC00
03FC00
03F800
03F800
01F000
01F000
01F000
01F000
01F000
01F000
01F000
01F000
01F000
01F000
ENDCHAR
STARTCHAR uni0233
ENCODING 563
SWIDTH 556 0
DWIDTH 19 0
BBX 16 29 1 -7
BITMAP
1FF8
1FF8
1FF8
0000
F81F
F81F
F81E
783E
7C3E
7C3C
3C3C
3E7C
3E78
1E78
1E78
1FF0
0FF0
0FF0
0FE0
07E0
07E0
07C0
07C0
07C0
0F80
3F80
3F00
3F00
3C00
ENDCHAR
STARTCHAR uni0250
ENCODING 592
SWIDTH 556 0
DWIDTH 18 0
BBX 15 18 1 0
BITMAP
F1F8
F7FC
FFFE
FFFE
FC3E
F81E
F03E
F03E
F1FC
FFF8
FFE0
FE00
F03E
F03E
F87C
7FFC
7FF8
1FE0
ENDCHAR
STARTCHAR uni0254
ENCODING 596
SWIDTH 556 0
DWIDTH 18 0
BBX 15 18 1 0
BITMAP
0FC0
3FF0
7FF8
7FF8
F87C
F83C
F01E
001E
001E
001E
001E
F01E
F03E
F87C
7FFC
3FF8
3FF0
0FC0
ENDCHAR
STARTCHAR uni0258
ENCODING 600
SWIDTH 556 0
DWIDTH 18 0
BBX 16 18 1 0
BITMAP
07E0
1FF8
3FFC
7FFE
7C3E
F81F
F80F
FFFF
FFFF
FFFF
000F
000F
781F
7C3E
3FFE
3FFC
0FF8
03E0
ENDCHAR
STARTCHAR uni0259
ENCODING 601
SWIDTH 556 0
DWIDTH 18 0
BBX 16 18 1 0
BITMAP
03E0
0FF8
3FFC
3FFE
7C3E
781F
000F
000F
FFFF
FFFF
FFFF
F80F
F81F
7C3E
7FFE
3FFC
1FF8
07E0
ENDCHAR
STARTCHAR uni025F
ENCODING 607
SWIDTH 333 0
DWIDTH 11 0
BBX 10 25 0 -7
BITMAP
1E00
1E00
1E00
1E00
1E00
1E00
1E00
1E00
1E00
1E00
1E00
1E00
1E00
1E00
1E00
FFC0
FFC0
FFC0
1E00
1E00
1E00
3E00
FE00
FC00
F800
ENDCHAR
STARTCHAR uni0265
ENCODING 613
SWIDTH 611 0
DWIDTH 20 0
BBX 15 25 2 -7
BITMAP
F01E
F01E
F01E
F01E
F01E
F01E
F01E
F01E
F01E
F01E
F01E
F03E
F03E
F87E
7FFE
7FFE
3FDE
0F1E
001E
001E
001E
001E
001E
001E
001E
ENDCHAR
STARTCHAR uni0275
ENCODING 629
SWIDTH 611 0
DWIDTH 20 0
BBX 17 18 1 0
BITMAP
07F000
1FFC00
3FFE00
7FFF00
7C1F00
F80F80
F80F80
F00780
FFFF80
FFFF80
F00780
F80F80
F80F80
7C1F00
7FFF00
3FFE00
1FFC00
07F000
ENDCHAR
STARTCHAR uni0279
ENCODING 633
SWIDTH 389 0
DWIDTH 13 0
BBX 10 18 2 0
BITMAP
03C0
03C0
03C0
03C0
03C0
03C0
03C0
03C0
03C0
03C0
07C0
07C0
0FC0
FFC0
FFC0
FBC0
F3C0
C3C0
ENDCHAR
STARTCHAR uni0287
ENCODING 647
SWIDTH 333 0
DWIDTH 11 0
BBX 9 22 1 0
BITMAP
F800
FC00
FE00
FE00
1E00
1E00
1E00
1E00
1E00
1E00
1E00
1E00
1E00
1E00
1E00
FF80
FF80
FF80
1E00
1E00
1E00
1E00
ENDCHAR
STARTCHAR uni0288
ENCODING 648
SWIDTH 333 0
DWIDTH 11 0
BBX 9 29 1 -7
BITMAP
3C00
3C00
3C00
3C00
FF80
FF80
FF80
3C00
3C00
3C00
3C00
3C00
3C00
3C00
3C00
3C00
3C00
3C00
3C00
3C00
3C00
3C00
3C00
3C00
3C00
3F00
3F00
1F00
1F00
ENDCHAR
STARTCHAR uni0289
ENCODING 649
SWIDTH 611 0
DWIDTH 20 0
BBX 15 18 2 0
BITMAP
F01E
F01E
F01E
F01E
F01E
F01E
F01E
F01E
FFFE
FFFE
F01E
F01E
F83E
F87E
FFFE
7FFE
7FDE
1F1E
ENDCHAR
STARTCHAR uni028C
ENCODING 652
SWIDTH 556 0
DWIDTH 19 0
BBX 17 18 0 0
BITMAP
03E000
03E000
07F000
07F000
07F000
0F7800
0F7800
0F7800
1E3C00
1E3C00
1E3C00
3E3E00
3C1E00
3C1E00
7C1F00
7C1F00
F80F80
F80F80
ENDCHAR
STARTCHAR uni028D
ENCODING 653
SWIDTH 778 0
DWIDTH 26 0
BBX 25 18 0 0
BITMAP
0780F000
0780F000
0FC1F800
0FC1F800
0FC1F800
1FE3FC00
1EE3BC00
1EE3BC00
1EE3BC00
3CF79E00
3C771E00
3C7F1E00
3C7F1E00
7C7F1F00
7C3E1F00
783E0F00
F83E0F80
F83E0F80
ENDCHAR
STARTCHAR uni028E
ENCODING 654
SWIDTH 556 0
DWIDTH 19 0
BBX 16 25 1 0
BITMAP
003C
00FC
00FC
01FC
01F0
03E0
03E0
03E0
07E0
07E0
07F0
0FF0
0FF0
0FF8
1E78
1E78
1E7C
3E7C
3C3C
3C3E
7C3E
7C1E
781F
F81F
F81F
ENDCHAR
STARTCHAR uni029E
ENCODING 670
SWIDTH 556 0
DWIDTH 19 0
BBX 15 25 2 -7
BITMAP
F81E
F81E
7C1E
3C1E
3E1E
1F1E
1F3E
0FFE
0FFE
07FE
07FE
03FE
07DE
0F9E
1F1E
3E1E
7C1E
F81E
001E
001E
001E
001E
001E
001E
001E
ENDCHAR
STARTCHAR uni02BB
ENCODING 699
SWIDTH 278 0
DWIDTH 9 0
BBX 4 9 2 16
BITMAP
30
60
C0
C0
C0
F0
F0
F0
F0
ENDCHAR
STARTCHAR afii57929
ENCODING 700
SWIDTH 278 0
DWIDTH 9 0
BBX 4 9 2 16
BITMAP
F0
F0
F0
F0
30
30
30
60
C0
ENDCHAR
STARTCHAR afii64937
ENCODING 701
SWIDTH 278 0
DWIDTH 9 0
BBX 4 9 2 16
BITMAP
F0
F0
F0
F0
C0
C0
C0
60
30
ENDCHAR
STARTCHAR circumflex
ENCODING 710
SWIDTH 333 0
DWIDTH 11 0
BBX 10 5 0 20
BITMAP
0C00
1E00
3F00
7380
E1C0
ENDCHAR
STARTCHAR caron
ENCODING 711
SWIDTH 333 0
DWIDTH 11 0
BBX 10 5 0 20
BITMAP
E1C0
7380
3F00
1E00
0C00
ENDCHAR
STARTCHAR uni02C8
ENCODING 712
SWIDTH 238 0
DWIDTH 8 0
BBX 4 9 2 16
BITMAP
F0
F0
F0
F0
F0
F0
F0
60
60
ENDCHAR
STARTCHAR macron
ENCODING 713
SWIDTH 333 0
DWIDTH 11 0
BBX 10 3 0 21
BITMAP
FFC0
FFC0
FFC0
ENDCHAR
STARTCHAR uni02CA
ENCODING 714
SWIDTH 333 0
DWIDTH 11 0
BBX 6 5 4 20
BITMAP
3C
78
70
E0
E0
ENDCHAR
STARTCHAR uni02CB
ENCODING 715
SWIDTH 333 0
DWIDTH 11 0
BBX 5 5 2 20
BITMAP
E0
F0
70
78
38
ENDCHAR
STARTCHAR uni02CD
ENCODING 717
SWIDTH 333 0
DWIDTH 11 0
BBX 10 3 0 -4
BITMAP
FFC0
FFC0
FFC0
ENDCHAR
STARTCHAR uni02CE
ENCODING 718
SWIDTH 333 0
DWIDTH 11 0
BBX 5 5 2 -6
BITMAP
E0
F0
70
78
38
ENDCHAR
STARTCHAR uni02CF
ENCODING 719
SWIDTH 333 0
DWIDTH 11 0
BBX 6 5 4 -6
BITMAP
3C
78
70
E0
E0
ENDCHAR
STARTCHAR breve
ENCODING 728
SWIDTH 333 0
DWIDTH 11 0
BBX 9 5 1 20
BITMAP
8080
C180
7F00
7F00
1C00
ENDCHAR
STARTCHAR dotaccent
ENCODING 729
SWIDTH 333 0
DWIDTH 11 0
BBX 4 4 3 21
BITMAP
F0
F0
F0
F0
ENDCHAR
STARTCHAR ring
ENCODING 730
SWIDTH 333 0
DWIDTH 11 0
BBX 5 6 3 19
BITMAP
70
D8
88
88
D8
70
ENDCHAR
STARTCHAR ogonek
ENCODING 731
SWIDTH 333 0
DWIDTH 11 0
BBX 7 8 1 -7
BITMAP
70
60
E0
E0
E0
FE
7E
3C
ENDCHAR
STARTCHAR tilde
ENCODING 732
SWIDTH 333 0
DWIDTH 11 0
BBX 11 4 0 20
BITMAP
3C60
7FE0
FFC0
C780
ENDCHAR
STARTCHAR hungarumlaut
ENCODING 733
SWIDTH 333 0
DWIDTH 11 0
BBX 11 5 -1 20
BITMAP
38E0
79E0
71C0
E380
C300
ENDCHAR
STARTCHAR uni02EE
ENCODING 750
SWIDTH 500 0
DWIDTH 16 0
BBX 12 8 2 17
BITMAP
F0F0
F0F0
F0F0
F0F0
3030
3030
6060
E0C0
ENDCHAR
STARTCHAR uni037E
ENCODING 894
SWIDTH 333 0
DWIDTH 11 0
BBX 5 23 3 -6
BITMAP
F8
F8
F8
F8
F8
00
00
00
00
00
00
00
F8
F8
F8
F8
F8
18
18
38
70
E0
80
ENDCHAR
STARTCHAR tonos
ENCODING 900
SWIDTH 333 0
DWIDTH 11 0
BBX 6 5 4 20
BITMAP
3C
78
70
E0
E0
ENDCHAR
STARTCHAR dieresistonos
ENCODING 901
SWIDTH 333 0
DWIDTH 11 0
BBX 10 10 0 21
BITMAP
0780
0F00
0E00
1C00
1C00
0000
F3C0
F3C0
F3C0
F3C0
ENDCHAR
STARTCHAR anoteleia
ENCODING 903
SWIDTH 278 0
DWIDTH 9 0
BBX 4 5 2 11
BITMAP
60
F0
F0
F0
60
ENDCHAR
STARTCHAR mu
ENCODING 956
SWIDTH 611 0
DWIDTH 20 0
BBX 15 25 2 -7
BITMAP
F01E
F01E
F01E
F01E
F01E
F01E
F01E
F01E
F01E
F01E
F01E
F01E
F83E
F87E
FFFE
FFFE
FFDE
F79E
F000
F000
F000
F000
F000
F000
F000
ENDCHAR
STARTCHAR uni1E00
ENCODING 7680
SWIDTH 722 0
DWIDTH 23 0
BBX 22 32 0 -7
BITMAP
00FC00
00FC00
01FE00
01FE00
01FE00
03FF00
03FF00
03FF00
07CF80
07CF80
07CF80
0F8780
0F87C0
0F87C0
1F03C0
1F03E0
1FFFE0
1FFFE0
3FFFF0
3FFFF0
3E01F0
7C00F8
7C00F8
FC00FC
F8007C
000000
003800
006C00
004400
004400
006C00
003800
ENDCHAR
STARTCHAR uni1E01
ENCODING 7681
SWIDTH 556 0
DWIDTH 18 0
BBX 15 25 1 -7
BITMAP
0FF0
3FFC
7FFC
7C3E
F81E
F81E
00FE
0FFE
3FFE
7F1E
F81E
F81E
F03E
F87E
FFFE
FFFE
7FDE
3F1E
0000
0380
06C0
0440
0440
06C0
0380
ENDCHAR
STARTCHAR uni1E02
ENCODING 7682
SWIDTH 722 0
DWIDTH 24 0
BBX 19 30 3 0
BITMAP
01E000
01E000
01E000
01E000
000000
FFFC00
FFFF00
FFFF80
FFFF80
F80FC0
F807C0
F807C0
F807C0
F807C0
F80F80
FFFF00
FFFF00
FFFF80
FFFFC0
F807C0
F803E0
F803E0
F803E0
F803E0
F803E0
F807E0
FFFFC0
FFFFC0
FFFF80
FFFE00
ENDCHAR
STARTCHAR uni1E03
ENCODING 7683
SWIDTH 611 0
DWIDTH 20 0
BBX 16 30 2 0
BITMAP
3C00
3C00
3C00
3C00
0000
F000
F000
F000
F000
F000
F000
F000
F3F0
F7FC
FFFC
FFFE
FC3E
F81F
F01F
F00F
F00F
F00F
F00F
F01F
F01F
F83E
FFFE
FFFC
F7F8
F1F0
ENDCHAR
STARTCHAR uni1E04
ENCODING 7684
SWIDTH 722 0
DWIDTH 24 0
BBX 19 30 3 -5
BITMAP
FFFC00
FFFF00
FFFF80
FFFF80
F80FC0
F807C0
F807C0
F807C0
F807C0
F80F80
FFFF00
FFFF00
FFFF80
FFFFC0
F807C0
F803E0
F803E0
F803E0
F803E0
F803E0
F807E0
FFFFC0
FFFFC0
FFFF80
FFFE00
000000
01E000
01E000
01E000
01E000
ENDCHAR
STARTCHAR uni1E05
ENCODING 7685
SWIDTH 611 0
DWIDTH 20 0
BBX 16 30 2 -5
BITMAP
F000
F000
F000
F000
F000
F000
F000
F3F0
F7FC
FFFC
FFFE
FC3E
F81F
F01F
F00F
F00F
F00F
F00F
F01F
F01F
F83E
FFFE
FFFC
F7F8
F1F0
0000
03C0
03C0
03C0
03C0
ENDCHAR
STARTCHAR uni1E06
ENCODING 7686
SWIDTH 722 0
DWIDTH 24 0
BBX 19 29 3 -4
BITMAP
FFFC00
FFFF00
FFFF80
FFFF80
F80FC0
F807C0
F807C0
F807C0
F807C0
F80F80
FFFF00
FFFF00
FFFF80
FFFFC0
F807C0
F803E0
F803E0
F803E0
F803E0
F803E0
F807E0
FFFFC0
FFFFC0
FFFF80
FFFE00
000000
0FFC00
0FFC00
0FFC00
ENDCHAR
STARTCHAR uni1E07
ENCODING 7687
SWIDTH 611 0
DWIDTH 20 0
BBX 16 29 2 -4
BITMAP
F000
F000
F000
F000
F000
F000
F000
F3F0
F7FC
FFFC
FFFE
FC3E
F81F
F01F
F00F
F00F
F00F
F00F
F01F
F01F
F83E
FFFE
FFFC
F7F8
F1F0
0000
1FF8
1FF8
1FF8
ENDCHAR
STARTCHAR uni1E08
ENCODING 7688
SWIDTH 722 0
DWIDTH 23 0
BBX 21 38 1 -7
BITMAP
001E00
003C00
003800
007000
007000
000000
01FE00
07FF80
0FFFC0
1FFFE0
3F87F0
3E01F0
7C01F0
7C00F8
7C00F8
F80000
F80000
F80000
F80000
F80000
F80000
F80000
7C00F8
7C00F8
7E01F8
3E01F0
3F87F0
1FFFE0
0FFFC0
07FF80
01FC00
006000
006000
00F800
001C00
001C00
01F800
01F000
ENDCHAR
STARTCHAR uni1E09
ENCODING 7689
SWIDTH 556 0
DWIDTH 18 0
BBX 15 31 1 -7
BITMAP
00F0
01E0
01C0
0380
0380
0000
07E0
1FF8
3FFC
3FFC
7C3E
781E
F81E
F000
F000
F000
F000
F81E
F81E
7C3E
7FFC
3FF8
1FF8
07E0
0300
0300
07C0
00E0
00E0
0FC0
0F80
ENDCHAR
STARTCHAR uni1E0A
ENCODING 7690
SWIDTH 722 0
DWIDTH 24 0
BBX 21 30 2 0
BITMAP
01E000
01E000
01E000
01E000
000000
FFF800
FFFF00
FFFF80
FFFFC0
F80FE0
F803E0
F803F0
F801F0
F801F8
F800F8
F800F8
F800F8
F800F8
F800F8
F800F8
F800F8
F801F8
F801F0
F803F0
F803E0
F80FE0
FFFFC0
FFFF80
FFFF00
FFF800
ENDCHAR
STARTCHAR uni1E0B
ENCODING 7691
SWIDTH 611 0
DWIDTH 20 0
BBX 16 30 1 0
BITMAP
003C
003C
003C
003C
0000
000F
000F
000F
000F
000F
000F
000F
0FCF
1FEF
3FFF
7FFF
7C3F
F81F
F00F
F00F
F00F
F00F
F00F
F00F
F81F
7C3F
7FFF
3FEF
1FEF
0F8F
ENDCHAR
STARTCHAR uni1E0C
ENCODING 7692
SWIDTH 722 0
DWIDTH 24 0
BBX 21 30 2 -5
BITMAP
FFF800
FFFF00
FFFF80
FFFFC0
F80FE0
F803E0
F803F0
F801F0
F801F8
F800F8
F800F8
F800F8
F800F8
F800F8
F800F8
F800F8
F801F8
F801F0
F803F0
F803E0
F80FE0
FFFFC0
FFFF80
FFFF00
FFF800
000000
01E000
01E000
01E000
01E000
ENDCHAR
STARTCHAR uni1E0D
ENCODING 7693
SWIDTH 611 0
DWIDTH 20 0
BBX 16 30 1 -5
BITMAP
000F
000F
000F
000F
000F
000F
000F
0FCF
1FEF
3FFF
7FFF
7C3F
F81F
F00F
F00F
F00F
F00F
F00F
F00F
F81F
7C3F
7FFF
3FEF
1FEF
0F8F
0000
03C0
03C0
03C0
03C0
ENDCHAR
STARTCHAR uni1E0E
ENCODING 7694
SWIDTH 722 0
DWIDTH 24 0
BBX 21 29 2 -4
BITMAP
FFF800
FFFF00
FFFF80
FFFFC0
F80FE0
F803E0
F803F0
F801F0
F801F8
F800F8
F800F8
F800F8
F800F8
F800F8
F800F8
F800F8
F801F8
F801F0
F803F0
F803E0
F80FE0
FFFFC0
FFFF80
FFFF00
FFF800
000000
0FFC00
0FFC00
0FFC00
ENDCHAR
STARTCHAR uni1E0F
ENCODING 7695
SWIDTH 611 0
DWIDTH 20 0
BBX 16 29 1 -4
BITMAP
000F
000F
000F
000F
000F
000F
000F
0FCF
1FEF
3FFF
7FFF
7C3F
F81F
F00F
F00F
F00F
F00F
F00F
F00F
F81F
7C3F
7FFF
3FEF
1FEF
0F8F
0000
1FF8
1FF8
1FF8
ENDCHAR
STARTCHAR uni1E10
ENCODING 7696
SWIDTH 722 0
DWIDTH 24 0
BBX 21 32 2 -7
BITMAP
FFF800
FFFF00
FFFF80
FFFFC0
F80FE0
F803E0
F803F0
F801F0
F801F8
F800F8
F800F8
F800F8
F800F8
F800F8
F800F8
F800F8
F801F8
F801F0
F803F0
F803E0
F80FE0
FFFFC0
FFFF80
FFFF00
FFF800
00C000
00C000
01F000
007800
003800
03F000
03E000
ENDCHAR
STARTCHAR uni1E11
ENCODING 7697
SWIDTH 611 0
DWIDTH 20 0
BBX 16 32 1 -7
BITMAP
000F
000F
000F
000F
000F
000F
000F
0FCF
1FEF
3FFF
7FFF
7C3F
F81F
F00F
F00F
F00F
F00F
F00F
F00F
F81F
7C3F
7FFF
3FEF
1FEF
0F8F
0180
0180
03E0
00F0
0070
07E0
07C0
ENDCHAR
STARTCHAR uni1E12
ENCODING 7698
SWIDTH 722 0
DWIDTH 24 0
BBX 21 31 2 -6
BITMAP
FFF800
FFFF00
FFFF80
FFFFC0
F80FE0
F803E0
F803F0
F801F0
F801F8
F800F8
F800F8
F800F8
F800F8
F800F8
F800F8
F800F8
F801F8
F801F0
F803F0
F803E0
F80FE0
FFFFC0
FFFF80
FFFF00
FFF800
000000
00C000
01E000
03F000
073800
0E1C00
ENDCHAR
STARTCHAR uni1E13
ENCODING 7699
SWIDTH 611 0
DWIDTH 20 0
BBX 16 31 1 -6
BITMAP
000F
000F
000F
000F
000F
000F
000F
0FCF
1FEF
3FFF
7FFF
7C3F
F81F
F00F
F00F
F00F
F00F
F00F
F00F
F81F
7C3F
7FFF
3FEF
1FEF
0F8F
0000
0180
03C0
07E0
0E70
1C38
ENDCHAR
STARTCHAR uni1E14
ENCODING 7700
SWIDTH 667 0
DWIDTH 22 0
BBX 18 35 2 0
BITMAP
038000
03C000
01C000
01E000
00E000
000000
1FF800
1FF800
1FF800
000000
FFFF80
FFFF80
FFFF80
FFFF80
F80000
F80000
F80000
F80000
F80000
F80000
FFFF00
FFFF00
FFFF00
FFFF00
F80000
F80000
F80000
F80000
F80000
F80000
F80000
FFFFC0
FFFFC0
FFFFC0
FFFFC0
ENDCHAR
STARTCHAR uni1E15
ENCODING 7701
SWIDTH 556 0
DWIDTH 18 0
BBX 16 28 1 0
BITMAP
0700
0780
0380
03C0
01C0
0000
1FF8
1FF8
1FF8
0000
07E0
1FF8
3FFC
7FFE
7C3E
F81F
F01F
FFFF
FFFF
FFFF
F000
F000
F81E
7C3E
7FFC
3FFC
1FF0
07C0
ENDCHAR
STARTCHAR uni1E16
ENCODING 7702
SWIDTH 667 0
DWIDTH 22 0
BBX 18 35 2 0
BITMAP
007800
00F000
00E000
01C000
01C000
000000
1FF800
1FF800
1FF800
000000
FFFF80
FFFF80
FFFF80
FFFF80
F80000
F80000
F80000
F80000
F80000
F80000
FFFF00
FFFF00
FFFF00
FFFF00
F80000
F80000
F80000
F80000
F80000
F80000
F80000
FFFFC0
FFFFC0
FFFFC0
FFFFC0
ENDCHAR
STARTCHAR uni1E17
ENCODING 7703
SWIDTH 556 0
DWIDTH 18 0
BBX 16 28 1 0
BITMAP
00F0
01E0
01C0
0380
0380
0000
1FF8
1FF8
1FF8
0000
07E0
1FF8
3FFC
7FFE
7C3E
F81F
F01F
FFFF
FFFF
FFFF
F000
F000
F81E
7C3E
7FFC
3FFC
1FF0
07C0
ENDCHAR
STARTCHAR uni1E18
ENCODING 7704
SWIDTH 667 0
DWIDTH 22 0
BBX 18 31 2 -6
BITMAP
FFFF80
FFFF80
FFFF80
FFFF80
F80000
F80000
F80000
F80000
F80000
F80000
FFFF00
FFFF00
FFFF00
FFFF00
F80000
F80000
F80000
F80000
F80000
F80000
F80000
FFFFC0
FFFFC0
FFFFC0
FFFFC0
000000
018000
03C000
07E000
0E7000
1C3800
ENDCHAR
STARTCHAR uni1E19
ENCODING 7705
SWIDTH 556 0
DWIDTH 18 0
BBX 16 24 1 -6
BITMAP
07E0
1FF8
3FFC
7FFE
7C3E
F81F
F01F
FFFF
FFFF
FFFF
F000
F000
F81E
7C3E
7FFC
3FFC
1FF0
07C0
0000
0180
03C0
07E0
0E70
1C38
ENDCHAR
STARTCHAR uni1E1A
ENCODING 7706
SWIDTH 667 0
DWIDTH 22 0
BBX 18 30 2 -5
BITMAP
FFFF80
FFFF80
FFFF80
FFFF80
F80000
F80000
F80000
F80000
F80000
F80000
FFFF00
FFFF00
FFFF00
FFFF00
F80000
F80000
F80000
F80000
F80000
F80000
F80000
FFFFC0
FFFFC0
FFFFC0
FFFFC0
000000
0F1800
1FF800
3FF000
31E000
ENDCHAR
STARTCHAR uni1E1B
ENCODING 7707
SWIDTH 556 0
DWIDTH 18 0
BBX 16 23 1 -5
BITMAP
07E0
1FF8
3FFC
7FFE
7C3E
F81F
F01F
FFFF
FFFF
FFFF
F000
F000
F81E
7C3E
7FFC
3FFC
1FF0
07C0
0000
0F18
1FF8
3FF0
31E0
ENDCHAR
STARTCHAR uni1E1C
ENCODING 7708
SWIDTH 667 0
DWIDTH 22 0
BBX 18 38 2 -7
BITMAP
101000
183000
0FE000
0FE000
038000
000000
FFFF80
FFFF80
FFFF80
FFFF80
F80000
F80000
F80000
F80000
F80000
F80000
FFFF00
FFFF00
FFFF00
FFFF00
F80000
F80000
F80000
F80000
F80000
F80000
F80000
FFFFC0
FFFFC0
FFFFC0
FFFFC0
018000
018000
03E000
00F000
007000
07E000
07C000
ENDCHAR
STARTCHAR uni1E1D
ENCODING 7709
SWIDTH 556 0
DWIDTH 18 0
BBX 16 31 1 -7
BITMAP
0808
0C18
07F0
07F0
01C0
0000
07E0
1FF8
3FFC
7FFE
7C3E
F81F
F01F
FFFF
FFFF
FFFF
F000
F000
F81E
7C3E
7FFC
3FFC
1FF0
07C0
0180
0180
03E0
00F0
0070
07E0
07C0
ENDCHAR
STARTCHAR uni1E1E
ENCODING 7710
SWIDTH 611 0
DWIDTH 20 0
BBX 16 30 2 0
BITMAP
0780
0780
0780
0780
0000
FFFF
FFFF
FFFF
FFFF
F800
F800
F800
F800
F800
F800
FFFE
FFFE
FFFE
FFFE
F800
F800
F800
F800
F800
F800
F800
F800
F800
F800
F800
ENDCHAR
STARTCHAR uni1E1F
ENCODING 7711
SWIDTH 333 0
DWIDTH 11 0
BBX 10 30 0 0
BITMAP
0F00
0F00
0F00
0F00
0000
07C0
0FC0
1FC0
1F00
1E00
1E00
1E00
FFC0
FFC0
FFC0
1E00
1E00
1E00
1E00
1E00
1E00
1E00
1E00
1E00
1E00
1E00
1E00
1E00
1E00
1E00
ENDCHAR
STARTCHAR uni1E20
ENCODING 7712
SWIDTH 778 0
DWIDTH 25 0
BBX 22 29 1 0
BITMAP
03FF00
03FF00
03FF00
000000
00FF00
03FFC0
0FFFE0
1FFFF0
1FC3F8
3F00F8
7E007C
7C007C
FC0000
F80000
F80000
F80000
F80FFC
F80FFC
F80FFC
F80FFC
FC007C
7C007C
7E007C
7E00FC
3F83FC
3FFFFC
1FFFDC
07FF9C
03FE1C
ENDCHAR
STARTCHAR uni1E21
ENCODING 7713
SWIDTH 611 0
DWIDTH 20 0
BBX 16 29 1 -7
BITMAP
0FFC
0FFC
0FFC
0000
0FCF
1FEF
3FFF
7FFF
7C3F
F81F
F81F
F00F
F00F
F00F
F00F
F81F
F81F
7C3F
7FFF
3FFF
1FEF
0FCF
000F
F81F
F81F
7E7E
7FFE
3FFC
0FF0
ENDCHAR
STARTCHAR uni1E22
ENCODING 7714
SWIDTH 722 0
DWIDTH 23 0
BBX 19 30 2 0
BITMAP
00F000
00F000
00F000
00F000
000000
F803E0
F803E0
F803E0
F803E0
F803E0
F803E0
F803E0
F803E0
F803E0
F803E0
FFFFE0
FFFFE0
FFFFE0
FFFFE0
F803E0
F803E0
F803E0
F803E0
F803E0
F803E0
F803E0
F803E0
F803E0
F803E0
F803E0
ENDCHAR
STARTCHAR uni1E23
ENCODING 7715
SWIDTH 611 0
DWIDTH 20 0
BBX 15 30 2 0
BITMAP
3C00
3C00
3C00
3C00
0000
F000
F000
F000
F000
F000
F000
F000
F1E0
F7F8
FFFC
FFFC
FC3E
F81E
F81E
F01E
F01E
F01E
F01E
F01E
F01E
F01E
F01E
F01E
F01E
F01E
ENDCHAR
STARTCHAR uni1E24
ENCODING 7716
SWIDTH 722 0
DWIDTH 23 0
BBX 19 30 2 -5
BITMAP
F803E0
F803E0
F803E0
F803E0
F803E0
F803E0
F803E0
F803E0
F803E0
F803E0
FFFFE0
FFFFE0
FFFFE0
FFFFE0
F803E0
F803E0
F803E0
F803E0
F803E0
F803E0
F803E0
F803E0
F803E0
F803E0
F803E0
000000
00F000
00F000
00F000
00F000
ENDCHAR
STARTCHAR uni1E25
ENCODING 7717
SWIDTH 611 0
DWIDTH 20 0
BBX 15 30 2 -5
BITMAP
F000
F000
F000
F000
F000
F000
F000
F1E0
F7F8
FFFC
FFFC
FC3E
F81E
F81E
F01E
F01E
F01E
F01E
F01E
F01E
F01E
F01E
F01E
F01E
F01E
0000
03C0
03C0
03C0
03C0
ENDCHAR
STARTCHAR uni1E26
ENCODING 7718
SWIDTH 722 0
DWIDTH 23 0
BBX 19 30 2 0
BITMAP
079E00
079E00
079E00
079E00
000000
F803E0
F803E0
F803E0
F803E0
F803E0
F803E0
F803E0
F803E0
F803E0
F803E0
FFFFE0
FFFFE0
FFFFE0
FFFFE0
F803E0
F803E0
F803E0
F803E0
F803E0
F803E0
F803E0
F803E0
F803E0
F803E0
F803E0
ENDCHAR
STARTCHAR uni1E27
ENCODING 7719
SWIDTH 611 0
DWIDTH 20 0
BBX 16 30 1 0
BITMAP
F3C0
F3C0
F3C0
F3C0
0000
7800
7800
7800
7800
7800
7800
7800
78F0
7BFC
7FFE
7FFE
7E1F
7C0F
7C0F
780F
780F
780F
780F
780F
780F
780F
780F
780F
780F
780F
ENDCHAR
STARTCHAR uni1E28
ENCODING 7720
SWIDTH 722 0
DWIDTH 23 0
BBX 19 32 2 -7
BITMAP
F803E0
F803E0
F803E0
F803E0
F803E0
F803E0
F803E0
F803E0
F803E0
F803E0
FFFFE0
FFFFE0
FFFFE0
FFFFE0
F803E0
F803E0
F803E0
F803E0
F803E0
F803E0
F803E0
F803E0
F803E0
F803E0
F8C3E0
00C000
00C000
01F000
007800
003800
03F000
03E000
ENDCHAR
STARTCHAR uni1E29
ENCODING 7721
SWIDTH 611 0
DWIDTH 20 0
BBX 15 32 2 -7
BITMAP
F000
F000
F000
F000
F000
F000
F000
F1E0
F7F8
FFFC
FFFC
FC3E
F81E
F81E
F01E
F01E
F01E
F01E
F01E
F01E
F01E
F01E
F01E
F01E
F31E
0300
0300
07C0
01E0
00E0
0FC0
0F80
ENDCHAR
STARTCHAR uni1E2A
ENCODING 7722
SWIDTH 722 0
DWIDTH 23 0
BBX 19 31 2 -6
BITMAP
F803E0
F803E0
F803E0
F803E0
F803E0
F803E0
F803E0
F803E0
F803E0
F803E0
FFFFE0
FFFFE0
FFFFE0
FFFFE0
F803E0
F803E0
F803E0
F803E0
F803E0
F803E0
F803E0
F803E0
F803E0
F803E0
F803E0
000000
040400
060C00
03F800
03F800
00E000
ENDCHAR
STARTCHAR uni1E2B
ENCODING 7723
SWIDTH 611 0
DWIDTH 20 0
BBX 15 31 2 -6
BITMAP
F000
F000
F000
F000
F000
F000
F000
F1E0
F7F8
FFFC
FFFC
FC3E
F81E
F81E
F01E
F01E
F01E
F01E
F01E
F01E
F01E
F01E
F01E
F01E
F01E
0000
1010
1830
0FE0
0FE0
0380
ENDCHAR
STARTCHAR uni1E2C
ENCODING 7724
SWIDTH 278 0
DWIDTH 9 0
BBX 11 30 -1 -5
BITMAP
1F00
1F00
1F00
1F00
1F00
1F00
1F00
1F00
1F00
1F00
1F00
1F00
1F00
1F00
1F00
1F00
1F00
1F00
1F00
1F00
1F00
1F00
1F00
1F00
1F00
0000
3C60
7FE0
FFC0
C780
ENDCHAR
STARTCHAR uni1E2D
ENCODING 7725
SWIDTH 278 0
DWIDTH 9 0
BBX 11 30 -2 -5
BITMAP
0F00
0F00
0F00
0F00
0000
0000
0F00
0F00
0F00
0F00
0F00
0F00
0F00
0F00
0F00
0F00
0F00
0F00
0F00
0F00
0F00
0F00
0F00
0F00
0F00
0000
3C60
7FE0
FFC0
C780
ENDCHAR
STARTCHAR uni1E2E
ENCODING 7726
SWIDTH 278 0
DWIDTH 9 0
BBX 10 37 0 0
BITMAP
0780
0F00
0E00
1C00
1C00
0000
F3C0
F3C0
F3C0
F3C0
0000
0000
3E00
3E00
3E00
3E00
3E00
3E00
3E00
3E00
3E00
3E00
3E00
3E00
3E00
3E00
3E00
3E00
3E00
3E00
3E00
3E00
3E00
3E00
3E00
3E00
3E00
ENDCHAR
STARTCHAR uni1E2F
ENCODING 7727
SWIDTH 278 0
DWIDTH 9 0
BBX 10 30 -1 0
BITMAP
0780
0F00
0E00
1C00
1C00
0000
F3C0
F3C0
F3C0
F3C0
0000
0000
1E00
1E00
1E00
1E00
1E00
1E00
1E00
1E00
1E00
1E00
1E00
1E00
1E00
1E00
1E00
1E00
1E00
1E00
ENDCHAR
STARTCHAR uni1E30
ENCODING 7728
SWIDTH 722 0
DWIDTH 24 0
BBX 20 31 2 0
BITMAP
007800
00F000
00E000
01C000
01C000
000000
F807E0
F807E0
F80FC0
F81F80
F83F00
F87E00
F8FC00
F8F800
F9F800
FBF000
FFE000
FFE000
FFF000
FFF000
FFF800
FCFC00
F87E00
F87E00
F83F00
F81F80
F80F80
F80FC0
F807E0
F803F0
F803F0
ENDCHAR
STARTCHAR uni1E31
ENCODING 7729
SWIDTH 556 0
DWIDTH 19 0
BBX 15 31 2 0
BITMAP
0F00
1E00
1C00
3800
3800
0000
F000
F000
F000
F000
F000
F000
F000
F03E
F07C
F0F8
F1F0
F3E0
F7C0
FF80
FFC0
FFC0
FFE0
FFE0
F9F0
F1F0
F0F8
F078
F07C
F03E
F03E
ENDCHAR
STARTCHAR uni1E32
ENCODING 7730
SWIDTH 722 0
DWIDTH 24 0
BBX 20 30 2 -5
BITMAP
F807E0
F807E0
F80FC0
F81F80
F83F00
F87E00
F8FC00
F8F800
F9F800
FBF000
FFE000
FFE000
FFF000
FFF000
FFF800
FCFC00
F87E00
F87E00
F83F00
F81F80
F80F80
F80FC0
F807E0
F803F0
F803F0
000000
00F000
00F000
00F000
00F000
ENDCHAR
STARTCHAR uni1E33
ENCODING 7731
SWIDTH 556 0
DWIDTH 19 0
BBX 15 30 2 -5
BITMAP
F000
F000
F000
F000
F000
F000
F000
F03E
F07C
F0F8
F1F0
F3E0
F7C0
FF80
FFC0
FFC0
FFE0
FFE0
F9F0
F1F0
F0F8
F078
F07C
F03E
F03E
0000
0780
0780
0780
0780
ENDCHAR
STARTCHAR uni1E34
ENCODING 7732
SWIDTH 722 0
DWIDTH 24 0
BBX 20 29 2 -4
BITMAP
F807E0
F807E0
F80FC0
F81F80
F83F00
F87E00
F8FC00
F8F800
F9F800
FBF000
FFE000
FFE000
FFF000
FFF000
FFF800
FCFC00
F87E00
F87E00
F83F00
F81F80
F80F80
F80FC0
F807E0
F803F0
F803F0
000000
07FE00
07FE00
07FE00
ENDCHAR
STARTCHAR uni1E35
ENCODING 7733
SWIDTH 556 0
DWIDTH 19 0
BBX 15 29 2 -4
BITMAP
F000
F000
F000
F000
F000
F000
F000
F03E
F07C
F0F8
F1F0
F3E0
F7C0
FF80
FFC0
FFC0
FFE0
FFE0
F9F0
F1F0
F0F8
F078
F07C
F03E
F03E
0000
3FF0
3FF0
3FF0
ENDCHAR
STARTCHAR uni1E36
ENCODING 7734
SWIDTH 611 0
DWIDTH 20 0
BBX 16 30 2 -5
BITMAP
F800
F800
F800
F800
F800
F800
F800
F800
F800
F800
F800
F800
F800
F800
F800
F800
F800
F800
F800
F800
F800
FFFF
FFFF
FFFF
FFFF
0000
0780
0780
0780
0780
ENDCHAR
STARTCHAR uni1E37
ENCODING 7735
SWIDTH 278 0
DWIDTH 9 0
BBX 4 30 2 -5
BITMAP
F0
F0
F0
F0
F0
F0
F0
F0
F0
F0
F0
F0
F0
F0
F0
F0
F0
F0
F0
F0
F0
F0
F0
F0
F0
00
F0
F0
F0
F0
ENDCHAR
STARTCHAR uni1E38
ENCODING 7736
SWIDTH 611 0
DWIDTH 20 0
BBX 17 34 1 -5
BITMAP
FFC000
FFC000
FFC000
000000
7C0000
7C0000
7C0000
7C0000
7C0000
7C0000
7C0000
7C0000
7C0000
7C0000
7C0000
7C0000
7C0000
7C0000
7C0000
7C0000
7C0000
7C0000
7C0000
7C0000
7C0000
7FFF80
7FFF80
7FFF80
7FFF80
000000
03C000
03C000
03C000
03C000
ENDCHAR
STARTCHAR uni1E39
ENCODING 7737
SWIDTH 278 0
DWIDTH 9 0
BBX 10 34 -1 -5
BITMAP
FFC0
FFC0
FFC0
0000
1E00
1E00
1E00
1E00
1E00
1E00
1E00
1E00
1E00
1E00
1E00
1E00
1E00
1E00
1E00
1E00
1E00
1E00
1E00
1E00
1E00
1E00
1E00
1E00
1E00
0000
1E00
1E00
1E00
1E00
ENDCHAR
STARTCHAR uni1E3A
ENCODING 7738
SWIDTH 611 0
DWIDTH 20 0
BBX 16 29 2 -4
BITMAP
F800
F800
F800
F800
F800
F800
F800
F800
F800
F800
F800
F800
F800
F800
F800
F800
F800
F800
F800
F800
F800
FFFF
FFFF
FFFF
FFFF
0000
3FF0
3FF0
3FF0
ENDCHAR
STARTCHAR uni1E3B
ENCODING 7739
SWIDTH 278 0
DWIDTH 9 0
BBX 10 29 -1 -4
BITMAP
1E00
1E00
1E00
1E00
1E00
1E00
1E00
1E00
1E00
1E00
1E00
1E00
1E00
1E00
1E00
1E00
1E00
1E00
1E00
1E00
1E00
1E00
1E00
1E00
1E00
0000
FFC0
FFC0
FFC0
ENDCHAR
STARTCHAR uni1E3C
ENCODING 7740
SWIDTH 611 0
DWIDTH 20 0
BBX 16 31 2 -6
BITMAP
F800
F800
F800
F800
F800
F800
F800
F800
F800
F800
F800
F800
F800
F800
F800
F800
F800
F800
F800
F800
F800
FFFF
FFFF
FFFF
FFFF
0000
0300
0780
0FC0
1CE0
3870
ENDCHAR
STARTCHAR uni1E3D
ENCODING 7741
SWIDTH 278 0
DWIDTH 9 0
BBX 10 31 -1 -6
BITMAP
1E00
1E00
1E00
1E00
1E00
1E00
1E00
1E00
1E00
1E00
1E00
1E00
1E00
1E00
1E00
1E00
1E00
1E00
1E00
1E00
1E00
1E00
1E00
1E00
1E00
0000
0C00
1E00
3F00
7380
E1C0
ENDCHAR
STARTCHAR uni1E3E
ENCODING 7742
SWIDTH 833 0
DWIDTH 27 0
BBX 23 31 2 0
BITMAP
000F00
001E00
001C00
003800
003800
000000
FE00FE
FE00FE
FF01FE
FF01FE
FF01FE
FF01FE
FF83FE
FF83FE
FB83BE
FB83BE
FBC7BE
FBC7BE
FBC7BE
F9C73E
F9EF3E
F9EF3E
F9EF3E
F9EF3E
F8EE3E
F8FE3E
F8FE3E
F8FE3E
F87C3E
F87C3E
F87C3E
ENDCHAR
STARTCHAR uni1E3F
ENCODING 7743
SWIDTH 889 0
DWIDTH 30 0
BBX 24 24 2 0
BITMAP
000F00
001E00
001C00
003800
003800
000000
F1E0F8
F7FBFE
FFFFFE
FFFFFF
FC7F1F
F83E0F
F03C0F
F03C0F
F03C0F
F03C0F
F03C0F
F03C0F
F03C0F
F03C0F
F03C0F
F03C0F
F03C0F
F03C0F
ENDCHAR
STARTCHAR uni1E40
ENCODING 7744
SWIDTH 833 0
DWIDTH 27 0
BBX 23 30 2 0
BITMAP
003C00
003C00
003C00
003C00
000000
FE00FE
FE00FE
FF01FE
FF01FE
FF01FE
FF01FE
FF83FE
FF83FE
FB83BE
FB83BE
FBC7BE
FBC7BE
FBC7BE
F9C73E
F9EF3E
F9EF3E
F9EF3E
F9EF3E
F8EE3E
F8FE3E
F8FE3E
F8FE3E
F87C3E
F87C3E
F87C3E
ENDCHAR
STARTCHAR uni1E41
ENCODING 7745
SWIDTH 889 0
DWIDTH 30 0
BBX 24 23 2 0
BITMAP
003C00
003C00
003C00
003C00
000000
F1E0F8
F7FBFE
FFFFFE
FFFFFF
FC7F1F
F83E0F
F03C0F
F03C0F
F03C0F
F03C0F
F03C0F
F03C0F
F03C0F
F03C0F
F03C0F
F03C0F
F03C0F
F03C0F
ENDCHAR
STARTCHAR uni1E42
ENCODING 7746
SWIDTH 833 0
DWIDTH 27 0
BBX 23 30 2 -5
BITMAP
FE00FE
FE00FE
FF01FE
FF01FE
FF01FE
FF01FE
FF83FE
FF83FE
FB83BE
FB83BE
FBC7BE
FBC7BE
FBC7BE
F9C73E
F9EF3E
F9EF3E
F9EF3E
F9EF3E
F8EE3E
F8FE3E
F8FE3E
F8FE3E
F87C3E
F87C3E
F87C3E
000000
003C00
003C00
003C00
003C00
ENDCHAR
STARTCHAR uni1E43
ENCODING 7747
SWIDTH 889 0
DWIDTH 30 0
BBX 24 23 2 -5
BITMAP
F1E0F8
F7FBFE
FFFFFE
FFFFFF
FC7F1F
F83E0F
F03C0F
F03C0F
F03C0F
F03C0F
F03C0F
F03C0F
F03C0F
F03C0F
F03C0F
F03C0F
F03C0F
F03C0F
000000
003C00
003C00
003C00
003C00
ENDCHAR
STARTCHAR uni1E44
ENCODING 7748
SWIDTH 722 0
DWIDTH 24 0
BBX 19 30 2 0
BITMAP
01E000
01E000
01E000
01E000
000000
F803E0
FC03E0
FC03E0
FE03E0
FE03E0
FF03E0
FF03E0
FF83E0
FFC3E0
FBC3E0
FBE3E0
F9E3E0
F9F3E0
F8F3E0
F8FBE0
F87BE0
F83FE0
F83FE0
F81FE0
F81FE0
F80FE0
F80FE0
F807E0
F807E0
F803E0
ENDCHAR
STARTCHAR uni1E45
ENCODING 7749
SWIDTH 611 0
DWIDTH 20 0
BBX 15 23 2 0
BITMAP
0780
0780
0780
0780
0000
F1F0
F7FC
FFFC
FFFE
FC3E
F81E
F01E
F01E
F01E
F01E
F01E
F01E
F01E
F01E
F01E
F01E
F01E
F01E
ENDCHAR
STARTCHAR uni1E46
ENCODING 7750
SWIDTH 722 0
DWIDTH 24 0
BBX 19 30 2 -5
BITMAP
F803E0
FC03E0
FC03E0
FE03E0
FE03E0
FF03E0
FF03E0
FF83E0
FFC3E0
FBC3E0
FBE3E0
F9E3E0
F9F3E0
F8F3E0
F8FBE0
F87BE0
F83FE0
F83FE0
F81FE0
F81FE0
F80FE0
F80FE0
F807E0
F807E0
F803E0
000000
00F000
00F000
00F000
00F000
ENDCHAR
STARTCHAR uni1E47
ENCODING 7751
SWIDTH 611 0
DWIDTH 20 0
BBX 15 23 2 -5
BITMAP
F1F0
F7FC
FFFC
FFFE
FC3E
F81E
F01E
F01E
F01E
F01E
F01E
F01E
F01E
F01E
F01E
F01E
F01E
F01E
0000
03C0
03C0
03C0
03C0
ENDCHAR
STARTCHAR uni1E48
ENCODING 7752
SWIDTH 722 0
DWIDTH 24 0
BBX 19 29 2 -4
BITMAP
F803E0
FC03E0
FC03E0
FE03E0
FE03E0
FF03E0
FF03E0
FF83E0
FFC3E0
FBC3E0
FBE3E0
F9E3E0
F9F3E0
F8F3E0
F8FBE0
F87BE0
F83FE0
F83FE0
F81FE0
F81FE0
F80FE0
F80FE0
F807E0
F807E0
F803E0
000000
07FE00
07FE00
07FE00
ENDCHAR
STARTCHAR uni1E49
ENCODING 7753
SWIDTH 611 0
DWIDTH 20 0
BBX 15 22 2 -4
BITMAP
F1F0
F7FC
FFFC
FFFE
FC3E
F81E
F01E
F01E
F01E
F01E
F01E
F01E
F01E
F01E
F01E
F01E
F01E
F01E
0000
1FF8
1FF8
1FF8
ENDCHAR
STARTCHAR uni1E4A
ENCODING 7754
SWIDTH 722 0
DWIDTH 24 0
BBX 19 31 2 -6
BITMAP
F803E0
FC03E0
FC03E0
FE03E0
FE03E0
FF03E0
FF03E0
FF83E0
FFC3E0
FBC3E0
FBE3E0
F9E3E0
F9F3E0
F8F3E0
F8FBE0
F87BE0
F83FE0
F83FE0
F81FE0
F81FE0
F80FE0
F80FE0
F807E0
F807E0
F803E0
000000
006000
00F000
01F800
039C00
070E00
ENDCHAR
STARTCHAR uni1E4B
ENCODING 7755
SWIDTH 611 0
DWIDTH 20 0
BBX 15 24 2 -6
BITMAP
F1F0
F7FC
FFFC
FFFE
FC3E
F81E
F01E
F01E
F01E
F01E
F01E
F01E
F01E
F01E
F01E
F01E
F01E
F01E
0000
0180
03C0
07E0
0E70
1C38
ENDCHAR
STARTCHAR uni1E4C
ENCODING 7756
SWIDTH 778 0
DWIDTH 25 0
BBX 23 36 1 0
BITMAP
000F00
001E00
001C00
003800
003800
000000
0078C0
00FFC0
01FF80
018F00
000000
01FF00
07FFC0
0FFFE0
1FFFF0
3FC7F8
3F01F8
7E00FC
7C007C
7C007C
F8003E
F8003E
F8003E
F8003E
F8003E
F8003E
F8003E
7C007C
7C007C
7E00FC
3F01F8
3FC7F8
1FFFF0
0FFFE0
07FFC0
01FF00
ENDCHAR
STARTCHAR uni1E4D
ENCODING 7757
SWIDTH 611 0
DWIDTH 20 0
BBX 17 30 1 0
BITMAP
007800
00F000
00E000
01C000
01C000
000000
078C00
0FFC00
1FF800
18F000
000000
000000
07F000
1FFC00
3FFE00
7FFF00
7C1F00
F80F80
F80F80
F00780
F00780
F00780
F00780
F80F80
F80F80
7C1F00
7FFF00
3FFE00
1FFC00
07F000
ENDCHAR
STARTCHAR uni1E4E
ENCODING 7758
SWIDTH 778 0
DWIDTH 25 0
BBX 23 35 1 0
BITMAP
01E780
01E780
01E780
01E780
000000
0078C0
00FFC0
01FF80
018F00
000000
01FF00
07FFC0
0FFFE0
1FFFF0
3FC7F8
3F01F8
7E00FC
7C007C
7C007C
F8003E
F8003E
F8003E
F8003E
F8003E
F8003E
F8003E
7C007C
7C007C
7E00FC
3F01F8
3FC7F8
1FFFF0
0FFFE0
07FFC0
01FF00
ENDCHAR
STARTCHAR uni1E4F
ENCODING 7759
SWIDTH 611 0
DWIDTH 20 0
BBX 17 29 1 0
BITMAP
0F3C00
0F3C00
0F3C00
0F3C00
000000
078C00
0FFC00
1FF800
18F000
000000
000000
07F000
1FFC00
3FFE00
7FFF00
7C1F00
F80F80
F80F80
F00780
F00780
F00780
F00780
F80F80
F80F80
7C1F00
7FFF00
3FFE00
1FFC00
07F000
ENDCHAR
STARTCHAR uni1E50
ENCODING 7760
SWIDTH 778 0
DWIDTH 25 0
BBX 23 35 1 0
BITMAP
007000
007800
003800
003C00
001C00
000000
01FF80
01FF80
01FF80
000000
01FF00
07FFC0
0FFFE0
1FFFF0
3FC7F8
3F01F8
7E00FC
7C007C
7C007C
F8003E
F8003E
F8003E
F8003E
F8003E
F8003E
F8003E
7C007C
7C007C
7E00FC
3F01F8
3FC7F8
1FFFF0
0FFFE0
07FFC0
01FF00
ENDCHAR
STARTCHAR uni1E51
ENCODING 7761
SWIDTH 611 0
DWIDTH 20 0
BBX 17 28 1 0
BITMAP
038000
03C000
01C000
01E000
00E000
000000
0FFC00
0FFC00
0FFC00
000000
07F000
1FFC00
3FFE00
7FFF00
7C1F00
F80F80
F80F80
F00780
F00780
F00780
F00780
F80F80
F80F80
7C1F00
7FFF00
3FFE00
1FFC00
07F000
ENDCHAR
STARTCHAR uni1E52
ENCODING 7762
SWIDTH 778 0
DWIDTH 25 0
BBX 23 35 1 0
BITMAP
000F00
001E00
001C00
003800
003800
000000
01FF80
01FF80
01FF80
000000
01FF00
07FFC0
0FFFE0
1FFFF0
3FC7F8
3F01F8
7E00FC
7C007C
7C007C
F8003E
F8003E
F8003E
F8003E
F8003E
F8003E
F8003E
7C007C
7C007C
7E00FC
3F01F8
3FC7F8
1FFFF0
0FFFE0
07FFC0
01FF00
ENDCHAR
STARTCHAR uni1E53
ENCODING 7763
SWIDTH 611 0
DWIDTH 20 0
BBX 17 28 1 0
BITMAP
007800
00F000
00E000
01C000
01C000
000000
0FFC00
0FFC00
0FFC00
000000
07F000
1FFC00
3FFE00
7FFF00
7C1F00
F80F80
F80F80
F00780
F00780
F00780
F00780
F80F80
F80F80
7C1F00
7FFF00
3FFE00
1FFC00
07F000
ENDCHAR
STARTCHAR uni1E54
ENCODING 7764
SWIDTH 667 0
DWIDTH 22 0
BBX 18 31 2 0
BITMAP
00F000
01E000
01C000
038000
038000
000000
FFF800
FFFE00
FFFF00
FFFF80
F81F80
F80FC0
F807C0
F807C0
F807C0
F807C0
F80FC0
F81F80
FFFF80
FFFF00
FFFC00
FFF000
F80000
F80000
F80000
F80000
F80000
F80000
F80000
F80000
F80000
ENDCHAR
STARTCHAR uni1E55
ENCODING 7765
SWIDTH 611 0
DWIDTH 20 0
BBX 16 31 2 -7
BITMAP
01E0
03C0
0380
0700
0700
0000
F1F0
F7F8
FFFC
FFFE
FC3E
F81F
F81F
F00F
F00F
F00F
F00F
F81F
F81F
FC3E
FFFE
FFFC
F7F8
F1F0
F000
F000
F000
F000
F000
F000
F000
ENDCHAR
STARTCHAR uni1E56
ENCODING 7766
SWIDTH 667 0
DWIDTH 22 0
BBX 18 30 2 0
BITMAP
03C000
03C000
03C000
03C000
000000
FFF800
FFFE00
FFFF00
FFFF80
F81F80
F80FC0
F807C0
F807C0
F807C0
F807C0
F80FC0
F81F80
FFFF80
FFFF00
FFFC00
FFF000
F80000
F80000
F80000
F80000
F80000
F80000
F80000
F80000
F80000
ENDCHAR
STARTCHAR uni1E57
ENCODING 7767
SWIDTH 611 0
DWIDTH 20 0
BBX 16 30 2 -7
BITMAP
0780
0780
0780
0780
0000
F1F0
F7F8
FFFC
FFFE
FC3E
F81F
F81F
F00F
F00F
F00F
F00F
F81F
F81F
FC3E
FFFE
FFFC
F7F8
F1F0
F000
F000
F000
F000
F000
F000
F000
ENDCHAR
STARTCHAR uni1E58
ENCODING 7768
SWIDTH 722 0
DWIDTH 24 0
BBX 19 30 2 0
BITMAP
01E000
01E000
01E000
01E000
000000
FFFE00
FFFF80
FFFFC0
FFFFC0
F807E0
F803E0
F803E0
F803E0
F803E0
F807C0
F80FC0
FFFF80
FFFF00
FFFF00
FFFF80
F80FC0
F807C0
F807C0
F807C0
F807C0
F807C0
F807C0
F807C0
F807E0
F803E0
ENDCHAR
STARTCHAR uni1E59
ENCODING 7769
SWIDTH 389 0
DWIDTH 13 0
BBX 10 23 2 0
BITMAP
1E00
1E00
1E00
1E00
0000
F0C0
F3C0
F7C0
FFC0
FFC0
FC00
F800
F800
F000
F000
F000
F000
F000
F000
F000
F000
F000
F000
ENDCHAR
STARTCHAR uni1E5A
ENCODING 7770
SWIDTH 722 0
DWIDTH 24 0
BBX 19 30 2 -5
BITMAP
FFFE00
FFFF80
FFFFC0
FFFFC0
F807E0
F803E0
F803E0
F803E0
F803E0
F807C0
F80FC0
FFFF80
FFFF00
FFFF00
FFFF80
F80FC0
F807C0
F807C0
F807C0
F807C0
F807C0
F807C0
F807C0
F807E0
F803E0
000000
01E000
01E000
01E000
01E000
ENDCHAR
STARTCHAR uni1E5B
ENCODING 7771
SWIDTH 389 0
DWIDTH 13 0
BBX 10 23 2 -5
BITMAP
F0C0
F3C0
F7C0
FFC0
FFC0
FC00
F800
F800
F000
F000
F000
F000
F000
F000
F000
F000
F000
F000
0000
7800
7800
7800
7800
ENDCHAR
STARTCHAR uni1E5C
ENCODING 7772
SWIDTH 722 0
DWIDTH 24 0
BBX 19 34 2 -5
BITMAP
0FFC00
0FFC00
0FFC00
000000
FFFE00
FFFF80
FFFFC0
FFFFC0
F807E0
F803E0
F803E0
F803E0
F803E0
F807C0
F80FC0
FFFF80
FFFF00
FFFF00
FFFF80
F80FC0
F807C0
F807C0
F807C0
F807C0
F807C0
F807C0
F807C0
F807E0
F803E0
000000
01E000
01E000
01E000
01E000
ENDCHAR
STARTCHAR uni1E5D
ENCODING 7773
SWIDTH 389 0
DWIDTH 13 0
BBX 10 27 2 -5
BITMAP
FFC0
FFC0
FFC0
0000
F0C0
F3C0
F7C0
FFC0
FFC0
FC00
F800
F800
F000
F000
F000
F000
F000
F000
F000
F000
F000
F000
0000
7800
7800
7800
7800
ENDCHAR
STARTCHAR uni1E5E
ENCODING 7774
SWIDTH 722 0
DWIDTH 24 0
BBX 19 29 2 -4
BITMAP
FFFE00
FFFF80
FFFFC0
FFFFC0
F807E0
F803E0
F803E0
F803E0
F803E0
F807C0
F80FC0
FFFF80
FFFF00
FFFF00
FFFF80
F80FC0
F807C0
F807C0
F807C0
F807C0
F807C0
F807C0
F807C0
F807E0
F803E0
000000
0FFC00
0FFC00
0FFC00
ENDCHAR
STARTCHAR uni1E5F
ENCODING 7775
SWIDTH 389 0
DWIDTH 13 0
BBX 12 22 0 -4
BITMAP
3C30
3CF0
3DF0
3FF0
3FF0
3F00
3E00
3E00
3C00
3C00
3C00
3C00
3C00
3C00
3C00
3C00
3C00
3C00
0000
FFC0
FFC0
FFC0
ENDCHAR
STARTCHAR uni1E60
ENCODING 7776
SWIDTH 667 0
DWIDTH 22 0
BBX 19 30 1 0
BITMAP
00F000
00F000
00F000
00F000
000000
03F800
0FFE00
1FFF00
3FFF80
3E1F80
7C07C0
7807C0
7803C0
7C0000
7F0000
3FF000
3FFE00
1FFF80
03FFC0
003FC0
0007E0
0003E0
F803E0
F803E0
7C03E0
7E0FC0
3FFFC0
1FFF80
0FFF00
03F800
ENDCHAR
STARTCHAR uni1E61
ENCODING 7777
SWIDTH 556 0
DWIDTH 19 0
BBX 16 23 1 0
BITMAP
03C0
03C0
03C0
03C0
0000
07F0
1FFC
3FFE
7C3E
781F
781F
7C00
7FC0
3FF8
0FFE
03FF
003F
F80F
F80F
7C1F
7FFE
3FFC
0FF0
ENDCHAR
STARTCHAR uni1E62
ENCODING 7778
SWIDTH 667 0
DWIDTH 22 0
BBX 19 30 1 -5
BITMAP
03F800
0FFE00
1FFF00
3FFF80
3E1F80
7C07C0
7807C0
7803C0
7C0000
7F0000
3FF000
3FFE00
1FFF80
03FFC0
003FC0
0007E0
0003E0
F803E0
F803E0
7C03E0
7E0FC0
3FFFC0
1FFF80
0FFF00
03F800
000000
00F000
00F000
00F000
00F000
ENDCHAR
STARTCHAR uni1E63
ENCODING 7779
SWIDTH 556 0
DWIDTH 19 0
BBX 16 23 1 -5
BITMAP
07F0
1FFC
3FFE
7C3E
781F
781F
7C00
7FC0
3FF8
0FFE
03FF
003F
F80F
F80F
7C1F
7FFE
3FFC
0FF0
0000
03C0
03C0
03C0
03C0
ENDCHAR
STARTCHAR uni1E64
ENCODING 7780
SWIDTH 667 0
DWIDTH 22 0
BBX 19 36 1 0
BITMAP
00F000
00F000
00F000
00F000
000000
003C00
007800
007000
00E000
00E000
000000
03F800
0FFE00
1FFF00
3FFF80
3E1F80
7C07C0
7807C0
7803C0
7C0000
7F0000
3FF000
3FFE00
1FFF80
03FFC0
003FC0
0007E0
0003E0
F803E0
F803E0
7C03E0
7E0FC0
3FFFC0
1FFF80
0FFF00
03F800
ENDCHAR
STARTCHAR uni1E65
ENCODING 7781
SWIDTH 556 0
DWIDTH 19 0
BBX 16 29 1 0
BITMAP
03C0
03C0
03C0
03C0
0000
00F0
01E0
01C0
0380
0380
0000
07F0
1FFC
3FFE
7C3E
781F
781F
7C00
7FC0
3FF8
0FFE
03FF
003F
F80F
F80F
7C1F
7FFE
3FFC
0FF0
ENDCHAR
STARTCHAR uni1E66
ENCODING 7782
SWIDTH 667 0
DWIDTH 22 0
BBX 18 32 2 0
BITMAP
03C000
03C000
03C000
03C000
000000
1C3800
0E7000
07E000
03C000
018000
000000
000000
07F000
1FFC00
3FFE00
7FFF00
FC3F00
F80F00
FE0000
7FC000
7FFC00
1FFF00
01FF80
001FC0
F007C0
F007C0
F807C0
FC1F80
7FFF80
3FFF00
1FFE00
07F000
ENDCHAR
STARTCHAR uni1E67
ENCODING 7783
SWIDTH 556 0
DWIDTH 18 0
BBX 16 30 1 0
BITMAP
03C0
03C0
03C0
03C0
0000
1C38
0E70
07E0
03C0
0180
0000
0000
0FF0
1FFC
3FFE
7E7E
781E
781E
7F00
7FF0
3FFC
1FFE
03FF
003F
F81F
F81F
7F3E
7FFE
3FFC
0FF8
ENDCHAR
STARTCHAR uni1E68
ENCODING 7784
SWIDTH 667 0
DWIDTH 22 0
BBX 19 35 1 -5
BITMAP
00F000
00F000
00F000
00F000
000000
03F800
0FFE00
1FFF00
3FFF80
3E1F80
7C07C0
7807C0
7803C0
7C0000
7F0000
3FF000
3FFE00
1FFF80
03FFC0
003FC0
0007E0
0003E0
F803E0
F803E0
7C03E0
7E0FC0
3FFFC0
1FFF80
0FFF00
03F800
000000
00F000
00F000
00F000
00F000
ENDCHAR
STARTCHAR uni1E69
ENCODING 7785
SWIDTH 556 0
DWIDTH 19 0
BBX 16 28 1 -5
BITMAP
03C0
03C0
03C0
03C0
0000
07F0
1FFC
3FFE
7C3E
781F
781F
7C00
7FC0
3FF8
0FFE
03FF
003F
F80F
F80F
7C1F
7FFE
3FFC
0FF0
0000
03C0
03C0
03C0
03C0
ENDCHAR
STARTCHAR uni1E6A
ENCODING 7786
SWIDTH 611 0
DWIDTH 20 0
BBX 19 30 0 0
BITMAP
00F000
00F000
00F000
00F000
000000
FFFFE0
FFFFE0
FFFFE0
FFFFE0
01F000
01F000
01F000
01F000
01F000
01F000
01F000
01F000
01F000
01F000
01F000
01F000
01F000
01F000
01F000
01F000
01F000
01F000
01F000
01F000
01F000
ENDCHAR
STARTCHAR uni1E6B
ENCODING 7787
SWIDTH 333 0
DWIDTH 11 0
BBX 9 27 1 0
BITMAP
3C00
3C00
3C00
3C00
0000
3C00
3C00
3C00
3C00
FF80
FF80
FF80
3C00
3C00
3C00
3C00
3C00
3C00
3C00
3C00
3C00
3C00
3C00
3F80
3F80
1F80
0F80
ENDCHAR
STARTCHAR uni1E6C
ENCODING 7788
SWIDTH 611 0
DWIDTH 20 0
BBX 19 30 0 -5
BITMAP
FFFFE0
FFFFE0
FFFFE0
FFFFE0
01F000
01F000
01F000
01F000
01F000
01F000
01F000
01F000
01F000
01F000
01F000
01F000
01F000
01F000
01F000
01F000
01F000
01F000
01F000
01F000
01F000
000000
00F000
00F000
00F000
00F000
ENDCHAR
STARTCHAR uni1E6D
ENCODING 7789
SWIDTH 333 0
DWIDTH 11 0
BBX 9 27 1 -5
BITMAP
3C00
3C00
3C00
3C00
FF80
FF80
FF80
3C00
3C00
3C00
3C00
3C00
3C00
3C00
3C00
3C00
3C00
3C00
3F80
3F80
1F80
0F80
0000
1E00
1E00
1E00
1E00
ENDCHAR
STARTCHAR uni1E6E
ENCODING 7790
SWIDTH 611 0
DWIDTH 20 0
BBX 19 29 0 -4
BITMAP
FFFFE0
FFFFE0
FFFFE0
FFFFE0
01F000
01F000
01F000
01F000
01F000
01F000
01F000
01F000
01F000
01F000
01F000
01F000
01F000
01F000
01F000
01F000
01F000
01F000
01F000
01F000
01F000
000000
07FE00
07FE00
07FE00
ENDCHAR
STARTCHAR uni1E6F
ENCODING 7791
SWIDTH 333 0
DWIDTH 11 0
BBX 10 26 1 -4
BITMAP
3C00
3C00
3C00
3C00
FF80
FF80
FF80
3C00
3C00
3C00
3C00
3C00
3C00
3C00
3C00
3C00
3C00
3C00
3F80
3F80
1F80
0F80
0000
FFC0
FFC0
FFC0
ENDCHAR
STARTCHAR uni1E70
ENCODING 7792
SWIDTH 611 0
DWIDTH 20 0
BBX 19 31 0 -6
BITMAP
FFFFE0
FFFFE0
FFFFE0
FFFFE0
01F000
01F000
01F000
01F000
01F000
01F000
01F000
01F000
01F000
01F000
01F000
01F000
01F000
01F000
01F000
01F000
01F000
01F000
01F000
01F000
01F000
000000
006000
00F000
01F800
039C00
070E00
ENDCHAR
STARTCHAR uni1E71
ENCODING 7793
SWIDTH 333 0
DWIDTH 11 0
BBX 10 28 1 -6
BITMAP
3C00
3C00
3C00
3C00
FF80
FF80
FF80
3C00
3C00
3C00
3C00
3C00
3C00
3C00
3C00
3C00
3C00
3C00
3F80
3F80
1F80
0F80
0000
0C00
1E00
3F00
7380
E1C0
ENDCHAR
STARTCHAR uni1E72
ENCODING 7794
SWIDTH 722 0
DWIDTH 24 0
BBX 19 30 2 -5
BITMAP
F803E0
F803E0
F803E0
F803E0
F803E0
F803E0
F803E0
F803E0
F803E0
F803E0
F803E0
F803E0
F803E0
F803E0
F803E0
F803E0
F803E0
F803E0
F803E0
FC07E0
7F1FC0
7FFFC0
3FFF80
1FFF00
07FC00
000000
079E00
079E00
079E00
079E00
ENDCHAR
STARTCHAR uni1E73
ENCODING 7795
SWIDTH 611 0
DWIDTH 20 0
BBX 15 23 2 -5
BITMAP
F01E
F01E
F01E
F01E
F01E
F01E
F01E
F01E
F01E
F01E
F01E
F01E
F83E
F87E
FFFE
7FFE
7FDE
1F1E
0000
1E78
1E78
1E78
1E78
ENDCHAR
STARTCHAR uni1E74
ENCODING 7796
SWIDTH 722 0
DWIDTH 24 0
BBX 19 30 2 -5
BITMAP
F803E0
F803E0
F803E0
F803E0
F803E0
F803E0
F803E0
F803E0
F803E0
F803E0
F803E0
F803E0
F803E0
F803E0
F803E0
F803E0
F803E0
F803E0
F803E0
FC07E0
7F1FC0
7FFFC0
3FFF80
1FFF00
07FC00
000000
03C600
07FE00
0FFC00
0C7800
ENDCHAR
STARTCHAR uni1E75
ENCODING 7797
SWIDTH 611 0
DWIDTH 20 0
BBX 15 23 2 -5
BITMAP
F01E
F01E
F01E
F01E
F01E
F01E
F01E
F01E
F01E
F01E
F01E
F01E
F83E
F87E
FFFE
7FFE
7FDE
1F1E
0000
0F18
1FF8
3FF0
31E0
ENDCHAR
STARTCHAR uni1E76
ENCODING 7798
SWIDTH 722 0
DWIDTH 24 0
BBX 19 31 2 -6
BITMAP
F803E0
F803E0
F803E0
F803E0
F803E0
F803E0
F803E0
F803E0
F803E0
F803E0
F803E0
F803E0
F803E0
F803E0
F803E0
F803E0
F803E0
F803E0
F803E0
FC07E0
7F1FC0
7FFFC0
3FFF80
1FFF00
07FC00
000000
006000
00F000
01F800
039C00
070E00
ENDCHAR
STARTCHAR uni1E77
ENCODING 7799
SWIDTH 611 0
DWIDTH 20 0
BBX 15 24 2 -6
BITMAP
F01E
F01E
F01E
F01E
F01E
F01E
F01E
F01E
F01E
F01E
F01E
F01E
F83E
F87E
FFFE
7FFE
7FDE
1F1E
0000
0180
03C0
07E0
0E70
1C38
ENDCHAR
STARTCHAR uni1E78
ENCODING 7800
SWIDTH 722 0
DWIDTH 24 0
BBX 19 36 2 0
BITMAP
003C00
007800
007000
00E000
00E000
000000
03C600
07FE00
0FFC00
0C7800
000000
F803E0
F803E0
F803E0
F803E0
F803E0
F803E0
F803E0
F803E0
F803E0
F803E0
F803E0
F803E0
F803E0
F803E0
F803E0
F803E0
F803E0
F803E0
F803E0
FC07E0
7F1FC0
7FFFC0
3FFF80
1FFF00
07FC00
ENDCHAR
STARTCHAR uni1E79
ENCODING 7801
SWIDTH 611 0
DWIDTH 20 0
BBX 15 29 2 0
BITMAP
00F0
01E0
01C0
0380
0380
0000
0F18
1FF8
3FF0
31E0
0000
F01E
F01E
F01E
F01E
F01E
F01E
F01E
F01E
F01E
F01E
F01E
F01E
F83E
F87E
FFFE
7FFE
7FDE
1F1E
ENDCHAR
STARTCHAR uni1E7A
ENCODING 7802
SWIDTH 722 0
DWIDTH 24 0
BBX 19 34 2 0
BITMAP
079E00
079E00
079E00
079E00
000000
07FE00
07FE00
07FE00
000000
F803E0
F803E0
F803E0
F803E0
F803E0
F803E0
F803E0
F803E0
F803E0
F803E0
F803E0
F803E0
F803E0
F803E0
F803E0
F803E0
F803E0
F803E0
F803E0
FC07E0
7F1FC0
7FFFC0
3FFF80
1FFF00
07FC00
ENDCHAR
STARTCHAR uni1E7B
ENCODING 7803
SWIDTH 611 0
DWIDTH 20 0
BBX 15 27 2 0
BITMAP
1E78
1E78
1E78
1E78
0000
1FF8
1FF8
1FF8
0000
F01E
F01E
F01E
F01E
F01E
F01E
F01E
F01E
F01E
F01E
F01E
F01E
F83E
F87E
FFFE
7FFE
7FDE
1F1E
ENDCHAR
STARTCHAR uni1E7C
ENCODING 7804
SWIDTH 667 0
DWIDTH 22 0
BBX 20 30 1 0
BITMAP
01E300
03FF00
07FE00
063C00
000000
F801F0
F801F0
7C03E0
7C03E0
7C03E0
3C03C0
3E07C0
3E07C0
1E0780
1F0F80
1F0F80
0F0F00
0F0F00
0F0F00
079E00
079E00
079E00
07FE00
03FC00
03FC00
03FC00
01F800
01F800
01F800
00F000
ENDCHAR
STARTCHAR uni1E7D
ENCODING 7805
SWIDTH 556 0
DWIDTH 19 0
BBX 17 23 0 0
BITMAP
078C00
0FFC00
1FF800
18F000
000000
F80F80
F80F80
7C1F00
7C1F00
3C1E00
3C1E00
3E3E00
1E3C00
1E3C00
1E3C00
0F7800
0F7800
0F7800
07F000
07F000
07F000
03E000
03E000
ENDCHAR
STARTCHAR uni1E7E
ENCODING 7806
SWIDTH 667 0
DWIDTH 22 0
BBX 20 30 1 -5
BITMAP
F801F0
F801F0
7C03E0
7C03E0
7C03E0
3C03C0
3E07C0
3E07C0
1E0780
1F0F80
1F0F80
0F0F00
0F0F00
0F0F00
079E00
079E00
079E00
07FE00
03FC00
03FC00
03FC00
01F800
01F800
01F800
00F000
000000
00F000
00F000
00F000
00F000
ENDCHAR
STARTCHAR uni1E7F
ENCODING 7807
SWIDTH 556 0
DWIDTH 19 0
BBX 17 23 0 -5
BITMAP
F80F80
F80F80
7C1F00
7C1F00
3C1E00
3C1E00
3E3E00
1E3C00
1E3C00
1E3C00
0F7800
0F7800
0F7800
07F000
07F000
07F000
03E000
03E000
000000
01E000
01E000
01E000
01E000
ENDCHAR
STARTCHAR Wgrave
ENCODING 7808
SWIDTH 944 0
DWIDTH 31 0
BBX 29 31 1 0
BITMAP
000E0000
000F0000
00070000
00078000
00038000
00000000
F81F81F8
F81F81F8
781F81F0
781F81F0
781F81F0
7C3FC3E0
7C3FC3E0
7C3FC3E0
3C3FC3E0
3C39C3C0
3E79E3C0
3E79E7C0
1E79E7C0
1E79E780
1E70E780
1E70E780
0FF0FF00
0FF0FF00
0FF0FF00
0FE07F00
07E07E00
07E07E00
07E07E00
03C03C00
03C03C00
ENDCHAR
STARTCHAR wgrave
ENCODING 7809
SWIDTH 778 0
DWIDTH 26 0
BBX 25 24 0 0
BITMAP
00380000
003C0000
001C0000
001E0000
000E0000
00000000
F83E0F80
F83E0F80
783E0F00
7C3E1F00
7C7F1F00
3C7F1E00
3C7F1E00
3C771E00
3CF79E00
1EE3BC00
1EE3BC00
1EE3BC00
1FE3FC00
0FC1F800
0FC1F800
0FC1F800
0780F000
0780F000
ENDCHAR
STARTCHAR Wacute
ENCODING 7810
SWIDTH 944 0
DWIDTH 31 0
BBX 29 31 1 0
BITMAP
0001E000
0003C000
00038000
00070000
00070000
00000000
F81F81F8
F81F81F8
781F81F0
781F81F0
781F81F0
7C3FC3E0
7C3FC3E0
7C3FC3E0
3C3FC3E0
3C39C3C0
3E79E3C0
3E79E7C0
1E79E7C0
1E79E780
1E70E780
1E70E780
0FF0FF00
0FF0FF00
0FF0FF00
0FE07F00
07E07E00
07E07E00
07E07E00
03C03C00
03C03C00
ENDCHAR
STARTCHAR wacute
ENCODING 7811
SWIDTH 778 0
DWIDTH 26 0
BBX 25 24 0 0
BITMAP
00078000
000F0000
000E0000
001C0000
001C0000
00000000
F83E0F80
F83E0F80
783E0F00
7C3E1F00
7C7F1F00
3C7F1E00
3C7F1E00
3C771E00
3CF79E00
1EE3BC00
1EE3BC00
1EE3BC00
1FE3FC00
0FC1F800
0FC1F800
0FC1F800
0780F000
0780F000
ENDCHAR
STARTCHAR Wdieresis
ENCODING 7812
SWIDTH 944 0
DWIDTH 31 0
BBX 29 30 1 0
BITMAP
003CF000
003CF000
003CF000
003CF000
00000000
F81F81F8
F81F81F8
781F81F0
781F81F0
781F81F0
7C3FC3E0
7C3FC3E0
7C3FC3E0
3C3FC3E0
3C39C3C0
3E79E3C0
3E79E7C0
1E79E7C0
1E79E780
1E70E780
1E70E780
0FF0FF00
0FF0FF00
0FF0FF00
0FE07F00
07E07E00
07E07E00
07E07E00
03C03C00
03C03C00
ENDCHAR
STARTCHAR wdieresis
ENCODING 7813
SWIDTH 778 0
DWIDTH 26 0
BBX 25 23 0 0
BITMAP
00F3C000
00F3C000
00F3C000
00F3C000
00000000
F83E0F80
F83E0F80
783E0F00
7C3E1F00
7C7F1F00
3C7F1E00
3C7F1E00
3C771E00
3CF79E00
1EE3BC00
1EE3BC00
1EE3BC00
1FE3FC00
0FC1F800
0FC1F800
0FC1F800
0780F000
0780F000
ENDCHAR
STARTCHAR uni1E86
ENCODING 7814
SWIDTH 944 0
DWIDTH 31 0
BBX 29 30 1 0
BITMAP
00078000
00078000
00078000
00078000
00000000
F81F81F8
F81F81F8
781F81F0
781F81F0
781F81F0
7C3FC3E0
7C3FC3E0
7C3FC3E0
3C3FC3E0
3C39C3C0
3E79E3C0
3E79E7C0
1E79E7C0
1E79E780
1E70E780
1E70E780
0FF0FF00
0FF0FF00
0FF0FF00
0FE07F00
07E07E00
07E07E00
07E07E00
03C03C00
03C03C00
ENDCHAR
STARTCHAR uni1E87
ENCODING 7815
SWIDTH 778 0
DWIDTH 26 0
BBX 25 23 0 0
BITMAP
001E0000
001E0000
001E0000
001E0000
00000000
F83E0F80
F83E0F80
783E0F00
7C3E1F00
7C7F1F00
3C7F1E00
3C7F1E00
3C771E00
3CF79E00
1EE3BC00
1EE3BC00
1EE3BC00
1FE3FC00
0FC1F800
0FC1F800
0FC1F800
0780F000
0780F000
ENDCHAR
STARTCHAR uni1E88
ENCODING 7816
SWIDTH 944 0
DWIDTH 31 0
BBX 29 30 1 -5
BITMAP
F81F81F8
F81F81F8
781F81F0
781F81F0
781F81F0
7C3FC3E0
7C3FC3E0
7C3FC3E0
3C3FC3E0
3C39C3C0
3E79E3C0
3E79E7C0
1E79E7C0
1E79E780
1E70E780
1E70E780
0FF0FF00
0FF0FF00
0FF0FF00
0FE07F00
07E07E00
07E07E00
07E07E00
03C03C00
03C03C00
00000000
000F0000
000F0000
000F0000
000F0000
ENDCHAR
STARTCHAR uni1E89
ENCODING 7817
SWIDTH 778 0
DWIDTH 26 0
BBX 25 23 0 -5
BITMAP
F83E0F80
F83E0F80
783E0F00
7C3E1F00
7C7F1F00
3C7F1E00
3C7F1E00
3C771E00
3CF79E00
1EE3BC00
1EE3BC00
1EE3BC00
1FE3FC00
0FC1F800
0FC1F800
0FC1F800
0780F000
0780F000
00000000
001E0000
001E0000
001E0000
001E0000
ENDCHAR
STARTCHAR uni1E8A
ENCODING 7818
SWIDTH 667 0
DWIDTH 22 0
BBX 20 30 1 0
BITMAP
00F000
00F000
00F000
00F000
000000
FC03E0
7E07E0
7E07C0
3F0FC0
1F0F80
1F9F00
0F9F00
0FBE00
07FE00
07FC00
03FC00
03F800
01F800
03F800
03FC00
07FC00
07FE00
0FBF00
1F9F00
1F1F80
3F0F80
3E0FC0
7E07C0
FC07E0
FC03F0
ENDCHAR
STARTCHAR uni1E8B
ENCODING 7819
SWIDTH 556 0
DWIDTH 19 0
BBX 16 23 1 0
BITMAP
03C0
03C0
03C0
03C0
0000
F81F
FC3F
7C3E
3E7C
3E78
1FF8
0FF0
07E0
03C0
07E0
0FE0
0FF0
1FF8
3E78
3E7C
7C3E
FC3F
F81F
ENDCHAR
STARTCHAR uni1E8C
ENCODING 7820
SWIDTH 667 0
DWIDTH 22 0
BBX 20 30 1 0
BITMAP
079E00
079E00
079E00
079E00
000000
FC03E0
7E07E0
7E07C0
3F0FC0
1F0F80
1F9F00
0F9F00
0FBE00
07FE00
07FC00
03FC00
03F800
01F800
03F800
03FC00
07FC00
07FE00
0FBF00
1F9F00
1F1F80
3F0F80
3E0FC0
7E07C0
FC07E0
FC03F0
ENDCHAR
STARTCHAR uni1E8D
ENCODING 7821
SWIDTH 556 0
DWIDTH 19 0
BBX 16 23 1 0
BITMAP
1E78
1E78
1E78
1E78
0000
F81F
FC3F
7C3E
3E7C
3E78
1FF8
0FF0
07E0
03C0
07E0
0FE0
0FF0
1FF8
3E78
3E7C
7C3E
FC3F
F81F
ENDCHAR
STARTCHAR uni1E8E
ENCODING 7822
SWIDTH 667 0
DWIDTH 22 0
BBX 20 30 1 0
BITMAP
00F000
00F000
00F000
00F000
000000
FC03F0
FC03E0
7E07E0
3E07C0
3F0FC0
3F0F80
1F0F80
1F9F00
0F9F00
0FFE00
07FE00
07FC00
03FC00
03F800
03F800
01F000
01F000
01F000
01F000
01F000
01F000
01F000
01F000
01F000
01F000
ENDCHAR
STARTCHAR uni1E8F
ENCODING 7823
SWIDTH 556 0
DWIDTH 19 0
BBX 16 30 1 -7
BITMAP
03C0
03C0
03C0
03C0
0000
F81F
F81F
F81E
783E
7C3E
7C3C
3C3C
3E7C
3E78
1E78
1E78
1FF0
0FF0
0FF0
0FE0
07E0
07E0
07C0
07C0
07C0
0F80
3F80
3F00
3F00
3C00
ENDCHAR
STARTCHAR uni1E90
ENCODING 7824
SWIDTH 611 0
DWIDTH 20 0
BBX 17 31 1 0
BITMAP
00C000
01E000
03F000
073800
0E1C00
000000
FFFF80
FFFF80
FFFF80
FFFF80
000F80
001F80
003F00
007E00
007C00
00FC00
01F800
03F000
03F000
07E000
0FC000
0F8000
1F8000
3F0000
7E0000
7E0000
FC0000
FFFF80
FFFF80
FFFF80
FFFF80
ENDCHAR
STARTCHAR uni1E91
ENCODING 7825
SWIDTH 500 0
DWIDTH 17 0
BBX 14 24 1 0
BITMAP
0300
0780
0FC0
1CE0
3870
0000
FFFC
FFFC
FFFC
FFFC
00F8
01F0
03F0
07E0
0FC0
1F80
1F00
3E00
7C00
F800
FFFC
FFFC
FFFC
FFFC
ENDCHAR
STARTCHAR uni1E92
ENCODING 7826
SWIDTH 611 0
DWIDTH 20 0
BBX 17 30 1 -5
BITMAP
FFFF80
FFFF80
FFFF80
FFFF80
000F80
001F80
003F00
007E00
007C00
00FC00
01F800
03F000
03F000
07E000
0FC000
0F8000
1F8000
3F0000
7E0000
7E0000
FC0000
FFFF80
FFFF80
FFFF80
FFFF80
000000
03C000
03C000
03C000
03C000
ENDCHAR
STARTCHAR uni1E93
ENCODING 7827
SWIDTH 500 0
DWIDTH 17 0
BBX 14 23 1 -5
BITMAP
FFFC
FFFC
FFFC
FFFC
00F8
01F0
03F0
07E0
0FC0
1F80
1F00
3E00
7C00
F800
FFFC
FFFC
FFFC
FFFC
0000
0780
0780
0780
0780
ENDCHAR
STARTCHAR uni1E94
ENCODING 7828
SWIDTH 611 0
DWIDTH 20 0
BBX 17 29 1 -4
BITMAP
FFFF80
FFFF80
FFFF80
FFFF80
000F80
001F80
003F00
007E00
007C00
00FC00
01F800
03F000
03F000
07E000
0FC000
0F8000
1F8000
3F0000
7E0000
7E0000
FC0000
FFFF80
FFFF80
FFFF80
FFFF80
000000
1FF800
1FF800
1FF800
ENDCHAR
STARTCHAR uni1E95
ENCODING 7829
SWIDTH 500 0
DWIDTH 17 0
BBX 14 22 1 -4
BITMAP
FFFC
FFFC
FFFC
FFFC
00F8
01F0
03F0
07E0
0FC0
1F80
1F00
3E00
7C00
F800
FFFC
FFFC
FFFC
FFFC
0000
3FF0
3FF0
3FF0
ENDCHAR
STARTCHAR uni1E96
ENCODING 7830
SWIDTH 611 0
DWIDTH 20 0
BBX 15 29 2 -4
BITMAP
F000
F000
F000
F000
F000
F000
F000
F1E0
F7F8
FFFC
FFFC
FC3E
F81E
F81E
F01E
F01E
F01E
F01E
F01E
F01E
F01E
F01E
F01E
F01E
F01E
0000
1FF8
1FF8
1FF8
ENDCHAR
STARTCHAR uni1E97
ENCODING 7831
SWIDTH 333 0
DWIDTH 11 0
BBX 10 27 0 0
BITMAP
F3C0
F3C0
F3C0
F3C0
0000
1E00
1E00
1E00
1E00
7FC0
7FC0
7FC0
1E00
1E00
1E00
1E00
1E00
1E00
1E00
1E00
1E00
1E00
1E00
1FC0
1FC0
0FC0
07C0
ENDCHAR
STARTCHAR uni1E98
ENCODING 7832
SWIDTH 778 0
DWIDTH 26 0
BBX 25 25 0 0
BITMAP
001C0000
00360000
00220000
00220000
00360000
001C0000
00000000
F83E0F80
F83E0F80
783E0F00
7C3E1F00
7C7F1F00
3C7F1E00
3C7F1E00
3C771E00
3CF79E00
1EE3BC00
1EE3BC00
1EE3BC00
1FE3FC00
0FC1F800
0FC1F800
0FC1F800
0780F000
0780F000
ENDCHAR
STARTCHAR uni1E99
ENCODING 7833
SWIDTH 556 0
DWIDTH 19 0
BBX 16 32 1 -7
BITMAP
0380
06C0
0440
0440
06C0
0380
0000
F81F
F81F
F81E
783E
7C3E
7C3C
3C3C
3E7C
3E78
1E78
1E78
1FF0
0FF0
0FF0
0FE0
07E0
07E0
07C0
07C0
07C0
0F80
3F80
3F00
3F00
3C00
ENDCHAR
STARTCHAR uni1EA0
ENCODING 7840
SWIDTH 722 0
DWIDTH 23 0
BBX 22 30 0 -5
BITMAP
00FC00
00FC00
01FE00
01FE00
01FE00
03FF00
03FF00
03FF00
07CF80
07CF80
07CF80
0F8780
0F87C0
0F87C0
1F03C0
1F03E0
1FFFE0
1FFFE0
3FFFF0
3FFFF0
3E01F0
7C00F8
7C00F8
FC00FC
F8007C
000000
007800
007800
007800
007800
ENDCHAR
STARTCHAR uni1EA1
ENCODING 7841
SWIDTH 556 0
DWIDTH 18 0
BBX 15 23 1 -5
BITMAP
0FF0
3FFC
7FFC
7C3E
F81E
F81E
00FE
0FFE
3FFE
7F1E
F81E
F81E
F03E
F87E
FFFE
FFFE
7FDE
3F1E
0000
03C0
03C0
03C0
03C0
ENDCHAR
STARTCHAR uni1EA4
ENCODING 7844
SWIDTH 722 0
DWIDTH 23 0
BBX 22 37 0 0
BITMAP
001E00
003C00
003800
007000
007000
000000
003000
007800
00FC00
01CE00
038700
000000
00FC00
00FC00
01FE00
01FE00
01FE00
03FF00
03FF00
03FF00
07CF80
07CF80
07CF80
0F8780
0F87C0
0F87C0
1F03C0
1F03E0
1FFFE0
1FFFE0
3FFFF0
3FFFF0
3E01F0
7C00F8
7C00F8
FC00FC
F8007C
ENDCHAR
STARTCHAR uni1EA5
ENCODING 7845
SWIDTH 556 0
DWIDTH 18 0
BBX 15 31 1 0
BITMAP
00F0
01E0
01C0
0380
0380
0000
0180
03C0
07E0
0E70
1C38
0000
0000
0FF0
3FFC
7FFC
7C3E
F81E
F81E
01FE
0FFE
3FFE
7F1E
F81E
F01E
F03E
F87E
FFFE
FFFE
7FDE
3F1E
ENDCHAR
STARTCHAR uni1EA6
ENCODING 7846
SWIDTH 722 0
DWIDTH 23 0
BBX 22 37 0 0
BITMAP
00E000
00F000
007000
007800
003800
000000
003000
007800
00FC00
01CE00
038700
000000
00FC00
00FC00
01FE00
01FE00
01FE00
03FF00
03FF00
03FF00
07CF80
07CF80
07CF80
0F8780
0F87C0
0F87C0
1F03C0
1F03E0
1FFFE0
1FFFE0
3FFFF0
3FFFF0
3E01F0
7C00F8
7C00F8
FC00FC
F8007C
ENDCHAR
STARTCHAR uni1EA7
ENCODING 7847
SWIDTH 556 0
DWIDTH 18 0
BBX 15 31 1 0
BITMAP
0700
0780
0380
03C0
01C0
0000
0180
03C0
07E0
0E70
1C38
0000
0000
0FF0
3FFC
7FFC
7C3E
F81E
F81E
01FE
0FFE
3FFE
7F1E
F81E
F01E
F03E
F87E
FFFE
FFFE
7FDE
3F1E
ENDCHAR
STARTCHAR uni1EAA
ENCODING 7850
SWIDTH 722 0
DWIDTH 23 0
BBX 22 36 0 0
BITMAP
00F180
01FF80
03FF00
031E00
000000
003000
007800
00FC00
01CE00
038700
000000
00FC00
00FC00
01FE00
01FE00
01FE00
03FF00
03FF00
03FF00
07CF80
07CF80
07CF80
0F8780
0F87C0
0F87C0
1F03C0
1F03E0
1FFFE0
1FFFE0
3FFFF0
3FFFF0
3E01F0
7C00F8
7C00F8
FC00FC
F8007C
ENDCHAR
STARTCHAR uni1EAB
ENCODING 7851
SWIDTH 556 0
DWIDTH 18 0
BBX 15 30 1 0
BITMAP
078C
0FFC
1FF8
18F0
0000
0180
03C0
07E0
0E70
1C38
0000
0000
0FF0
3FFC
7FFC
7C3E
F81E
F81E
01FE
0FFE
3FFE
7F1E
F81E
F01E
F03E
F87E
FFFE
FFFE
7FDE
3F1E
ENDCHAR
STARTCHAR uni1EAC
ENCODING 7852
SWIDTH 722 0
DWIDTH 23 0
BBX 22 36 0 -5
BITMAP
003000
007800
00FC00
01CE00
038700
000000
00FC00
00FC00
01FE00
01FE00
01FE00
03FF00
03FF00
03FF00
07CF80
07CF80
07CF80
0F8780
0F87C0
0F87C0
1F03C0
1F03E0
1FFFE0
1FFFE0
3FFFF0
3FFFF0
3E01F0
7C00F8
7C00F8
FC00FC
F8007C
000000
007800
007800
007800
007800
ENDCHAR
STARTCHAR uni1EAD
ENCODING 7853
SWIDTH 556 0
DWIDTH 18 0
BBX 15 29 1 -5
BITMAP
0180
03C0
07E0
0E70
1C38
0000
0FF0
3FFC
7FFC
7C3E
F81E
F81E
00FE
0FFE
3FFE
7F1E
F81E
F81E
F03E
F87E
FFFE
FFFE
7FDE
3F1E
0000
03C0
03C0
03C0
03C0
ENDCHAR
STARTCHAR uni1EAE
ENCODING 7854
SWIDTH 722 0
DWIDTH 23 0
BBX 22 37 0 0
BITMAP
001E00
003C00
003800
007000
007000
000000
010100
018300
00FE00
00FE00
003800
000000
00FC00
00FC00
01FE00
01FE00
01FE00
03FF00
03FF00
03FF00
07CF80
07CF80
07CF80
0F8780
0F87C0
0F87C0
1F03C0
1F03E0
1FFFE0
1FFFE0
3FFFF0
3FFFF0
3E01F0
7C00F8
7C00F8
FC00FC
F8007C
ENDCHAR
STARTCHAR uni1EAF
ENCODING 7855
SWIDTH 556 0
DWIDTH 18 0
BBX 15 30 1 0
BITMAP
00F0
01E0
01C0
0380
0380
0000
1010
1830
0FE0
0FE0
0380
0000
0FF0
3FFC
7FFC
7C3E
F81E
F81E
00FE
0FFE
3FFE
7F1E
F81E
F81E
F03E
F87E
FFFE
FFFE
7FDE
3F1E
ENDCHAR
STARTCHAR uni1EB0
ENCODING 7856
SWIDTH 722 0
DWIDTH 23 0
BBX 22 37 0 0
BITMAP
00E000
00F000
007000
007800
003800
000000
010100
018300
00FE00
00FE00
003800
000000
00FC00
00FC00
01FE00
01FE00
01FE00
03FF00
03FF00
03FF00
07CF80
07CF80
07CF80
0F8780
0F87C0
0F87C0
1F03C0
1F03E0
1FFFE0
1FFFE0
3FFFF0
3FFFF0
3E01F0
7C00F8
7C00F8
FC00FC
F8007C
ENDCHAR
STARTCHAR uni1EB1
ENCODING 7857
SWIDTH 556 0
DWIDTH 18 0
BBX 15 30 1 0
BITMAP
0700
0780
0380
03C0
01C0
0000
1010
1830
0FE0
0FE0
0380
0000
0FF0
3FFC
7FFC
7C3E
F81E
F81E
00FE
0FFE
3FFE
7F1E
F81E
F81E
F03E
F87E
FFFE
FFFE
7FDE
3F1E
ENDCHAR
STARTCHAR uni1EB4
ENCODING 7860
SWIDTH 722 0
DWIDTH 23 0
BBX 22 36 0 0
BITMAP
00F180
01FF80
03FF00
031E00
000000
010100
018300
00FE00
00FE00
003800
000000
00FC00
00FC00
01FE00
01FE00
01FE00
03FF00
03FF00
03FF00
07CF80
07CF80
07CF80
0F8780
0F87C0
0F87C0
1F03C0
1F03E0
1FFFE0
1FFFE0
3FFFF0
3FFFF0
3E01F0
7C00F8
7C00F8
FC00FC
F8007C
ENDCHAR
STARTCHAR uni1EB5
ENCODING 7861
SWIDTH 556 0
DWIDTH 18 0
BBX 15 29 1 0
BITMAP
0F18
1FF8
3FF0
31E0
0000
1010
1830
0FE0
0FE0
0380
0000
0FF0
3FFC
7FFC
7C3E
F81E
F81E
00FE
0FFE
3FFE
7F1E
F81E
F81E
F03E
F87E
FFFE
FFFE
7FDE
3F1E
ENDCHAR
STARTCHAR uni1EB6
ENCODING 7862
SWIDTH 722 0
DWIDTH 23 0
BBX 22 36 0 -5
BITMAP
010100
018300
00FE00
00FE00
003800
000000
00FC00
00FC00
01FE00
01FE00
01FE00
03FF00
03FF00
03FF00
07CF80
07CF80
07CF80
0F8780
0F87C0
0F87C0
1F03C0
1F03E0
1FFFE0
1FFFE0
3FFFF0
3FFFF0
3E01F0
7C00F8
7C00F8
FC00FC
F8007C
000000
007800
007800
007800
007800
ENDCHAR
STARTCHAR uni1EB7
ENCODING 7863
SWIDTH 556 0
DWIDTH 18 0
BBX 15 29 1 -5
BITMAP
1010
1830
0FE0
0FE0
0380
0000
0FF0
3FFC
7FFC
7C3E
F81E
F81E
00FE
0FFE
3FFE
7F1E
F81E
F81E
F03E
F87E
FFFE
FFFE
7FDE
3F1E
0000
03C0
03C0
03C0
03C0
ENDCHAR
STARTCHAR uni1EB8
ENCODING 7864
SWIDTH 667 0
DWIDTH 22 0
BBX 18 30 2 -5
BITMAP
FFFF80
FFFF80
FFFF80
FFFF80
F80000
F80000
F80000
F80000
F80000
F80000
FFFF00
FFFF00
FFFF00
FFFF00
F80000
F80000
F80000
F80000
F80000
F80000
F80000
FFFFC0
FFFFC0
FFFFC0
FFFFC0
000000
03C000
03C000
03C000
03C000
ENDCHAR
STARTCHAR uni1EB9
ENCODING 7865
SWIDTH 556 0
DWIDTH 18 0
BBX 16 23 1 -5
BITMAP
07E0
1FF8
3FFC
7FFE
7C3E
F81F
F01F
FFFF
FFFF
FFFF
F000
F000
F81E
7C3E
7FFC
3FFC
1FF0
07C0
0000
03C0
03C0
03C0
03C0
ENDCHAR
STARTCHAR uni1EBC
ENCODING 7868
SWIDTH 667 0
DWIDTH 22 0
BBX 18 30 2 0
BITMAP
078C00
0FFC00
1FF800
18F000
000000
FFFF80
FFFF80
FFFF80
FFFF80
F80000
F80000
F80000
F80000
F80000
F80000
FFFF00
FFFF00
FFFF00
FFFF00
F80000
F80000
F80000
F80000
F80000
F80000
F80000
FFFFC0
FFFFC0
FFFFC0
FFFFC0
ENDCHAR
STARTCHAR uni1EBD
ENCODING 7869
SWIDTH 556 0
DWIDTH 18 0
BBX 16 23 1 0
BITMAP
078C
0FFC
1FF8
18F0
0000
07E0
1FF8
3FFC
7FFE
7C3E
F81F
F01F
FFFF
FFFF
FFFF
F000
F000
F81E
7C3E
7FFC
3FFC
1FF0
07C0
ENDCHAR
STARTCHAR uni1EBE
ENCODING 7870
SWIDTH 667 0
DWIDTH 22 0
BBX 18 37 2 0
BITMAP
007800
00F000
00E000
01C000
01C000
000000
00C000
01E000
03F000
073800
0E1C00
000000
FFFF80
FFFF80
FFFF80
FFFF80
F80000
F80000
F80000
F80000
F80000
F80000
FFFF00
FFFF00
FFFF00
FFFF00
F80000
F80000
F80000
F80000
F80000
F80000
F80000
FFFFC0
FFFFC0
FFFFC0
FFFFC0
ENDCHAR
STARTCHAR uni1EBF
ENCODING 7871
SWIDTH 556 0
DWIDTH 18 0
BBX 16 31 1 0
BITMAP
00F0
01E0
01C0
0380
0380
0000
0180
03C0
07E0
0E70
1C38
0000
0000
07E0
1FF8
3FFC
7FFE
7C3E
F81E
F01F
FFFF
FFFF
FFFF
F000
F000
F81E
7C3E
7FFE
3FFC
1FF0
07C0
ENDCHAR
STARTCHAR uni1EC0
ENCODING 7872
SWIDTH 667 0
DWIDTH 22 0
BBX 18 37 2 0
BITMAP
038000
03C000
01C000
01E000
00E000
000000
00C000
01E000
03F000
073800
0E1C00
000000
FFFF80
FFFF80
FFFF80
FFFF80
F80000
F80000
F80000
F80000
F80000
F80000
FFFF00
FFFF00
FFFF00
FFFF00
F80000
F80000
F80000
F80000
F80000
F80000
F80000
FFFFC0
FFFFC0
FFFFC0
FFFFC0
ENDCHAR
STARTCHAR uni1EC1
ENCODING 7873
SWIDTH 556 0
DWIDTH 18 0
BBX 16 31 1 0
BITMAP
0700
0780
0380
03C0
01C0
0000
0180
03C0
07E0
0E70
1C38
0000
0000
07E0
1FF8
3FFC
7FFE
7C3E
F81E
F01F
FFFF
FFFF
FFFF
F000
F000
F81E
7C3E
7FFE
3FFC
1FF0
07C0
ENDCHAR
STARTCHAR uni1EC4
ENCODING 7876
SWIDTH 667 0
DWIDTH 22 0
BBX 18 36 2 0
BITMAP
03C600
07FE00
0FFC00
0C7800
000000
00C000
01E000
03F000
073800
0E1C00
000000
FFFF80
FFFF80
FFFF80
FFFF80
F80000
F80000
F80000
F80000
F80000
F80000
FFFF00
FFFF00
FFFF00
FFFF00
F80000
F80000
F80000
F80000
F80000
F80000
F80000
FFFFC0
FFFFC0
FFFFC0
FFFFC0
ENDCHAR
STARTCHAR uni1EC5
ENCODING 7877
SWIDTH 556 0
DWIDTH 18 0
BBX 16 30 1 0
BITMAP
078C
0FFC
1FF8
18F0
0000
0180
03C0
07E0
0E70
1C38
0000
0000
07E0
1FF8
3FFC
7FFE
7C3E
F81E
F01F
FFFF
FFFF
FFFF
F000
F000
F81E
7C3E
7FFE
3FFC
1FF0
07C0
ENDCHAR
STARTCHAR uni1EC6
ENCODING 7878
SWIDTH 667 0
DWIDTH 22 0
BBX 18 36 2 -5
BITMAP
018000
03C000
07E000
0E7000
1C3800
000000
FFFF80
FFFF80
FFFF80
FFFF80
F80000
F80000
F80000
F80000
F80000
F80000
FFFF00
FFFF00
FFFF00
FFFF00
F80000
F80000
F80000
F80000
F80000
F80000
F80000
FFFFC0
FFFFC0
FFFFC0
FFFFC0
000000
03C000
03C000
03C000
03C000
ENDCHAR
STARTCHAR uni1EC7
ENCODING 7879
SWIDTH 556 0
DWIDTH 18 0
BBX 16 29 1 -5
BITMAP
0180
03C0
07E0
0E70
1C38
0000
07E0
1FF8
3FFC
7FFE
7C3E
F81F
F01F
FFFF
FFFF
FFFF
F000
F000
F81E
7C3E
7FFC
3FFC
1FF0
07C0
0000
03C0
03C0
03C0
03C0
ENDCHAR
STARTCHAR uni1ECA
ENCODING 7882
SWIDTH 278 0
DWIDTH 9 0
BBX 5 30 2 -5
BITMAP
F8
F8
F8
F8
F8
F8
F8
F8
F8
F8
F8
F8
F8
F8
F8
F8
F8
F8
F8
F8
F8
F8
F8
F8
F8
00
78
78
78
78
ENDCHAR
STARTCHAR uni1ECB
ENCODING 7883
SWIDTH 278 0
DWIDTH 9 0
BBX 4 30 2 -5
BITMAP
F0
F0
F0
F0
00
00
F0
F0
F0
F0
F0
F0
F0
F0
F0
F0
F0
F0
F0
F0
F0
F0
F0
F0
F0
00
F0
F0
F0
F0
ENDCHAR
STARTCHAR uni1ECC
ENCODING 7884
SWIDTH 778 0
DWIDTH 25 0
BBX 23 30 1 -5
BITMAP
01FF00
07FFC0
0FFFE0
1FFFF0
3FC7F8
3F01F8
7E00FC
7C007C
7C007C
F8003E
F8003E
F8003E
F8003E
F8003E
F8003E
F8003E
7C007C
7C007C
7E00FC
3F01F8
3FC7F8
1FFFF0
0FFFE0
07FFC0
01FF00
000000
003C00
003C00
003C00
003C00
ENDCHAR
STARTCHAR uni1ECD
ENCODING 7885
SWIDTH 611 0
DWIDTH 20 0
BBX 17 23 1 -5
BITMAP
07F000
1FFC00
3FFE00
7FFF00
7C1F00
F80F80
F80F80
F00780
F00780
F00780
F00780
F80F80
F80F80
7C1F00
7FFF00
3FFE00
1FFC00
07F000
000000
01E000
01E000
01E000
01E000
ENDCHAR
STARTCHAR uni1ED0
ENCODING 7888
SWIDTH 778 0
DWIDTH 25 0
BBX 23 37 1 0
BITMAP
000F00
001E00
001C00
003800
003800
000000
001800
003C00
007E00
00E700
01C380
000000
01FF00
07FFC0
0FFFE0
1FFFF0
3FC7F8
3F01F8
7E00FC
7C007C
7C007C
F8003E
F8003E
F8003E
F8003E
F8003E
F8003E
F8003E
7C007C
7C007C
7E00FC
3F01F8
3FC7F8
1FFFF0
0FFFE0
07FFC0
01FF00
ENDCHAR
STARTCHAR uni1ED1
ENCODING 7889
SWIDTH 611 0
DWIDTH 20 0
BBX 17 31 1 0
BITMAP
007800
00F000
00E000
01C000
01C000
000000
00C000
01E000
03F000
073800
0E1C00
000000
000000
07F000
1FFC00
3FFE00
7FFF00
7C1F00
F80F80
F80F80
F00780
F00780
F00780
F00780
F80F80
F80F80
7C1F00
7FFF00
3FFE00
1FFC00
07F000
ENDCHAR
STARTCHAR uni1ED2
ENCODING 7890
SWIDTH 778 0
DWIDTH 25 0
BBX 23 37 1 0
BITMAP
007000
007800
003800
003C00
001C00
000000
001800
003C00
007E00
00E700
01C380
000000
01FF00
07FFC0
0FFFE0
1FFFF0
3FC7F8
3F01F8
7E00FC
7C007C
7C007C
F8003E
F8003E
F8003E
F8003E
F8003E
F8003E
F8003E
7C007C
7C007C
7E00FC
3F01F8
3FC7F8
1FFFF0
0FFFE0
07FFC0
01FF00
ENDCHAR
STARTCHAR uni1ED3
ENCODING 7891
SWIDTH 611 0
DWIDTH 20 0
BBX 17 31 1 0
BITMAP
038000
03C000
01C000
01E000
00E000
000000
00C000
01E000
03F000
073800
0E1C00
000000
000000
07F000
1FFC00
3FFE00
7FFF00
7C1F00
F80F80
F80F80
F00780
F00780
F00780
F00780
F80F80
F80F80
7C1F00
7FFF00
3FFE00
1FFC00
07F000
ENDCHAR
STARTCHAR uni1ED6
ENCODING 7894
SWIDTH 778 0
DWIDTH 25 0
BBX 23 36 1 0
BITMAP
0078C0
00FFC0
01FF80
018F00
000000
001800
003C00
007E00
00E700
01C380
000000
01FF00
07FFC0
0FFFE0
1FFFF0
3FC7F8
3F01F8
7E00FC
7C007C
7C007C
F8003E
F8003E
F8003E
F8003E
F8003E
F8003E
F8003E
7C007C
7C007C
7E00FC
3F01F8
3FC7F8
1FFFF0
0FFFE0
07FFC0
01FF00
ENDCHAR
STARTCHAR uni1ED7
ENCODING 7895
SWIDTH 611 0
DWIDTH 20 0
BBX 17 30 1 0
BITMAP
03C600
07FE00
0FFC00
0C7800
000000
00C000
01E000
03F000
073800
0E1C00
000000
000000
07F000
1FFC00
3FFE00
7FFF00
7C1F00
F80F80
F80F80
F00780
F00780
F00780
F00780
F80F80
F80F80
7C1F00
7FFF00
3FFE00
1FFC00
07F000
ENDCHAR
STARTCHAR uni1ED8
ENCODING 7896
SWIDTH 778 0
DWIDTH 25 0
BBX 23 36 1 -5
BITMAP
001800
003C00
007E00
00E700
01C380
000000
01FF00
07FFC0
0FFFE0
1FFFF0
3FC7F8
3F01F8
7E00FC
7C007C
7C007C
F8003E
F8003E
F8003E
F8003E
F8003E
F8003E
F8003E
7C007C
7C007C
7E00FC
3F01F8
3FC7F8
1FFFF0
0FFFE0
07FFC0
01FF00
000000
003C00
003C00
003C00
003C00
ENDCHAR
STARTCHAR uni1ED9
ENCODING 7897
SWIDTH 611 0
DWIDTH 20 0
BBX 17 29 1 -5
BITMAP
00C000
01E000
03F000
073800
0E1C00
000000
07F000
1FFC00
3FFE00
7FFF00
7C1F00
F80F80
F80F80
F00780
F00780
F00780
F00780
F80F80
F80F80
7C1F00
7FFF00
3FFE00
1FFC00
07F000
000000
01E000
01E000
01E000
01E000
ENDCHAR
STARTCHAR uni1EDA
ENCODING 7898
SWIDTH 778 0
DWIDTH 25 0
BBX 25 31 1 0
BITMAP
00078000
000F0000
000E0000
001C0000
001C0000
00000000
01FF0780
07FFC780
0FFFE780
1FFFF780
3FC7F980
3F01F980
7E00FD80
7C007F00
7C007E00
F8003E00
F8003E00
F8003E00
F8003E00
F8003E00
F8003E00
F8003E00
7C007C00
7C007C00
7E00FC00
3F01F800
3FC7F800
1FFFF000
0FFFE000
07FFC000
01FF0000
ENDCHAR
STARTCHAR uni1EDB
ENCODING 7899
SWIDTH 611 0
DWIDTH 20 0
BBX 19 24 1 0
BITMAP
003C00
007800
007000
00E000
00E000
000000
07F1E0
1FFDE0
3FFFE0
7FFFE0
7C1F60
F80FE0
F80FE0
F007C0
F00780
F00780
F00780
F80F80
F80F80
7C1F00
7FFF00
3FFE00
1FFC00
07F000
ENDCHAR
STARTCHAR uni1EDC
ENCODING 7900
SWIDTH 778 0
DWIDTH 25 0
BBX 25 31 1 0
BITMAP
00380000
003C0000
001C0000
001E0000
000E0000
00000000
01FF0780
07FFC780
0FFFE780
1FFFF780
3FC7F980
3F01F980
7E00FD80
7C007F00
7C007E00
F8003E00
F8003E00
F8003E00
F8003E00
F8003E00
F8003E00
F8003E00
7C007C00
7C007C00
7E00FC00
3F01F800
3FC7F800
1FFFF000
0FFFE000
07FFC000
01FF0000
ENDCHAR
STARTCHAR uni1EDD
ENCODING 7901
SWIDTH 611 0
DWIDTH 20 0
BBX 19 24 1 0
BITMAP
01C000
01E000
00E000
00F000
007000
000000
07F1E0
1FFDE0
3FFFE0
7FFFE0
7C1F60
F80FE0
F80FE0
F007C0
F00780
F00780
F00780
F80F80
F80F80
7C1F00
7FFF00
3FFE00
1FFC00
07F000
ENDCHAR
STARTCHAR uni1EE0
ENCODING 7904
SWIDTH 778 0
DWIDTH 25 0
BBX 25 30 1 0
BITMAP
003C6000
007FE000
00FFC000
00C78000
00000000
01FF0780
07FFC780
0FFFE780
1FFFF780
3FC7F980
3F01F980
7E00FD80
7C007F00
7C007E00
F8003E00
F8003E00
F8003E00
F8003E00
F8003E00
F8003E00
F8003E00
7C007C00
7C007C00
7E00FC00
3F01F800
3FC7F800
1FFFF000
0FFFE000
07FFC000
01FF0000
ENDCHAR
STARTCHAR uni1EE1
ENCODING 7905
SWIDTH 611 0
DWIDTH 20 0
BBX 19 23 1 0
BITMAP
01E300
03FF00
07FE00
063C00
000000
07F1E0
1FFDE0
3FFFE0
7FFFE0
7C1F60
F80FE0
F80FE0
F007C0
F00780
F00780
F00780
F80F80
F80F80
7C1F00
7FFF00
3FFE00
1FFC00
07F000
ENDCHAR
STARTCHAR uni1EE2
ENCODING 7906
SWIDTH 778 0
DWIDTH 25 0
BBX 25 30 1 -5
BITMAP
01FF0780
07FFC780
0FFFE780
1FFFF780
3FC7F980
3F01F980
7E00FD80
7C007F00
7C007E00
F8003E00
F8003E00
F8003E00
F8003E00
F8003E00
F8003E00
F8003E00
7C007C00
7C007C00
7E00FC00
3F01F800
3FC7F800
1FFFF000
0FFFE000
07FFC000
01FF0000
00000000
003C0000
003C0000
003C0000
003C0000
ENDCHAR
STARTCHAR uni1EE3
ENCODING 7907
SWIDTH 611 0
DWIDTH 20 0
BBX 19 23 1 -5
BITMAP
07F1E0
1FFDE0
3FFFE0
7FFFE0
7C1F60
F80FE0
F80FE0
F007C0
F00780
F00780
F00780
F80F80
F80F80
7C1F00
7FFF00
3FFE00
1FFC00
07F000
000000
01E000
01E000
01E000
01E000
ENDCHAR
STARTCHAR uni1EE4
ENCODING 7908
SWIDTH 722 0
DWIDTH 24 0
BBX 19 30 2 -5
BITMAP
F803E0
F803E0
F803E0
F803E0
F803E0
F803E0
F803E0
F803E0
F803E0
F803E0
F803E0
F803E0
F803E0
F803E0
F803E0
F803E0
F803E0
F803E0
F803E0
FC07E0
7F1FC0
7FFFC0
3FFF80
1FFF00
07FC00
000000
00F000
00F000
00F000
00F000
ENDCHAR
STARTCHAR uni1EE5
ENCODING 7909
SWIDTH 611 0
DWIDTH 20 0
BBX 15 23 2 -5
BITMAP
F01E
F01E
F01E
F01E
F01E
F01E
F01E
F01E
F01E
F01E
F01E
F01E
F83E
F87E
FFFE
7FFE
7FDE
1F1E
0000
03C0
03C0
03C0
03C0
ENDCHAR
STARTCHAR uni1EE8
ENCODING 7912
SWIDTH 722 0
DWIDTH 24 0
BBX 21 31 2 0
BITMAP
001E00
003C00
003800
007000
007000
000000
F803F8
F803F8
F803F8
F803F8
F803F8
F803F8
F803F8
F803F0
F803E0
F803E0
F803E0
F803E0
F803E0
F803E0
F803E0
F803E0
F803E0
F803E0
F803E0
FC07E0
7F1FC0
7FFFC0
3FFF80
1FFF00
07FC00
ENDCHAR
STARTCHAR uni1EE9
ENCODING 7913
SWIDTH 611 0
DWIDTH 20 0
BBX 18 24 2 0
BITMAP
003C00
007800
007000
00E000
00E000
000000
F01FC0
F01FC0
F01FC0
F01FC0
F01EC0
F01EC0
F01EC0
F01F80
F01F00
F01E00
F01E00
F01E00
F83E00
F87E00
FFFE00
7FFE00
7FDE00
1F1E00
ENDCHAR
STARTCHAR uni1EEA
ENCODING 7914
SWIDTH 722 0
DWIDTH 24 0
BBX 21 31 2 0
BITMAP
00E000
00F000
007000
007800
003800
000000
F803F8
F803F8
F803F8
F803F8
F803F8
F803F8
F803F8
F803F0
F803E0
F803E0
F803E0
F803E0
F803E0
F803E0
F803E0
F803E0
F803E0
F803E0
F803E0
FC07E0
7F1FC0
7FFFC0
3FFF80
1FFF00
07FC00
ENDCHAR
STARTCHAR uni1EEB
ENCODING 7915
SWIDTH 611 0
DWIDTH 20 0
BBX 18 24 2 0
BITMAP
01C000
01E000
00E000
00F000
007000
000000
F01FC0
F01FC0
F01FC0
F01FC0
F01EC0
F01EC0
F01EC0
F01F80
F01F00
F01E00
F01E00
F01E00
F83E00
F87E00
FFFE00
7FFE00
7FDE00
1F1E00
ENDCHAR
STARTCHAR uni1EEE
ENCODING 7918
SWIDTH 722 0
DWIDTH 24 0
BBX 21 30 2 0
BITMAP
00F180
01FF80
03FF00
031E00
000000
F803F8
F803F8
F803F8
F803F8
F803F8
F803F8
F803F8
F803F0
F803E0
F803E0
F803E0
F803E0
F803E0
F803E0
F803E0
F803E0
F803E0
F803E0
F803E0
FC07E0
7F1FC0
7FFFC0
3FFF80
1FFF00
07FC00
ENDCHAR
STARTCHAR uni1EEF
ENCODING 7919
SWIDTH 611 0
DWIDTH 20 0
BBX 18 23 2 0
BITMAP
03C600
07FE00
0FFC00
0C7800
000000
F01FC0
F01FC0
F01FC0
F01FC0
F01EC0
F01EC0
F01EC0
F01F80
F01F00
F01E00
F01E00
F01E00
F83E00
F87E00
FFFE00
7FFE00
7FDE00
1F1E00
ENDCHAR
STARTCHAR uni1EF0
ENCODING 7920
SWIDTH 722 0
DWIDTH 24 0
BBX 21 30 2 -5
BITMAP
F803F8
F803F8
F803F8
F803F8
F803F8
F803F8
F803F8
F803F0
F803E0
F803E0
F803E0
F803E0
F803E0
F803E0
F803E0
F803E0
F803E0
F803E0
F803E0
FC07E0
7F1FC0
7FFFC0
3FFF80
1FFF00
07FC00
000000
00F000
00F000
00F000
00F000
ENDCHAR
STARTCHAR uni1EF1
ENCODING 7921
SWIDTH 611 0
DWIDTH 20 0
BBX 18 23 2 -5
BITMAP
F01FC0
F01FC0
F01FC0
F01FC0
F01EC0
F01EC0
F01EC0
F01F80
F01F00
F01E00
F01E00
F01E00
F83E00
F87E00
FFFE00
7FFE00
7FDE00
1F1E00
000000
03C000
03C000
03C000
03C000
ENDCHAR
STARTCHAR Ygrave
ENCODING 7922
SWIDTH 667 0
DWIDTH 22 0
BBX 20 31 1 0
BITMAP
01C000
01E000
00E000
00F000
007000
000000
FC03F0
FC03E0
7E07E0
3E07C0
3F0FC0
3F0F80
1F0F80
1F9F00
0F9F00
0FFE00
07FE00
07FC00
03FC00
03F800
03F800
01F000
01F000
01F000
01F000
01F000
01F000
01F000
01F000
01F000
01F000
ENDCHAR
STARTCHAR ygrave
ENCODING 7923
SWIDTH 556 0
DWIDTH 19 0
BBX 16 31 1 -7
BITMAP
0700
0780
0380
03C0
01C0
0000
F81F
F81F
F81E
783E
7C3E
7C3C
3C3C
3E7C
3E78
1E78
1E78
1FF0
0FF0
0FF0
0FE0
07E0
07E0
07C0
07C0
07C0
0F80
3F80
3F00
3F00
3C00
ENDCHAR
STARTCHAR uni1EF4
ENCODING 7924
SWIDTH 667 0
DWIDTH 22 0
BBX 20 30 1 -5
BITMAP
FC03F0
FC03E0
7E07E0
3E07C0
3F0FC0
3F0F80
1F0F80
1F9F00
0F9F00
0FFE00
07FE00
07FC00
03FC00
03F800
03F800
01F000
01F000
01F000
01F000
01F000
01F000
01F000
01F000
01F000
01F000
000000
00F000
00F000
00F000
00F000
ENDCHAR
STARTCHAR uni1EF5
ENCODING 7925
SWIDTH 556 0
DWIDTH 19 0
BBX 16 30 1 -12
BITMAP
F81F
F81F
F81E
783E
7C3E
7C3C
3C3C
3E7C
3E78
1E78
1E78
1FF0
0FF0
0FF0
0FE0
07E0
07E0
07C0
07C0
07C0
0F80
3F80
3F00
3F00
3C00
0000
0780
0780
0780
0780
ENDCHAR
STARTCHAR uni1EF8
ENCODING 7928
SWIDTH 667 0
DWIDTH 22 0
BBX 20 30 1 0
BITMAP
01E300
03FF00
07FE00
063C00
000000
FC03F0
FC03E0
7E07E0
3E07C0
3F0FC0
3F0F80
1F0F80
1F9F00
0F9F00
0FFE00
07FE00
07FC00
03FC00
03F800
03F800
01F000
01F000
01F000
01F000
01F000
01F000
01F000
01F000
01F000
01F000
ENDCHAR
STARTCHAR uni1EF9
ENCODING 7929
SWIDTH 556 0
DWIDTH 19 0
BBX 16 30 1 -7
BITMAP
078C
0FFC
1FF8
18F0
0000
F81F
F81F
F81E
783E
7C3E
7C3C
3C3C
3E7C
3E78
1E78
1E78
1FF0
0FF0
0FF0
0FE0
07E0
07E0
07C0
07C0
07C0
0F80
3F80
3F00
3F00
3C00
ENDCHAR
STARTCHAR uni2000
ENCODING 8192
SWIDTH 500 0
DWIDTH 17 0
BBX 1 1 0 0
BITMAP
00
ENDCHAR
STARTCHAR uni2001
ENCODING 8193
SWIDTH 1000 0
DWIDTH 33 0
BBX 1 1 0 0
BITMAP
00
ENDCHAR
STARTCHAR uni2002
ENCODING 8194
SWIDTH 500 0
DWIDTH 17 0
BBX 1 1 0 0
BITMAP
00
ENDCHAR
STARTCHAR uni2003
ENCODING 8195
SWIDTH 1000 0
DWIDTH 33 0
BBX 1 1 0 0
BITMAP
00
ENDCHAR
STARTCHAR uni2004
ENCODING 8196
SWIDTH 333 0
DWIDTH 11 0
BBX 1 1 0 0
BITMAP
00
ENDCHAR
STARTCHAR uni2005
ENCODING 8197
SWIDTH 250 0
DWIDTH 8 0
BBX 1 1 0 0
BITMAP
00
ENDCHAR
STARTCHAR uni2006
ENCODING 8198
SWIDTH 167 0
DWIDTH 6 0
BBX 1 1 0 0
BITMAP
00
ENDCHAR
STARTCHAR uni2007
ENCODING 8199
SWIDTH 556 0
DWIDTH 18 0
BBX 1 1 0 0
BITMAP
00
ENDCHAR
STARTCHAR uni2008
ENCODING 8200
SWIDTH 278 0
DWIDTH 9 0
BBX 1 1 0 0
BITMAP
00
ENDCHAR
STARTCHAR uni2009
ENCODING 8201
SWIDTH 200 0
DWIDTH 7 0
BBX 1 1 0 0
BITMAP
00
ENDCHAR
STARTCHAR uni200A
ENCODING 8202
SWIDTH 100 0
DWIDTH 3 0
BBX 1 1 0 0
BITMAP
00
ENDCHAR
STARTCHAR uni200B
ENCODING 8203
SWIDTH 0 0
DWIDTH 0 0
BBX 1 1 0 0
BITMAP
00
ENDCHAR
STARTCHAR uni2010
ENCODING 8208
SWIDTH 333 0
DWIDTH 11 0
BBX 9 5 1 7
BITMAP
FF80
FF80
FF80
FF80
FF80
ENDCHAR
STARTCHAR uni2011
ENCODING 8209
SWIDTH 333 0
DWIDTH 11 0
BBX 9 5 1 7
BITMAP
FF80
FF80
FF80
FF80
FF80
ENDCHAR
STARTCHAR figuredash
ENCODING 8210
SWIDTH 556 0
DWIDTH 18 0
BBX 18 3 0 7
BITMAP
FFFFC0
FFFFC0
FFFFC0
ENDCHAR
STARTCHAR endash
ENCODING 8211
SWIDTH 556 0
DWIDTH 18 0
BBX 18 3 0 7
BITMAP
FFFFC0
FFFFC0
FFFFC0
ENDCHAR
STARTCHAR emdash
ENCODING 8212
SWIDTH 1000 0
DWIDTH 32 0
BBX 32 3 0 7
BITMAP
FFFFFFFF
FFFFFFFF
FFFFFFFF
ENDCHAR
STARTCHAR afii00208
ENCODING 8213
SWIDTH 1000 0
DWIDTH 32 0
BBX 32 3 0 7
BITMAP
FFFFFFFF
FFFFFFFF
FFFFFFFF
ENDCHAR
STARTCHAR quoteleft
ENCODING 8216
SWIDTH 278 0
DWIDTH 9 0
BBX 4 9 2 16
BITMAP
30
60
C0
C0
C0
F0
F0
F0
F0
ENDCHAR
STARTCHAR quoteright
ENCODING 8217
SWIDTH 278 0
DWIDTH 9 0
BBX 4 9 2 16
BITMAP
F0
F0
F0
F0
30
30
30
60
C0
ENDCHAR
STARTCHAR quotesinglbase
ENCODING 8218
SWIDTH 278 0
DWIDTH 9 0
BBX 4 8 2 -4
BITMAP
F0
F0
F0
F0
30
30
60
E0
ENDCHAR
STARTCHAR quotereversed
ENCODING 8219
SWIDTH 278 0
DWIDTH 9 0
BBX 4 9 2 16
BITMAP
F0
F0
F0
F0
C0
C0
C0
60
30
ENDCHAR
STARTCHAR quotedblleft
ENCODING 8220
SWIDTH 500 0
DWIDTH 16 0
BBX 12 8 2 16
BITMAP
3070
60E0
C0C0
C0C0
F0F0
F0F0
F0F0
F0F0
ENDCHAR
STARTCHAR quotedblright
ENCODING 8221
SWIDTH 500 0
DWIDTH 16 0
BBX 12 8 2 17
BITMAP
F0F0
F0F0
F0F0
F0F0
3030
3030
6060
E0C0
ENDCHAR
STARTCHAR quotedblbase
ENCODING 8222
SWIDTH 500 0
DWIDTH 16 0
BBX 12 10 2 -5
BITMAP
F0F0
F0F0
F0F0
F0F0
F0F0
3030
3030
3030
E0E0
C0C0
ENDCHAR
STARTCHAR uni201F
ENCODING 8223
SWIDTH 500 0
DWIDTH 16 0
BBX 12 8 2 17
BITMAP
F0F0
F0F0
F0F0
F0F0
C0C0
C0C0
6060
3070
ENDCHAR
STARTCHAR dagger
ENCODING 8224
SWIDTH 556 0
DWIDTH 18 0
BBX 16 30 1 -7
BITMAP
03C0
03C0
03C0
03C0
03C0
03C0
03C0
FFFF
FFFF
FFFF
FFFF
03C0
03C0
03C0
03C0
03C0
03C0
03C0
03C0
03C0
03C0
03C0
03C0
03C0
03C0
03C0
03C0
03C0
03C0
03C0
ENDCHAR
STARTCHAR daggerdbl
ENCODING 8225
SWIDTH 556 0
DWIDTH 18 0
BBX 16 30 1 -7
BITMAP
03C0
03C0
03C0
03C0
03C0
03C0
03C0
FFFF
FFFF
FFFF
FFFF
03C0
03C0
03C0
03C0
03C0
03C0
03C0
FFFF
FFFF
FFFF
FFFF
03C0
03C0
03C0
03C0
03C0
03C0
03C0
03C0
ENDCHAR
STARTCHAR bullet
ENCODING 8226
SWIDTH 350 0
DWIDTH 12 0
BBX 8 8 2 6
BITMAP
3C
7E
FF
FF
FF
FF
7E
3C
ENDCHAR
STARTCHAR ellipsis
ENCODING 8230
SWIDTH 1000 0
DWIDTH 33 0
BBX 27 5 3 0
BITMAP
F81F03E0
F81F03E0
F81F03E0
F81F03E0
F81F03E0
ENDCHAR
STARTCHAR perthousand
ENCODING 8240
SWIDTH 1000 0
DWIDTH 32 0
BBX 32 25 0 0
BITMAP
1E00C000
3F018000
7F838000
E1C30000
E1C70000
E1C60000
E1CE0000
7F8C0000
3F1C0000
1E180000
00300000
00700000
00600000
00E00000
00C00000
01C00000
01878078
039FE1FE
031FE1FE
06387387
06387387
0C387387
1C1FE1FE
181FE1FE
18078078
ENDCHAR
STARTCHAR guilsinglleft
ENCODING 8249
SWIDTH 333 0
DWIDTH 11 0
BBX 5 12 3 3
BITMAP
08
18
38
F8
F0
E0
E0
F0
F8
78
18
08
ENDCHAR
STARTCHAR guilsinglright
ENCODING 8250
SWIDTH 333 0
DWIDTH 11 0
BBX 5 12 3 3
BITMAP
80
C0
F0
F8
78
38
38
78
F8
E0
C0
80
ENDCHAR
STARTCHAR fraction
ENCODING 8260
SWIDTH 167 0
DWIDTH 6 0
BBX 16 24 -6 0
BITMAP
0007
0007
000E
001C
001C
0038
0038
0070
0070
00E0
00C0
01C0
0380
0380
0700
0700
0E00
0E00
1C00
1800
3800
7000
7000
E000
ENDCHAR
STARTCHAR oneinferior
ENCODING 8321
SWIDTH 333 0
DWIDTH 11 0
BBX 6 15 2 -7
BITMAP
1C
3C
FC
FC
1C
1C
1C
1C
1C
1C
1C
1C
1C
1C
1C
ENDCHAR
STARTCHAR twoinferior
ENCODING 8322
SWIDTH 333 0
DWIDTH 11 0
BBX 10 15 0 -7
BITMAP
3F00
7F80
F3C0
E1C0
E1C0
01C0
03C0
0780
0F00
3E00
7800
7000
FFC0
FFC0
FFC0
ENDCHAR
STARTCHAR threeinferior
ENCODING 8323
SWIDTH 333 0
DWIDTH 11 0
BBX 10 15 0 -7
BITMAP
1E00
7F80
F3C0
E1C0
E1C0
03C0
0F80
0F80
03C0
01C0
E1C0
E1C0
F3C0
7F80
3E00
ENDCHAR
STARTCHAR uni20A5
ENCODING 8357
SWIDTH 889 0
DWIDTH 30 0
BBX 24 25 2 -3
BITMAP
000300
000300
000300
000300
F1E6F8
F7FFFE
FFFFFE
FFFFFF
FC7F1F
F83E0F
F03C0F
F03C0F
F03C0F
F03C0F
F03C0F
F03C0F
F03C0F
F03C0F
F07C0F
F07C0F
F07C0F
F07C0F
00C000
00C000
00C000
ENDCHAR
STARTCHAR uni20A6
ENCODING 8358
SWIDTH 722 0
DWIDTH 24 0
BBX 19 25 2 0
BITMAP
F803E0
FC03E0
FC03E0
FE03E0
FE03E0
FF03E0
FFFFE0
FFFFE0
FFFFE0
FFFFE0
FBE3E0
F9E3E0
F9F3E0
F8F3E0
FFFFE0
FFFFE0
FFFFE0
FFFFE0
F81FE0
F81FE0
F80FE0
F80FE0
F807E0
F807E0
F803E0
ENDCHAR
STARTCHAR uni20A9
ENCODING 8361
SWIDTH 944 0
DWIDTH 31 0
BBX 29 25 1 0
BITMAP
F81F81F8
F81F81F8
781F81F0
781F81F0
781F81F0
7C3FC3E0
7DFFFFE0
7DFFFFE0
3DFFFFE0
3DFFFFC0
3E79E3C0
3E79E7C0
1E79E7C0
1E79E780
1FFFFF80
1FFFFF80
0FFFFF00
0FFFFF00
0FF0FF00
0FE07F00
07E07E00
07E07E00
07E07E00
03C03C00
03C03C00
ENDCHAR
STARTCHAR Euro
ENCODING 8364
SWIDTH 722 0
DWIDTH 24 0
BBX 24 25 -2 0
BITMAP
003FC0
00FFF0
01FFF8
03FFFC
07F0FE
07C03E
FFFE3F
FFFE1F
FFFE1F
FFFE00
1F0000
1F0000
1F0000
1F0000
FFFE00
FFFE00
FFFE1F
FFFE1F
0FC03F
07C03E
07F0FE
03FFFC
01FFF8
00FFF0
003FC0
ENDCHAR
STARTCHAR uni20AD
ENCODING 8365
SWIDTH 722 0
DWIDTH 24 0
BBX 20 25 2 0
BITMAP
F807E0
F807E0
F80FC0
F81F80
F83F00
F87E00
F8FC00
F8F800
F9F800
FBF000
FFE000
FFFFF0
FFFFF0
FFF000
FFF800
FCFC00
F87E00
F87E00
F83F00
F81F80
F80F80
F80FC0
F807E0
F803F0
F803F0
ENDCHAR
STARTCHAR uni2103
ENCODING 8451
SWIDTH 1102 0
DWIDTH 36 0
BBX 32 25 2 0
BITMAP
00003FC0
3E00FFF0
7F01FFF8
6303FFFC
C187F0FE
C187C03E
C18F803F
C18F801F
630F801F
7F1F0000
3E1F0000
001F0000
001F0000
001F0000
001F0000
001F0000
000F801F
000F801F
000FC03F
0007C03E
0007F0FE
0003FFFC
0001FFF8
0000FFF0
00003FC0
ENDCHAR
STARTCHAR uni2109
ENCODING 8457
SWIDTH 991 0
DWIDTH 32 0
BBX 28 25 2 0
BITMAP
000FFFF0
3E0FFFF0
7F0FFFF0
630FFFF0
C18F8000
C18F8000
C18F8000
C18F8000
630F8000
7F0F8000
3E0FFFE0
000FFFE0
000FFFE0
000FFFE0
000F8000
000F8000
000F8000
000F8000
000F8000
000F8000
000F8000
000F8000
000F8000
000F8000
000F8000
ENDCHAR
STARTCHAR trademark
ENCODING 8482
SWIDTH 1000 0
DWIDTH 32 0
BBX 28 14 2 11
BITMAP
FFE7C1F0
FFE7C1F0
FFE7E3F0
0E07E3F0
0E07E3F0
0E077770
0E077770
0E077770
0E073E70
0E073E70
0E073E70
0E071C70
0E071C70
0E070870
ENDCHAR
STARTCHAR uni212A
ENCODING 8490
SWIDTH 722 0
DWIDTH 24 0
BBX 20 25 2 0
BITMAP
F807E0
F807E0
F80FC0
F81F80
F83F00
F87E00
F8FC00
F8F800
F9F800
FBF000
FFE000
FFE000
FFF000
FFF000
FFF800
FCFC00
F87E00
F87E00
F83F00
F81F80
F80F80
F80FC0
F807E0
F803F0
F803F0
ENDCHAR
STARTCHAR uni212B
ENCODING 8491
SWIDTH 722 0
DWIDTH 23 0
BBX 22 31 0 0
BITMAP
007800
00CC00
008400
008400
00CC00
007800
000000
00FC00
01FE00
01FE00
01FE00
03FF00
03FF00
03FF00
07CF80
07CF80
07CF80
0F8780
0F87C0
0F87C0
1F03C0
1F03E0
1FFFE0
1FFFE0
3FFFF0
3FFFF0
3E01F0
7C00F8
7C00F8
FC00FC
F8007C
ENDCHAR
STARTCHAR uni2132
ENCODING 8498
SWIDTH 611 0
DWIDTH 20 0
BBX 16 25 2 0
BITMAP
001F
001F
001F
001F
001F
001F
001F
001F
001F
001F
001F
7FFF
7FFF
7FFF
7FFF
001F
001F
001F
001F
001F
001F
FFFF
FFFF
FFFF
FFFF
ENDCHAR
STARTCHAR universal
ENCODING 8704
SWIDTH 722 0
DWIDTH 23 0
BBX 22 25 0 0
BITMAP
F8007C
FC00FC
7C00F8
7C00F8
3E01F0
3FFFF0
3FFFF0
1FFFE0
1FFFE0
1F03E0
1F03C0
0F87C0
0F87C0
0F8780
07CF80
07CF80
07CF80
03FF00
03FF00
03FF00
01FE00
01FE00
01FE00
00FC00
00FC00
ENDCHAR
STARTCHAR existential
ENCODING 8707
SWIDTH 667 0
DWIDTH 22 0
BBX 18 25 2 0
BITMAP
7FFFC0
7FFFC0
7FFFC0
7FFFC0
0007C0
0007C0
0007C0
0007C0
0007C0
0007C0
3FFFC0
3FFFC0
3FFFC0
3FFFC0
0007C0
0007C0
0007C0
0007C0
0007C0
0007C0
0007C0
FFFFC0
FFFFC0
FFFFC0
FFFFC0
ENDCHAR
STARTCHAR uni2204
ENCODING 8708
SWIDTH 667 0
DWIDTH 22 0
BBX 18 25 2 0
BITMAP
7FFFC0
7FFFC0
7FFFC0
7FFFC0
0037C0
0037C0
0037C0
0077C0
0067C0
0067C0
3FFFC0
3FFFC0
3FFFC0
3FFFC0
00C7C0
0187C0
0187C0
0187C0
0387C0
0307C0
0307C0
FFFFC0
FFFFC0
FFFFC0
FFFFC0
ENDCHAR
STARTCHAR minus
ENCODING 8722
SWIDTH 584 0
DWIDTH 19 0
BBX 16 4 1 6
BITMAP
FFFF
FFFF
FFFF
FFFF
ENDCHAR
STARTCHAR fraction
ENCODING 8725
SWIDTH 167 0
DWIDTH 6 0
BBX 16 24 -6 0
BITMAP
0007
0007
000E
001C
001C
0038
0038
0070
0070
00E0
00C0
01C0
0380
0380
0700
0700
0E00
0E00
1C00
1800
3800
7000
7000
E000
ENDCHAR
STARTCHAR periodcentered
ENCODING 8729
SWIDTH 278 0
DWIDTH 9 0
BBX 4 5 2 11
BITMAP
60
F0
F0
F0
60
ENDCHAR
STARTCHAR uni2236
ENCODING 8758
SWIDTH 333 0
DWIDTH 11 0
BBX 5 17 3 0
BITMAP
F8
F8
F8
F8
F8
00
00
00
00
00
00
00
F8
F8
F8
F8
F8
ENDCHAR
STARTCHAR uni2259
ENCODING 8793
SWIDTH 584 0
DWIDTH 19 0
BBX 15 18 2 2
BITMAP
0180
03C0
07E0
0E70
1C38
0000
FFFE
FFFE
FFFE
FFFE
0000
0000
0000
0000
FFFE
FFFE
FFFE
FFFE
ENDCHAR
STARTCHAR uni225A
ENCODING 8794
SWIDTH 584 0
DWIDTH 19 0
BBX 15 18 2 2
BITMAP
1C38
0E70
07E0
03C0
0180
0000
FFFE
FFFE
FFFE
FFFE
0000
0000
0000
0000
FFFE
FFFE
FFFE
FFFE
ENDCHAR
STARTCHAR notequal
ENCODING 8800
SWIDTH 584 0
DWIDTH 19 0
BBX 15 25 2 -4
BITMAP
0030
0030
0030
0030
0060
0060
0060
FFFE
FFFE
FFFE
FFFE
01C0
0180
0180
0180
FFFE
FFFE
FFFE
FFFE
0600
0600
0600
0C00
0C00
0C00
ENDCHAR
STARTCHAR equivalence
ENCODING 8801
SWIDTH 584 0
DWIDTH 19 0
BBX 15 8 0 4
BITMAP
FFFE
FFFE
0000
FFFE
FFFE
0000
FFFE
FFFE
ENDCHAR
STARTCHAR uni2262
ENCODING 8802
SWIDTH 584 0
DWIDTH 19 0
BBX 15 25 0 -4
BITMAP
0030
0030
0030
0030
0060
0060
0060
00E0
00C0
FFFE
FFFE
01C0
FFFE
FFFE
0180
FFFE
FFFE
0300
0700
0600
0600
0600
0C00
0C00
0C00
ENDCHAR
STARTCHAR lessequal
ENCODING 8804
SWIDTH 584 0
DWIDTH 19 0
BBX 16 19 1 -3
BITMAP
0003
001F
007F
03FF
0FFE
7FF8
FFC0
FE00
FE00
FFC0
7FF0
0FFE
03FF
007F
001F
0003
0000
FFFF
FFFF
ENDCHAR
STARTCHAR greaterequal
ENCODING 8805
SWIDTH 584 0
DWIDTH 19 0
BBX 16 19 1 -3
BITMAP
C000
F000
FE00
FFC0
7FF0
1FFE
03FF
007F
007F
03FF
1FFE
7FF0
FFC0
FE00
F000
C000
0000
FFFF
FFFF
ENDCHAR
STARTCHAR uni226E
ENCODING 8814
SWIDTH 584 0
DWIDTH 19 0
BBX 16 25 1 -4
BITMAP
0030
0030
0030
0030
0060
0063
007F
00FF
03FF
0FFE
7FF8
FFC0
FF80
FF80
FFC0
7FF0
0FFE
03FF
077F
061F
0603
0600
0C00
0C00
0C00
ENDCHAR
STARTCHAR uni226F
ENCODING 8815
SWIDTH 584 0
DWIDTH 19 0
BBX 16 25 1 -4
BITMAP
0030
0030
0030
0030
0060
C060
F060
FEE0
FFC0
7FF0
1FFE
03FF
01FF
01FF
03FF
1FFE
7FF0
FFC0
FF00
F600
C600
0600
0C00
0C00
0C00
ENDCHAR
STARTCHAR uni2270
ENCODING 8816
SWIDTH 584 0
DWIDTH 19 0
BBX 16 25 1 -6
BITMAP
0030
0030
0030
0033
007F
007F
03FF
0FFE
7FF8
FFC0
FEC0
FFC0
FFC0
7FF0
0FFE
03FF
037F
031F
0703
0600
FFFF
FFFF
0C00
0C00
0C00
ENDCHAR
STARTCHAR uni2271
ENCODING 8817
SWIDTH 584 0
DWIDTH 19 0
BBX 16 25 1 -6
BITMAP
0030
0030
0030
C030
F060
FE60
FFE0
7FF0
1FFE
03FF
00FF
01FF
03FF
1FFE
7FF0
FFC0
FF00
F300
C700
0600
FFFF
FFFF
0C00
0C00
0C00
ENDCHAR
STARTCHAR fi
ENCODING -1
SWIDTH 611 0
DWIDTH 20 0
BBX 17 25 0 0
BITMAP
0FC780
1FC780
1FC780
1F0780
1E0000
1E0000
1E0780
FFC780
FFC780
FFC780
1E0780
1E0780
1E0780
1E0780
1E0780
1E0780
1E0780
1E0780
1E0780
1E0780
1E0780
1E0780
1E0780
1E0780
1E0780
ENDCHAR
STARTCHAR fl
ENCODING -1
SWIDTH 611 0
DWIDTH 20 0
BBX 17 25 0 0
BITMAP
0FC780
1FC780
1FC780
1F0780
1E0780
1E0780
1E0780
FFC780
FFC780
FFC780
1E0780
1E0780
1E0780
1E0780
1E0780
1E0780
1E0780
1E0780
1E0780
1E0780
1E0780
1E0780
1E0780
1E0780
1E0780
ENDCHAR
ENDFONT
